<svg width="48" height="48" xmlns="http://www.w3.org/2000/svg"><path d="M22.376 25.627h4.126v-4.126h-4.126v4.126Zm6.126 0h4.125v-4.126h-4.125v4.126Zm-7.126 2h12.251a1 1 0 0 0 1-1v-6.126a1 1 0 0 0-1-1H21.376a1 1 0 0 0-1 1v6.126a1 1 0 0 0 1 1Zm16.501 1.5h-2.5a1 1 0 0 0-1 1v1.625h-2.375v-1.625a1 1 0 0 0-1-1h-3.5a1 1 0 0 0-1 1v1.625h-6.751v-1.625a1 1 0 0 0-1-1h-.75V18.001h19.876v11.126Zm1-13.126H17.001a1 1 0 0 0-1 1v13.126a1 1 0 0 0 1 1h.75v1.625a1 1 0 0 0 1 1h8.751a1 1 0 0 0 1-1v-1.625h1.5v1.625a1 1 0 0 0 1 1h4.375a1 1 0 0 0 1-1v-1.625h2.5a1 1 0 0 0 1-1V17.001a1 1 0 0 0-1-1Zm-24.376-.75v19.251a1 1 0 0 1-1 1H10.35v-2h2.151V16.251H10.35v-2h3.151a1 1 0 0 1 1 1Zm9.501 28.752C12.972 44.003 4 35.03 4 24.001 4 12.973 12.972 4 24.002 4c11.028 0 20 8.973 20 20.001 0 11.029-8.972 20.002-20 20.002Zm0-42.003C11.87 2 2 11.869 2 24.001c0 12.132 9.87 22.002 22.002 22.002 12.131 0 22-9.87 22-22.002S36.133 2 24.002 2Z" fill="#8C4FFF" fill-rule="evenodd"/></svg>