<svg width="48" height="48" xmlns="http://www.w3.org/2000/svg"><path d="M24.002 44.002C12.972 44.002 4 35.029 4 24.001S12.973 4 24.002 4c11.027 0 20 8.973 20 20.001s-8.973 20.001-20 20.001Zm0-42.002C11.87 2 2 11.869 2 24.001c0 12.132 9.87 22.001 22.002 22.001 12.131 0 22-9.869 22-22.001 0-12.132-9.869-22.001-22-22.001Zm3.063 25.235c.395 0 .718.316.718.704a.713.713 0 0 1-.719.703.713.713 0 0 1-.72-.703c0-.388.323-.704.72-.704Zm-7.002-2.093a.713.713 0 0 1-.72-.703c0-.388.323-.704.72-.704.398 0 .72.316.72.704a.713.713 0 0 1-.72.703Zm7.002-4.867a.664.664 0 1 1-.004 1.328.664.664 0 0 1 .003-1.328Zm-4.303 3.941 2.558-1.282a2.64 2.64 0 0 0 1.744.667 2.666 2.666 0 0 0 2.663-2.662 2.667 2.667 0 0 0-2.663-2.664 2.667 2.667 0 0 0-2.663 2.664c0 .07.015.137.021.207l-2.559 1.282a2.706 2.706 0 0 0-1.8-.693c-1.5 0-2.72 1.213-2.72 2.704a2.715 2.715 0 0 0 4.698 1.844l2.34 1.3c-.017.117-.037.233-.037.356a2.714 2.714 0 0 0 2.72 2.703 2.715 2.715 0 0 0 2.72-2.703 2.715 2.715 0 0 0-2.72-2.704 2.71 2.71 0 0 0-1.698.608l-2.585-1.436c-.002-.065-.014-.127-.02-.191Zm1.677 7.535c-4.032 0-7.314-3.243-7.314-7.23 0-3.988 3.282-7.232 7.314-7.232s7.313 3.244 7.313 7.232c0 3.987-3.28 7.23-7.313 7.23Zm0-16.462c-5.136 0-9.313 4.142-9.313 9.232 0 5.089 4.178 9.23 9.313 9.23 5.134 0 9.313-4.141 9.313-9.23 0-5.09-4.179-9.232-9.314-9.232ZM14.5 37.002V10.128l14.626-.003v4.25a1 1 0 0 0 1 1h4.25v21.627H14.5Zm16.625-25.463 1.836 1.836h-1.836v-1.836Zm4.957 2.129-5.25-5.25a.99.99 0 0 0-.706-.284v-.009L13.5 8.128a1 1 0 0 0-1 1v28.874a1 1 0 0 0 1 1h21.875a1 1 0 0 0 1-1V14.375h-.008a.991.991 0 0 0-.285-.707Z" fill="#8C4FFF" fill-rule="evenodd"/></svg>