<svg width="48" height="48" xmlns="http://www.w3.org/2000/svg"><path d="M33.69 34.375h2.345V32H33.69v2.375Zm-6.939 0h2.375V32h-2.375v2.375Zm-7.875 0h2.375V32h-2.375v2.375Zm-6.91 0h2.285V32h-2.285v2.375Zm6.035-17.5h12V11h-12v5.875ZM37.035 30h-1.534v-3.375a1 1 0 0 0-1-1h-2.5V22.25a1 1 0 0 0-1-1h-6v-2.375h6a1 1 0 0 0 1-1V10a1 1 0 0 0-1-1h-14a1 1 0 0 0-1 1v7.875a1 1 0 0 0 1 1h6v2.375h-6a1 1 0 0 0-1 1v3.375h-2.5a1 1 0 0 0-1 1V30h-1.536a1 1 0 0 0-1 1v4.375a1 1 0 0 0 1 1h4.286a1 1 0 0 0 1-1V31a1 1 0 0 0-1-1h-.75v-2.375h4.125V30h-.75a1 1 0 0 0-1 1v4.375a1 1 0 0 0 1 1h4.375a1 1 0 0 0 1-1V31a1 1 0 0 0-1-1h-1.625v-3.375a1 1 0 0 0-1-1h-1.625V23.25h12v2.375h-1.625a1 1 0 0 0-1 1V30h-1.625a1 1 0 0 0-1 1v4.375a1 1 0 0 0 1 1h4.375a1 1 0 0 0 1-1V31a1 1 0 0 0-1-1h-.75v-2.375h4.125V30h-.811a1 1 0 0 0-1 1v4.375a1 1 0 0 0 1 1h4.345a1 1 0 0 0 1-1V31a1 1 0 0 0-1-1ZM24.001 44C12.972 44 4 35.028 4 24S12.972 4 24.001 4c11.028 0 20 8.972 20 20s-8.972 20-20 20Zm0-42C11.869 2 2 11.869 2 24s9.869 22 22.001 22c12.13 0 22-9.869 22-22s-9.87-22-22-22Z" fill="#8C4FFF" fill-rule="evenodd"/></svg>