<svg width="48" height="48" xmlns="http://www.w3.org/2000/svg"><path d="M32.625 35.376h2V12.625h-2v22.751Zm-19.25 0h2V12.625h-2v22.751Zm26.25-9.89-1.782-1.485 1.782-1.486v2.971Zm1.424-6.011a1.004 1.004 0 0 0-1.065.136l-4.344 3.621a1.003 1.003 0 0 0 0 1.538l4.345 3.62a1.003 1.003 0 0 0 1.064.136 1 1 0 0 0 .576-.905V20.38a1 1 0 0 0-.576-.905ZM8.375 25.486v-2.971l1.782 1.486-1.782 1.485Zm-.359-5.875a1.003 1.003 0 0 0-1.641.769v7.241a1 1 0 0 0 1.64.769l4.345-3.62a1.003 1.003 0 0 0 0-1.538l-4.344-3.621ZM24 44.001c-11.028 0-20-8.972-20-20S12.972 4 24 4s20 8.973 20 20.001-8.972 20-20 20ZM24 2C11.869 2 2 11.869 2 24.001c0 12.131 9.869 22 22 22s22-9.869 22-22C46 11.869 36.131 2 24 2Zm4.246 27.126-8.496-.005.002-6.745 8.498.004-.004 6.746Zm-5.867-10.075c.002-.552.187-1.064.523-1.443.304-.34.696-.529 1.105-.529h.005c.889.003 1.61.898 1.607 1.997l-.001 1.303-3.245-.002.006-1.326Zm6.871 1.329-1.632-.001.001-1.3c.007-2.199-1.609-3.993-3.601-4h-.011c-.989 0-1.912.427-2.601 1.202a4.169 4.169 0 0 0-1.027 2.762l-.006 1.334-1.621-.001a.997.997 0 0 0-1 1l-.002 8.745a1 1 0 0 0 1 1l10.496.005a.997.997 0 0 0 1-1l.004-8.746a.997.997 0 0 0-1-1Z" fill="#8C4FFF" fill-rule="evenodd"/></svg>