<svg width="48" height="48" xmlns="http://www.w3.org/2000/svg"><path d="M24.002 25.439A1.188 1.188 0 1 1 24 27.814a1.188 1.188 0 0 1 .002-2.375Zm-1 4.198v3.054h2v-3.055a3.18 3.18 0 0 0 2.188-3.01A3.191 3.191 0 0 0 24 23.438a3.191 3.191 0 0 0-3.188 3.188 3.18 3.18 0 0 0 2.189 3.01Zm1 14.364C12.972 44.002 4 35.03 4 24.002s8.973-20 20.002-20c11.027 0 20 8.971 20 20 0 11.028-8.973 20-20 20Zm0-42C11.87 2 2 11.87 2 24s9.87 22 22.002 22c12.131 0 22-9.868 22-22s-9.869-22-22-22Zm8.618 32.376-17.244-.008.005-12.869 17.245.008-.006 12.869Zm-12.865-18.28a4.438 4.438 0 0 1 1.265-3.113 4.16 4.16 0 0 1 2.988-1.268h.015a4.108 4.108 0 0 1 2.976 1.293 4.489 4.489 0 0 1 1.236 3.14v3.357l-8.497-.003.017-3.407Zm13.872 3.41h-3.393V16.15a6.473 6.473 0 0 0-1.79-4.524 6.089 6.089 0 0 0-4.416-1.91h-.02a6.14 6.14 0 0 0-4.416 1.867 6.428 6.428 0 0 0-1.837 4.505l-.017 3.413h-3.357a1 1 0 0 0-1 1l-.005 14.868a1 1 0 0 0 1 1l19.244.007a1 1 0 0 0 1-1l.007-14.87a1 1 0 0 0-1-1Z" fill="#8C4FFF" fill-rule="evenodd"/></svg>