<svg width="48" height="48" xmlns="http://www.w3.org/2000/svg"><path d="M2 15.353h43.92V2H2v13.353Zm2-1.999h39.92V4H4v9.354Zm20.706 16.847H45.92V16.847H24.706v13.354Zm2-2.001H43.92v-9.353H26.706V28.2ZM2 30.201h21.213V16.847H2v13.354ZM4 28.2h17.213v-9.353H4V28.2Zm28.567 16.847H45.92V31.694H32.567v13.353Zm1.999-2h9.354v-9.354h-9.354v9.354Zm-17.719 2h14.226V31.694H16.847v13.353Zm2-2h10.227v-9.354H18.847v9.354ZM2 45.047h13.352V31.694H2v13.353Zm2-2h9.353v-9.354H4v9.354Z" fill="#E7157B" fill-rule="evenodd"/></svg>