<svg width="48" height="48" xmlns="http://www.w3.org/2000/svg"><path d="M32 28c3.309 0 6 2.691 6 6s-2.691 6-6 6-6-2.691-6-6 2.691-6 6-6Zm0 14c4.411 0 8-3.589 8-8s-3.589-8-8-8-8 3.589-8 8 3.589 8 8 8Zm2-32.764L38.882 19h-9.764L34 9.236ZM27.5 21h13a1 1 0 0 0 .895-1.447l-6.5-13c-.34-.678-1.45-.678-1.79 0l-6.5 13A1 1 0 0 0 27.5 21ZM9 29h11V18H9v11Zm-1 2h13a1 1 0 0 0 1-1V17a1 1 0 0 0-1-1H8a1 1 0 0 0-1 1v13a1 1 0 0 0 1 1ZM4 44h40V4H4v40ZM45 2H3a1 1 0 0 0-1 1v42a1 1 0 0 0 1 1h42a1 1 0 0 0 1-1V3a1 1 0 0 0-1-1Z" fill="#E7157B" fill-rule="evenodd"/></svg>