<svg width="24" height="24" xmlns="http://www.w3.org/2000/svg"><path d="M16 15.498a.5.5 0 1 0-1.002.002.5.5 0 0 0 1.002-.002m1 0c0 .827-.673 1.5-1.5 1.5s-1.5-.673-1.5-1.5.673-1.5 1.5-1.5 1.5.673 1.5 1.5m-8-4.002a.5.5 0 1 0-1.002.002A.5.5 0 0 0 9 11.496m1 0c0 .828-.673 1.501-1.5 1.501s-1.5-.673-1.5-1.5c0-.828.673-1.501 1.5-1.501s1.5.673 1.5 1.5m2-4.001a.5.5 0 1 0 1.002-.002.5.5 0 0 0-1.002.002m-1 0c0-.828.673-1.501 1.5-1.501s1.5.673 1.5 1.5c0 .828-.673 1.501-1.5 1.501s-1.5-.673-1.5-1.5m8 4.502a7.009 7.009 0 0 0-2.899-5.665c-.184-.059-.694.091-1.535.452a9.325 9.325 0 0 1-.369.151l-.34-.941c.078-.027.187-.075.316-.13.221-.094.438-.184.65-.264A6.981 6.981 0 0 0 12 4.994c-.687 0-1.358.098-1.998.29-.046.014-.087.037-.132.05.35.132.767.3 1.262.523l-.408.912c-1.206-.54-1.896-.742-2.217-.817a6.991 6.991 0 0 0-3.403 4.977c.322-.042.647-.067.993-.076l.025 1c-.397.01-.759.053-1.121.112L5 11.997a6.984 6.984 0 0 0 2.976 5.721c-.201-.701-.372-1.54-.372-2.387 0-.156-.005-.321-.01-.488-.016-.477-.032-.97.056-1.42l.981.193c-.067.337-.052.773-.038 1.194.006.179.011.354.011.521 0 .898.249 2.024.673 3.112a7.053 7.053 0 0 0 3.877.45 7.61 7.61 0 0 1 .392-.627c.214-.316.435-.642.521-.938l.961.279c-.09.312-.254.594-.427.867a6.86 6.86 0 0 0 1.678-.937A6.96 6.96 0 0 0 19 11.997m1 0a7.954 7.954 0 0 1-3.108 6.33 7.855 7.855 0 0 1-2.31 1.242A7.866 7.866 0 0 1 12 20a8.02 8.02 0 0 1-3.775-.947 7.99 7.99 0 0 1-4.207-7.547c.194-3.332 2.484-6.223 5.697-7.18 2.014-.607 4.337-.36 6.195.69a8.008 8.008 0 0 1 4.09 6.98m-8.925-3.06-.656-.754c-.516.448-.654.678-.885 1.058-.067.111-.145.241-.249.4l.838.546c.11-.17.194-.308.267-.427.204-.338.288-.477.685-.824m-.426 2.431-.324.946c1.113.383 2.086.995 3.062 1.926l.689-.725c-1.083-1.033-2.172-1.716-3.427-2.147m2.636-2.292.836-.549a9.742 9.742 0 0 1 1.609 4.791l-.998.062a8.744 8.744 0 0 0-1.447-4.304" fill="#8C4FFF" fill-rule="evenodd"/></svg>