<svg width="24" height="24" xmlns="http://www.w3.org/2000/svg"><path d="M9 15.024h2v-.962H9v.962Zm9.042-3.831c-.127-1.093-.788-1.691-1.41-1.89a1.803 1.803 0 0 0-1.343.091 3.542 3.542 0 0 0-.942-1.405c-1.09-1-3.474-1.297-5.105-.634-1.278.521-2.656 1.961-2.738 3.425C5.64 11.065 5 12.034 5 12.7h1c0-.282.486-1.04 1-1.04a.49.49 0 0 0 .5-.48v-.262c0-.946 1.017-2.223 2.133-2.678 1.26-.514 3.216-.298 4.022.445.605.555.752 1.165.87 1.653a.493.493 0 0 0 .384.361c.19.04.386-.031.503-.18.23-.293.575-.41.903-.305.362.116.749.535.749 1.365 0 .236.176.436.417.474 1.022.163 1.519.83 1.519 2.04 0 1.784-1.381 1.935-1.505 1.946h-6.489V17h5.213l1.305-.001c.857-.048 2.476-.717 2.476-2.905 0-1.957-1.093-2.655-1.958-2.901ZM8 17h2v-.961H8V17Zm-3 0h2v-.961H5V17Zm-1-1.976h3v-.962H4v.962Z" fill="#E7157B" fill-rule="evenodd"/></svg>