<svg width="24" height="24" xmlns="http://www.w3.org/2000/svg"><path d="M5.032 5h8.258v3h1.033V4.5a.496.496 0 0 0-.151-.354.529.529 0 0 0-.366-.146l-9.29.001a.51.51 0 0 0-.516.5V17.5c0 .276.231.5.516.5h7.742v-1H5.032V5Zm9.29 10h1.033v1h1.032v-1h1.032v-1h-3.096v1Zm4.646-1.5c0-2.061-1.273-3.5-3.097-3.5s-3.097 1.439-3.097 3.5c0 1.545 1.173 2.934 2.335 3.624a.499.499 0 0 1 .246.426V19h1.032v-1.45c0-.174.094-.335.246-.426 1.162-.69 2.335-2.079 2.335-3.624Zm1.032 0c0 1.819-1.26 3.44-2.58 4.321V19.5a.51.51 0 0 1-.517.5H14.84a.508.508 0 0 1-.516-.5v-1.679C13 16.94 11.742 15.319 11.742 13.5c0-2.607 1.737-4.5 4.129-4.5C18.263 9 20 10.893 20 13.5ZM6.065 8H9.16V7H6.065v1Zm0 6h4.129v-1h-4.13v1Zm0-2h4.129v-1h-4.13v1Zm0-2h4.129V9h-4.13v1Z" fill="#01A88D" fill-rule="evenodd"/></svg>