<svg width="24" height="24" xmlns="http://www.w3.org/2000/svg"><path d="M13 20h.984v-2.065H13V20Zm-2.84 0h.984v-2.065h-.984V20Zm4.81-1.032h.984v-2.065h-.984v2.065Zm-6.865 0h.984v-2.065h-.984v2.065Zm3.94-9.277c-2.12 0-3.06-.59-3.06-.814V7.204c.612.29 1.575.484 3.06.484 1.283 0 2.29-.185 2.97-.517v1.706c0 .232-.883.814-2.97.814Zm0 3.069c-1.873 0-3.06-.814-3.06-1.157v-1.438c.79.39 1.94.558 3.06.558 1.273 0 2.286-.196 2.97-.542v1.422c0 .335-1.04 1.157-2.97 1.157Zm0 2.611c-1.873 0-3.06-.838-3.06-1.192v-1.161c.742.47 1.832.774 3.06.774 1.19 0 2.246-.298 2.97-.76v1.147c0 .364-1.121 1.192-2.97 1.192Zm0-10.339c2.087 0 2.97.606 2.97.847 0 .229-.853.777-2.97.777-2.23 0-3.06-.477-3.06-.777 0-.197.954-.847 3.06-.847Zm0-1.032C10.032 4 8 4.581 8 5.879v8.3c0 1.206 1.853 2.225 4.046 2.225 2.18 0 3.954-.999 3.954-2.225v-8.3C16 4.737 14.448 4 12.046 4Z" fill="#C925D1" fill-rule="evenodd"/></svg>