<svg width="24" height="24" xmlns="http://www.w3.org/2000/svg"><path d="M9.5 5.032c2.747 0 4.5.917 4.5 1.549 0 .631-1.753 1.548-4.5 1.548S5 7.212 5 6.581c0-.632 1.753-1.549 4.5-1.549Zm0 7.742c1.019 0 2.007-.122 2.859-.352l-.254-.999c-.77.21-1.67.319-2.605.319-2.747 0-4.5-.917-4.5-1.548V8.107c1.061.69 2.813 1.054 4.5 1.054 1.687 0 3.439-.363 4.5-1.054v1.054h1V6.577C14.994 4.903 12.164 4 9.5 4c-2.605 0-5.364.866-5.488 2.47H4v11.174C4 19.191 6.552 20 9.073 20c1.167 0 2.298-.172 3.182-.485l-.324-.978c-.784.278-1.798.43-2.858.43-2.636 0-4.073-.874-4.073-1.323V15.85c1.061.69 2.813 1.054 4.5 1.054 1.019 0 2.007-.122 2.859-.352l-.254-.999c-.77.21-1.67.319-2.605.319-2.747 0-4.5-.917-4.5-1.548V11.72c1.061.69 2.813 1.054 4.5 1.054Zm9.5-.516h-1v-1.032h.1l.9.884v.148Zm0 6.194h-5v-7.226h3v1.548c0 .285.224.516.5.516H19v5.162Zm.845-6.936-1.2-1.18a.491.491 0 0 0-.345-.142h-4.8c-.276 0-.5.23-.5.516v8.258c0 .285.224.516.5.516h6c.276 0 .5-.231.5-.516V11.89a.523.523 0 0 0-.155-.374Z" fill="#C925D1" fill-rule="evenodd"/></svg>