<svg width="24" height="24" xmlns="http://www.w3.org/2000/svg"><path d="M15 9h-5v5h5V9Zm1 0h1v1h-1v1h1v1h-1v1h1v1h-1v.308a.694.694 0 0 1-.692.692H15v1h-1v-1h-1v1h-1v-1h-1v1h-1v-1h-.308A.694.694 0 0 1 9 14.308V14H8v-1h1v-1H8v-1h1v-1H8V9h1v-.308C9 8.311 9.311 8 9.692 8H10V7h1v1h1V7h1v1h1V7h1v1h.308c.381 0 .692.311.692.692V9Zm-4 10H5v-6h2v-1H4.8c-.442 0-.8.342-.8.762v6.457c0 .431.351.781.781.781H12.2c.442 0 .8-.342.8-.762V17h-1v2Zm8-14.219v7.438a.782.782 0 0 1-.781.781H18v-1h1V5h-7v1h-1V4.781c0-.431.351-.781.781-.781h7.438c.43 0 .781.35.781.781Z" fill="#ED7100" fill-rule="evenodd"/></svg>