<svg width="24" height="24" xmlns="http://www.w3.org/2000/svg"><g fill="none" fill-rule="evenodd"><path d="M0 0h24v24H0z" fill="#7AA116"/><path d="m19 18.293-1.646-1.646-.708.707L18.293 19H17v1h2.5a.5.5 0 0 0 .5-.5V17h-1v1.293ZM6.646 16.647 5 18.293V17H4v2.5a.5.5 0 0 0 .5.5H7v-1H5.707l1.647-1.646-.708-.707ZM19.5 4H17v1h1.293l-1.647 1.647.708.707L19 5.707V7h1V4.5a.5.5 0 0 0-.5-.5ZM5 5.707l1.646 1.647.708-.707L5.707 5H7V4H4.5a.5.5 0 0 0-.5.5V7h1V5.707Zm10 6.41c0-.029-.024-.055-.038-.069-.039-.036-.09-.059-.108-.049L11.487 12a.5.5 0 0 1-.5-.5v-.007l-.536.005-.004.022c0 .275-.222.48-.499.48H9.25c-.147-.011-.248.031-.271.054L8.998 16H15v-3.883Zm.644-.8c.23.215.356.498.356.8V16.5a.5.5 0 0 1-.5.5h-7a.5.5 0 0 1-.5-.5V12c0-.258.105-.499.297-.677.287-.268.695-.342.987-.322h.271c.094-.25.272-.501.601-.501h1.167c.314.057.48.279.567.5h2.93c.276-.026.59.099.824.317Zm.487-.345a.5.5 0 0 1-.397-.46c-.047-.802-.468-1.087-.816-1.087a.741.741 0 0 0-.59.312.501.501 0 0 1-.871-.131 3.016 3.016 0 0 0-.705-1.148c-.368-.367-1.384-1.153-2.808-.555-.803.338-1.458 1.348-1.458 2.252 0 .104.009.208.021.308a.5.5 0 0 1-.376.546c-.564.14-1.235.526-1.235 1.572l.004.128c.021.367.182.723.454.995l-.708.707a2.55 2.55 0 0 1-.745-1.653l-.005-.177c0-1.137.586-2.014 1.59-2.413v-.013c0-1.314.891-2.678 2.073-3.174 1.377-.577 2.834-.289 3.897.767.256.253.476.548.657.881.883-.475 2.289-.118 2.575 1.454 1.263.377 1.953 1.259 1.953 2.512 0 1.125-.518 1.948-1.457 2.319l-.368-.931c.563-.221.825-.663.825-1.388 0-.323 0-1.305-1.51-1.623Z" fill="#FFF"/></g></svg>