<?xml version="1.0" encoding="UTF-8"?>
<svg width="24px" height="24px" viewBox="0 0 24 24" version="1.1" xmlns="http://www.w3.org/2000/svg" xmlns:xlink="http://www.w3.org/1999/xlink">
    <title>Icon-Architecture/16/Arch_Amazon-EFS_16</title>
    <g id="Icon-Architecture/16/Arch_Amazon-EFS_16" stroke="none" stroke-width="1" fill="none" fill-rule="evenodd">
        <g id="Icon-Architecture-BG/16/Storage" fill="#7AA116">
            <rect id="Rectangle" x="0" y="0" width="24" height="24"></rect>
        </g>
        <g id="Icon-Service/16/Amazon-EFS_16" transform="translate(4.000000, 4.000000)" fill="#FFFFFF">
            <path d="M15,14.293 L13.354,12.647 L12.646,13.354 L14.293,15 L13,15 L13,16 L15.5,16 C15.776,16 16,15.776 16,15.5 L16,13 L15,13 L15,14.293 Z M2.646,12.647 L1,14.293 L1,13 L0,13 L0,15.5 C0,15.776 0.224,16 0.5,16 L3,16 L3,15 L1.707,15 L3.354,13.354 L2.646,12.647 Z M15.5,0 L13,0 L13,1 L14.293,1 L12.646,2.647 L13.354,3.354 L15,1.707 L15,3 L16,3 L16,0.5 C16,0.224 15.776,0 15.5,0 L15.5,0 Z M1,1.707 L2.646,3.354 L3.354,2.647 L1.707,1 L3,1 L3,0 L0.5,0 C0.224,0 0,0.224 0,0.5 L0,3 L1,3 L1,1.707 Z M11,8.117 C11,8.088 10.976,8.062 10.962,8.048 C10.923,8.012 10.872,7.989 10.854,7.999 L7.487,8 C7.211,8 6.987,7.776 6.987,7.5 L6.987,7.493 L6.451,7.498 C6.449,7.506 6.448,7.513 6.447,7.52 C6.447,7.795 6.225,8 5.948,8 L5.25,8 C5.103,7.989 5.002,8.031 4.979,8.054 L4.998,12 L11,12 L11,8.117 Z M11.644,7.317 C11.874,7.532 12,7.815 12,8.117 L12,12.5 C12,12.776 11.776,13 11.5,13 L4.5,13 C4.224,13 4,12.776 4,12.5 L4,8 C4,7.742 4.105,7.501 4.297,7.323 C4.584,7.055 4.992,6.981 5.284,7.001 L5.555,7.001 C5.649,6.751 5.827,6.5 6.156,6.5 L7.323,6.5 C7.637,6.557 7.803,6.779 7.89,7 L10.82,7 C11.096,6.974 11.41,7.099 11.644,7.317 L11.644,7.317 Z M12.131,6.972 C11.91,6.926 11.747,6.737 11.734,6.512 C11.687,5.71 11.266,5.425 10.918,5.425 C10.691,5.425 10.477,5.539 10.328,5.737 C10.218,5.884 10.035,5.959 9.854,5.932 C9.671,5.904 9.519,5.779 9.457,5.606 C9.292,5.144 9.055,4.757 8.752,4.458 C8.384,4.091 7.368,3.305 5.944,3.903 C5.141,4.241 4.486,5.251 4.486,6.155 C4.486,6.259 4.495,6.363 4.507,6.463 C4.538,6.713 4.377,6.948 4.131,7.009 C3.567,7.149 2.896,7.535 2.896,8.581 C2.896,8.582 2.9,8.709 2.9,8.709 C2.921,9.076 3.082,9.432 3.354,9.704 L2.646,10.411 C2.201,9.965 1.937,9.378 1.901,8.758 L1.896,8.581 C1.896,7.444 2.482,6.567 3.486,6.168 L3.486,6.155 C3.486,4.841 4.377,3.477 5.559,2.981 C6.936,2.404 8.393,2.692 9.456,3.748 C9.712,4.001 9.932,4.296 10.113,4.629 C10.996,4.154 12.402,4.511 12.688,6.083 C13.951,6.46 14.641,7.342 14.641,8.595 C14.641,9.72 14.123,10.543 13.184,10.914 L12.816,9.983 C13.379,9.762 13.641,9.32 13.641,8.595 C13.641,8.272 13.641,7.29 12.131,6.972 L12.131,6.972 Z" id="Amazon-EFS_Icon_16_Squid"></path>
        </g>
    </g>
</svg>