<svg width="24" height="24" xmlns="http://www.w3.org/2000/svg"><path d="m14.291 9.856-1.857 1.973 2.02 2.157H13.7l-1.85-1.972v1.972h-.616v-4.13h.615v1.848l1.719-1.848h.723Zm4.704 4.201-1.958-1.52v-2.83a.495.495 0 0 0-.238-.422l-2.803-1.717V5.384l5 2.927v5.746Zm.759-6.457L13.75 4.085a.51.51 0 0 0-.506-.004.496.496 0 0 0-.253.431v3.332c0 .172.09.332.237.422l2.804 1.717v2.795c0 .152.071.296.193.39l2.962 2.302a.502.502 0 0 0 .53.056.496.496 0 0 0 .283-.446V8.028a.493.493 0 0 0-.246-.428Zm-7.22 11.359-6.53-3.289V8.31l4.983-2.939v2.185L8.247 9.27a.497.497 0 0 0-.232.42v4.567c0 .188.107.36.279.445l3.962 1.94c.141.07.309.068.45-.002l3.11-1.565 2.09 1.74-5.371 2.144Zm3.675-4.855a.51.51 0 0 0-.552-.063l-3.182 1.6L9.02 13.95V9.963l2.738-1.715a.496.496 0 0 0 .234-.42v-3.33a.502.502 0 0 0-.76-.426L5.245 7.6A.496.496 0 0 0 5 8.028v7.946c0 .187.106.358.274.442l7.008 3.53a.503.503 0 0 0 .416.018l6.358-2.536a.495.495 0 0 0 .136-.841l-2.983-2.483Z" fill="#ED7100" fill-rule="evenodd"/></svg>