<svg width="24" height="24" xmlns="http://www.w3.org/2000/svg"><path d="M11.2 11.534a.651.651 0 0 0-.322.56v6.66L6 16.03V9.37l5.789-3.337 4.823 2.379-5.413 3.122Zm6.798-3.145a.666.666 0 0 0-.357-.582L11.955 5l-.4.014-6.234 3.595A.651.651 0 0 0 5 9.168v7.069c0 .23.125.446.33.564l5.573 3.112a.652.652 0 0 0 .65.001.65.65 0 0 0 .325-.561v-7.057l5.79-3.339a.659.659 0 0 0 .33-.568Zm.002 7.39-4 2.891v-2.144l1.958-1.386.033-.208c.006-.039.01-.039.01-.217V12.28l2-1.095v4.592Zm.625-5.63a.772.772 0 0 0-.764-.02L15.47 11.43a.876.876 0 0 0-.47.777l.003 2.385-1.705 1.206a.655.655 0 0 0-.3.547v3.004c0 .232.126.448.328.564a.627.627 0 0 0 .31.083.745.745 0 0 0 .383-.112l4.654-3.364a.653.653 0 0 0 .327-.564v-5.144a.77.77 0 0 0-.375-.663Z" fill="#ED7100" fill-rule="evenodd"/></svg>