<svg width="24" height="24" xmlns="http://www.w3.org/2000/svg"><path d="M10 13h5v-2h-5v2Zm0 3h5v-2h-5v2Zm0 3h5v-2h-5v2Zm6-8.5v9a.5.5 0 0 1-.5.5h-6a.5.5 0 0 1-.5-.5v-9a.5.5 0 0 1 .5-.5h6a.5.5 0 0 1 .5.5Zm1 1.5h1V6.5a.5.5 0 0 0-.5-.5h-2a.5.5 0 0 0-.5.5V9h1V7h1v5Zm-3-3V6.5a.5.5 0 0 0-.5-.5h-2a.5.5 0 0 0-.5.5V9h1V7h1v2h1ZM9 9h1V6.5a.5.5 0 0 0-.5-.5h-2a.5.5 0 0 0-.5.5V12h1V7h1v2Zm11-4.5v10a.5.5 0 0 1-.5.5H17v-1h2V5H6v9h2v1H5.5a.5.5 0 0 1-.5-.5v-10a.5.5 0 0 1 .5-.5h14a.5.5 0 0 1 .5.5Z" fill="#C925D1" fill-rule="evenodd"/></svg>