<svg width="24" height="24" xmlns="http://www.w3.org/2000/svg"><path d="M18.885 18.111a.393.393 0 0 1-.545.029l-2.333-2.063c.19-.171.361-.358.515-.56l2.332 2.06c.158.14.172.381.03.534Zm-8.74-4.997c0-1.673 1.388-3.034 3.094-3.034 1.705 0 3.092 1.361 3.092 3.034 0 1.673-1.387 3.034-3.092 3.034-1.706 0-3.093-1.361-3.093-3.034Zm9.393 3.721-2.495-2.203c.196-.47.308-.981.308-1.518 0-2.225-1.844-4.034-4.112-4.034-2.269 0-4.113 1.809-4.113 4.034 0 2.225 1.844 4.034 4.113 4.034.694 0 1.337-.185 1.91-.484l2.509 2.219c.268.236.603.352.937.352a1.42 1.42 0 0 0 1.046-.454 1.366 1.366 0 0 0-.103-1.946ZM17.252 9h-1.02V6.5c0-.277.229-.5.51-.5h2.039c.282 0 .51.223.51.5V14h-1.02V7h-1.02v2Zm-3.058 9h1.02v1.5c0 .276-.228.5-.51.5h-2.04a.505.505 0 0 1-.509-.5V18h1.02v1h1.019v-1Zm-1.02-10h-1.019V4.5c0-.277.228-.5.51-.5h2.038c.283 0 .51.223.51.5V8h-1.02V5h-1.019v3Zm-3.058 10h1.02v1.5c0 .276-.228.5-.51.5H8.587a.505.505 0 0 1-.51-.5V16h1.02v3h1.02v-1Zm-1.02-9H8.079V6.5c0-.277.228-.5.51-.5h2.038c.282 0 .51.223.51.5V8h-1.02V7h-1.02v2ZM5.02 19h1.02v-9H5.02v9ZM6.55 9H4.51a.504.504 0 0 0-.51.5v10c0 .276.228.5.51.5h2.038c.283 0 .51-.224.51-.5v-10c0-.277-.227-.5-.51-.5Z" fill="#8C4FFF" fill-rule="evenodd"/></svg>