<svg width="48" height="48" xmlns="http://www.w3.org/2000/svg"><path d="m10.298 22.955-2 .014c.035 5.013 2.356 9.604 6.37 12.595a15.747 15.747 0 0 0 9.441 3.132c4.833 0 9.608-2.2 12.711-6.364 5.216-6.998 3.767-16.936-3.231-22.152-6.776-5.05-16.292-3.835-21.626 2.595L12 10.014l-2-.027-.067 5A.998.998 0 0 0 10.919 16l5.067.068.028-2-2.501-.033c4.663-5.605 12.966-6.659 18.881-2.252 6.113 4.558 7.38 13.24 2.823 19.354-4.559 6.114-13.238 7.38-19.354 2.823-3.506-2.613-5.535-6.625-5.565-11.005ZM24 19c-2.206 0-4 1.795-4 4 0 2.206 1.794 4 4 4s4-1.794 4-4c0-2.205-1.794-4-4-4Zm-7.054 9.78 2.229-2.228A5.968 5.968 0 0 1 18 23c0-1.378.473-2.647 1.257-3.661l-2.31-2.148 1.362-1.464 2.42 2.25a5.955 5.955 0 0 1 6.848.218l2.405-2.469 1.432 1.395-2.449 2.515A5.972 5.972 0 0 1 30 23a5.963 5.963 0 0 1-1.045 3.377l2.459 2.379-1.39 1.438-2.459-2.379a5.96 5.96 0 0 1-6.955.131l-2.249 2.248-1.415-1.414ZM35 44h4v-1h-4v1ZM9 44h4v-1H9v1ZM46 3v39a1 1 0 0 1-1 1h-4v2a1 1 0 0 1-1 1h-6a1 1 0 0 1-1-1v-2H15v2a1 1 0 0 1-1 1H8a1 1 0 0 1-1-1v-2H3a1 1 0 0 1-1-1v-9h2v8h40V4H4v7H2V3a1 1 0 0 1 1-1h42a1 1 0 0 1 1 1ZM2 27h2V17H2v10Z" fill="#7AA116" fill-rule="evenodd"/></svg>