<svg width="23" height="22" viewBox="0 0 23 22" fill="none" xmlns="http://www.w3.org/2000/svg">
<path fill-rule="evenodd" clip-rule="evenodd" d="M11.4986 0C17.685 0 20.7956 3.21904 20.7956 3.21904C20.7956 3.21904 21.1513 5.6018 20.9243 10.3995C20.5814 17.647 11.5008 21.9995 11.5 22C11.4993 22.0004 2.41874 17.647 2.07576 10.3995C1.8487 5.60187 2.20441 3.21904 2.20441 3.21904C2.20441 3.21904 5.31216 0 11.4986 0Z" fill="#ED2E26"/>
<path fill-rule="evenodd" clip-rule="evenodd" d="M6.85669 9.528C6.85669 6.96541 8.93981 4.88063 11.5003 4.88063C14.0629 4.88063 16.1477 6.90814 16.1477 9.40026C16.1477 11.3899 14.3892 13.0267 13.0337 13.8679C13.5596 14.1596 14.7201 14.466 15.8311 14.565C17.4535 13.3438 18.443 11.4563 18.443 9.40026C18.443 5.67728 15.3286 2.64844 11.5003 2.64844C7.67208 2.64844 4.55762 5.67728 4.55762 9.40026C4.55762 11.6488 5.52034 13.6462 7.3416 15.177C9.04439 16.608 11.5352 17.5631 14.3711 18.0154C14.9855 17.6851 16.0363 16.7103 16.4304 16.1397C14.0618 15.8434 11.8203 15.2817 10.3176 14.5151C8.02116 13.3436 6.85669 11.6656 6.85669 9.528Z" fill="white"/>
</svg>
