<svg xmlns="http://www.w3.org/2000/svg" width="24" height="24"><defs><style>.cls-1{fill:#aecbfa}.cls-2{fill:#669df6}.cls-3{fill:#4285f4}</style></defs><g data-name="Product Icons"><path class="cls-1" d="M9 9h6v6H9z"/><path class="cls-2" d="M11 2h2v4h-2zM7 2h2v4H7zm8 0h2v4h-2z"/><path class="cls-3" d="M11 18h2v4h-2zm-4 0h2v4H7zm8 0h2v4h-2zm3-5v-2h4v2zm0 4v-2h4v2zm0-8V7h4v2z"/><path class="cls-2" d="M2 13v-2h4v2zm0 4v-2h4v2zm0-8V7h4v2z"/><path class="cls-1" d="M5 5v14h14V5Zm12 12H7V7h10Z"/><path class="cls-2" d="M9 15h6l-3-3-3 3z"/><path class="cls-3" d="m12 12 3 3V9l-3 3z"/></g></svg>