<svg width="48" height="48" xmlns="http://www.w3.org/2000/svg"><path d="M25.909 24.955h1.908v-1.909h-1.908v1.909Zm-2.864 0h1.909v-1.909h-1.909v1.909Zm-2.863 0h1.909v-1.909h-1.909v1.909Zm17.136 6.048-6.59 5.799v-25.47l6.59 5.798v13.873ZM30.944 8.926c-.204-.087-1.088-.347-1.702-.006l-.514.285v29.724l.514.285c.229.127.495.171.751.171.428 0 .823-.122.951-.177l.148-.062 7.473-6.577c.463-.27.753-.756.753-1.285V16.849c0-.528-.289-1.014-.752-1.285l-7.474-6.576-.148-.062ZM17.273 36.803l-6.591-5.799V17.129l6.591-5.798v25.472Zm-.218-27.877-.148.062-7.475 6.577c-.461.271-.75.756-.75 1.284v14.435c0 .528.289 1.015.751 1.284l7.474 6.578.148.062c.127.055.523.177.951.177.255 0 .521-.044.75-.17l.517-.285V9.204l-.517-.285c-.612-.337-1.498-.08-1.701.007ZM44 32.284 32.284 44H15.715L4 32.284V15.716L15.715 4h16.569L44 15.716v16.568ZM33.112 2H14.887L2 14.888v18.224L14.887 46h18.225L46 33.112V14.888L33.112 2Z" fill="#E7157B" fill-rule="evenodd"/></svg>