<svg width="48" height="48" xmlns="http://www.w3.org/2000/svg"><path d="M44 38.5h2v-2h-2v2Zm2-5.5v1.5h-2V34h-.5v-2H45a1 1 0 0 1 1 1Zm-32.5 1h3v-2h-3v2Zm24 0h3v-2h-3v2Zm-18 0h3v-2h-3v2Zm-12 0h3v-2h-3v2Zm24 0h3v-2h-3v2Zm-6 0h3v-2h-3v2ZM3 32h1.5v2H4v.5H2V33a1 1 0 0 1 1-1Zm-1 6.5h2v-2H2v2ZM4 41h.5v2H3a1 1 0 0 1-1-1v-1.5h2v.5Zm15.5 2h3v-2h-3v2Zm12 0h3v-2h-3v2Zm6 0h3v-2h-3v2Zm-30 0h3v-2h-3v2Zm18 0h3v-2h-3v2Zm-12 0h3v-2h-3v2ZM44 40.5h2V42a1 1 0 0 1-1 1h-1.5v-2h.5v-.5Zm0-15h2v-2h-2v2Zm2-5.5v1.5h-2V21h-.5v-2H45a1 1 0 0 1 1 1Zm-14.5 1h3v-2h-3v2Zm-24 0h3v-2h-3v2Zm30 0h3v-2h-3v2Zm-24 0h3v-2h-3v2Zm6 0h3v-2h-3v2Zm6 0h3v-2h-3v2ZM3 19h1.5v2H4v.5H2V20a1 1 0 0 1 1-1Zm-1 6.5h2v-2H2v2ZM4 28h.5v2H3a1 1 0 0 1-1-1v-1.5h2v.5Zm15.5 2h3v-2h-3v2Zm12 0h3v-2h-3v2Zm-24 0h3v-2h-3v2Zm6 0h3v-2h-3v2Zm24 0h3v-2h-3v2Zm-12 0h3v-2h-3v2ZM44 27.5h2V29a1 1 0 0 1-1 1h-1.5v-2h.5v-.5ZM4 15h40V7H4v8ZM45 5H3a1 1 0 0 0-1 1v10a1 1 0 0 0 1 1h42a1 1 0 0 0 1-1V6a1 1 0 0 0-1-1Z" fill="#E7157B" fill-rule="evenodd"/></svg>