<svg width="48" height="48" xmlns="http://www.w3.org/2000/svg"><path d="M15 25.001h4v-2h-4v2Zm-11 2h7v-7H4v7Zm8 2H3a1 1 0 0 1-1-1v-9a1 1 0 0 1 1-1h9a1 1 0 0 1 1 1v9a1 1 0 0 1-1 1Zm31.2-2-3.2-5.11-3.2 5.11h6.4Zm2.67 1.48a1.002 1.002 0 0 1-.87.52H35a1 1 0 0 1-.851-1.53l5-8a1 1 0 0 1 1.702 0l5 8c.187.308.195.694.019 1.01ZM43 41.001a3 3 0 1 0-6 0 3 3 0 0 0 6 0Zm2 0a5 5 0 0 1-9.899 1H7a1 1 0 0 1-1-1v-10h2v9h27.101a4.998 4.998 0 0 1 5.894-3.905A4.999 4.999 0 0 1 45 41.001Zm-23-16h4v-2h-4v2Zm15-18a3 3 0 1 0 6 0 3 3 0 0 0-6 0Zm-29 9H6v-9a1 1 0 0 1 1-1h28.101a4.999 4.999 0 1 1 9.796 2 5 5 0 0 1-9.796 0H8v8Zm21 9h4v-2h-4v2Z" fill="#DD344C" fill-rule="evenodd"/></svg>