<svg width="48" height="48" xmlns="http://www.w3.org/2000/svg"><path d="m29.07 20.547-5.826 6.118a.999.999 0 0 1-1.448 0l-2.914-3.058 1.448-1.38 2.189 2.299 5.104-5.358 1.448 1.379Zm-8.464 11.547v5.755l2.737-2.24a1 1 0 0 1 1.266 0l2.737 2.24v-5.755h2v7.865a.997.997 0 0 1-1 1 1 1 0 0 1-.632-.225l-3.738-3.058-3.737 3.058a1 1 0 0 1-1.633-.775v-7.865h2Zm3.37-2.748a6.874 6.874 0 0 1-6.866-6.866 6.874 6.874 0 0 1 6.866-6.866 6.874 6.874 0 0 1 6.866 6.866 6.874 6.874 0 0 1-6.866 6.866Zm8.866-6.866c0-4.89-3.977-8.866-8.866-8.866-4.888 0-8.866 3.977-8.866 8.866 0 4.888 3.978 8.866 8.866 8.866 4.889 0 8.866-3.978 8.866-8.866ZM4 9.244h39.9V6H4v3.244Zm41.9.998V5a1 1 0 0 0-1-1H3a1 1 0 0 0-1 1v38.454a1 1 0 0 0 1 1h28.84v-2H4.002v-31.21h39.903l.046 31.21h-3.368v2h4.37a1.001 1.001 0 0 0 1-1.001l-.05-33.211Z" fill="#DD344C" fill-rule="evenodd"/></svg>