<svg width="48" height="48" xmlns="http://www.w3.org/2000/svg"><path d="M10.149 26.404a2.13 2.13 0 0 1-2.128-2.127 2.13 2.13 0 0 1 2.128-2.128 2.13 2.13 0 0 1 2.128 2.128 2.13 2.13 0 0 1-2.128 2.127Zm0-6.255a4.133 4.133 0 0 0-4.128 4.128 4.133 4.133 0 0 0 4.128 4.127 4.133 4.133 0 0 0 4.128-4.127 4.133 4.133 0 0 0-4.128-4.128Zm31.711 6.255H23.062a1 1 0 0 0-.953.698 9.223 9.223 0 0 1-8.832 6.451C8.162 33.553 4 29.392 4 24.277S8.162 15 13.277 15a9.223 9.223 0 0 1 8.832 6.451 1 1 0 0 0 .953.698h3.172a.997.997 0 0 0 .707-.293l1.974-1.973 1.974 1.973a1 1 0 0 0 .707.293h1.787c.266 0 .52-.105.707-.293l1.974-1.973 1.974 1.973a.996.996 0 0 0 .707.293h2.304l2.548 2.229-1.737 2.026Zm3.799-2.88-3.575-3.128a1.001 1.001 0 0 0-.659-.247h-2.266l-2.388-2.388a1 1 0 0 0-1.414 0l-2.388 2.388h-.959l-2.388-2.388a1 1 0 0 0-1.414 0l-2.388 2.388h-2.051C22.091 15.843 17.964 13 13.277 13 7.058 13 2 18.058 2 24.277c0 6.218 5.058 11.276 11.277 11.276 4.687 0 8.814-2.843 10.492-7.149H42.32a.999.999 0 0 0 .759-.35l2.68-3.127a.998.998 0 0 0-.1-1.403Z" fill="#DD344C" fill-rule="evenodd"/></svg>