<svg width="48" height="48" xmlns="http://www.w3.org/2000/svg"><path d="M35.985 24.031h5v-2h-5v2Zm0 9h5v-2h-5v2Zm0 9h5v-2h-5v2Zm8-3h2v5.1c0 1.047-.852 1.9-1.9 1.9H21.881a1.898 1.898 0 0 1-1.896-1.895v-5.105h2v5h22v-5Zm0-9h2v5.105c0 1.045-.85 1.895-1.895 1.895H21.881a1.898 1.898 0 0 1-1.896-1.895v-5.105h2v5h22v-5Zm2-9.552v5.516c0 1.123-.856 2.036-1.908 2.036H21.893c-1.05 0-1.908-.913-1.908-2.036v-.964h2v.964c.002.02 0 .031-.008.036h21.991l.017-5.552c0-.268-.125-.429-.177-.451l-12.22.003v-2h12.24c1.19 0 2.157 1.098 2.157 2.448Zm-25.9-6.343a1.658 1.658 0 0 1-.768-1.022 1.66 1.66 0 0 1 .18-1.266 1.66 1.66 0 0 1 1.44-.82 1.668 1.668 0 0 1 1.435 2.522 1.667 1.667 0 0 1-2.287.586Zm1.762 2.118a3.648 3.648 0 0 0 2.246-1.685c.5-.844.64-1.832.397-2.782a3.654 3.654 0 0 0-1.686-2.247 3.674 3.674 0 0 0-5.028 1.29 3.64 3.64 0 0 0-.396 2.781 3.645 3.645 0 0 0 1.685 2.246 3.645 3.645 0 0 0 2.782.397Zm-3.05 4.742a1.003 1.003 0 0 0-1.104.461L7.91 37.989l-4.06 1.042-.185-3.424 1.244-2.103a.996.996 0 0 0 .108-.758l-.716-2.794 2.794-.716c.256-.066.477-.231.612-.459l1.398-2.364c.136-.229.174-.501.11-.758l-.718-2.793 2.794-.717a.999.999 0 0 0 .612-.46l1.87-3.159a.996.996 0 0 0-.032-1.068c-2.165-3.215-1.936-7.392.57-10.396 2.28-2.731 6.19-3.769 9.515-2.525 2.44.913 4.326 2.819 5.177 5.23a8.6 8.6 0 0 1-.708 7.257c-1.927 3.257-5.835 4.892-9.498 3.972Zm11.22-2.953a10.6 10.6 0 0 0 .872-8.942c-1.048-2.97-3.367-5.317-6.362-6.437a10.52 10.52 0 0 0-11.75 3.117c-2.944 3.526-3.33 8.375-1.037 12.252l-1.347 2.277-3.36.863a1.001 1.001 0 0 0-.722 1.217l.863 3.361-.977 1.651-3.36.861a.999.999 0 0 0-.722 1.218l.862 3.361-1.187 2.007c-.1.17-.149.366-.139.563l.266 4.944a1.002 1.002 0 0 0 1.247.915l5.644-1.447a1 1 0 0 0 .612-.46l9.628-16.271c4.295.751 8.723-1.257 10.968-5.05Z" fill="#DD344C" fill-rule="evenodd"/></svg>