<svg width="48" height="48" xmlns="http://www.w3.org/2000/svg"><path d="m20.29 18.04 1.414 1.414-6.998 6.998a.997.997 0 0 1-1.414 0l-3.5-3.499 1.414-1.414 2.793 2.792 6.29-6.291Zm0-11.373 1.414 1.414-6.998 6.998a.997.997 0 0 1-1.414 0l-3.5-3.499 1.414-1.414 2.793 2.792 6.29-6.291Zm-.335 25.909-3.23 3.23 3.23 3.229-1.414 1.414-3.23-3.229-3.23 3.229-1.414-1.414 3.23-3.229-3.23-3.23 1.414-1.414 3.23 3.23 3.23-3.23 1.414 1.414Zm19.288 10.61a.806.806 0 0 1-.805.805H8.806A.806.806 0 0 1 8 43.186V4.806C8 4.361 8.36 4 8.806 4h29.632c.444 0 .805.361.805.806v38.38ZM38.438 2H8.806A2.81 2.81 0 0 0 6 4.806v38.38a2.81 2.81 0 0 0 2.806 2.805h29.632a2.808 2.808 0 0 0 2.805-2.805V4.806A2.809 2.809 0 0 0 38.438 2Z" fill="#DD344C" fill-rule="evenodd"/></svg>