<svg width="48" height="48" xmlns="http://www.w3.org/2000/svg"><path d="M44.083 32.581a72.853 72.853 0 0 0-2.082.191l-.168.018c-1.765.182-3.763.387-4.714.257-.594-.085-1.688-.56-2.848-1.063-1.966-.852-4.414-1.914-6.627-2.084-3.046-.234-8.31.34-11.703 1.931-1.962-.088-3.782-.616-5.196-1.488a46.44 46.44 0 0 1-.012-.649c0-4.136 1.938-8.015 5.32-10.65a15.176 15.176 0 0 1 7.66-2.052c6.12 0 11.553 3.617 13.672 8.942h-.813c-.814 0-1.496.576-1.663 1.34l-.412-.156c-2.03-.783-4.813-1.854-8.031-1.663-4.705.276-7.02.56-8.843 1.08l.549 1.924c1.668-.477 3.868-.74 8.41-1.008 2.785-.158 5.338.818 7.195 1.533.395.153.752.286 1.09.407v.205c0 .939.766 1.704 1.705 1.704h3.647c.937 0 1.7-.762 1.704-1.698l.354-.032a175.57 175.57 0 0 0 1.595-.151l.21-.021v3.183ZM9.799 34.249c-2.65.363-4.742.039-5.608-.496.525-.371 1.71-.89 2.544-1.254a43.482 43.482 0 0 0 2.16-1.004c1.154.879 2.583 1.538 4.165 1.931-.915.368-2.048.658-3.261.823ZM36.868 29.3h3.055v-1.366h-3.055V29.3ZM26.586 13c8.368 0 15.396 6.295 16.43 14.492-.287.028-.591.057-.912.086l-.185.016a1.704 1.704 0 0 0-1.7-1.66h-.711c-2.201-6.477-8.576-10.942-15.795-10.942-2.674 0-5.29.612-7.641 1.775.017-.014.03-.029.046-.042A16.59 16.59 0 0 1 26.586 13Zm18.94 14.794a1.625 1.625 0 0 0-.497-.298C43.983 18.185 36.049 11 26.586 11a18.595 18.595 0 0 0-11.732 4.175 18.504 18.504 0 0 0-6.85 14.406c0 .041.004.082.004.123-.667.335-1.372.655-2.073.962-2.136.934-3.68 1.608-3.91 2.826-.057.309-.067.914.52 1.502 1.038 1.037 3.028 1.409 5.05 1.409.842 0 1.688-.064 2.474-.172 1.339-.182 3.839-.673 5.536-1.915 2.678-1.941 8.733-2.667 11.886-2.422 1.879.145 4.155 1.132 5.985 1.925 1.396.607 2.5 1.085 3.366 1.208 1.19.163 3.136-.037 5.195-.248l.173-.017a62.627 62.627 0 0 1 1.592-.151c.215-.021.428-.036.712-.056.88-.062 1.569-.8 1.569-1.68v-3.829c0-.478-.202-.934-.556-1.252Z" fill="#DD344C" fill-rule="evenodd"/></svg>