<svg width="48" height="48" xmlns="http://www.w3.org/2000/svg"><path d="M22.001 23.757c5.407 0 9.807-4.432 9.807-9.878 0-5.447-4.4-9.88-9.807-9.88-5.408 0-9.809 4.433-9.809 9.88 0 5.446 4.401 9.878 9.809 9.878ZM4.025 44H28v2H3a1 1 0 0 1-1-1c0-9.8 6.545-18.02 15.318-20.222a11.894 11.894 0 0 1-7.126-10.9C10.192 7.329 15.489 2 22.001 2c6.51 0 11.807 5.329 11.807 11.879 0 4.874-2.937 9.069-7.121 10.897.913.229 1.816.503 2.695.867.178.073.352.148.526.226l-.82 1.825A17.232 17.232 0 0 0 22 26.178c-9.604 0-17.476 7.907-17.975 17.822ZM44 36.5c0-4.136-3.364-7.5-7.5-7.5S29 32.364 29 36.5s3.364 7.5 7.5 7.5 7.5-3.364 7.5-7.5Zm2 0c0 5.238-4.262 9.5-9.5 9.5S27 41.738 27 36.5s4.262-9.5 9.5-9.5 9.5 4.262 9.5 9.5Zm-5.707-3.624 1.414 1.414-6 6a.993.993 0 0 1-.707.293.993.993 0 0 1-.707-.293l-3-3 1.414-1.414L35 38.169l5.293-5.293Z" fill="#DD344C" fill-rule="evenodd"/></svg>