<svg width="48" height="48" xmlns="http://www.w3.org/2000/svg"><path d="M45.92 23.081h-8.008l3.822-3.823-1.414-1.414-5.589 5.591a.999.999 0 0 0 0 1.414l5.589 5.59 1.414-1.415-3.943-3.943h8.129v-2ZM7.597 17.844l-1.414 1.414 3.823 3.823H2v2h8.126l-3.943 3.943 1.414 1.414 5.59-5.589a1 1 0 0 0 0-1.414l-5.59-5.59ZM18.81 29.231h10.298V18.932H18.81v10.3Zm12.082-11.42h1.851v2h-1.635v1.513h1.635v2h-1.635v1.514h1.635v2h-1.635v1.514h1.635v2h-1.851a1.699 1.699 0 0 1-.662.662v1.851h-2V31.23h-1.513v1.635h-2V31.23h-1.514v1.635h-2V31.23H19.69v1.635h-2v-1.85a1.699 1.699 0 0 1-.662-.663h-1.852v-2h1.635v-1.514h-1.635v-2h1.635v-1.514h-1.635v-2h1.635V19.81h-1.635v-2h1.852c.155-.279.383-.507.662-.662v-1.85h2v1.634h1.513v-1.634h2v1.634h1.514v-1.634h2v1.634h1.513v-1.634h2v1.85c.279.155.507.383.662.662Zm-5.931 24.936v-8.125h-2v8.13l-3.886-3.886-1.414 1.414 5.59 5.59a.997.997 0 0 0 1.414 0l5.591-5.59-1.414-1.414-3.881 3.881Zm-5.886-33.45-1.414-1.414 5.59-5.59a.999.999 0 0 1 1.414 0l5.591 5.59-1.414 1.414-3.881-3.88v8.124h-2V5.412l-3.886 3.885Z" fill="#ED7100" fill-rule="evenodd"/></svg>