<svg width="48" height="48" xmlns="http://www.w3.org/2000/svg"><path d="M4.131 22.96h5.855v2H4.131A2.133 2.133 0 0 1 2 22.829V4.131C2 2.956 2.956 2 4.131 2h18.698c1.175 0 2.131.956 2.131 2.131v6.729h-2V4.131A.13.13 0 0 0 22.829 4H4.131A.131.131 0 0 0 4 4.131v18.698c0 .072.059.131.131.131Zm9.606 10.48h7.542v2h-7.542a2.133 2.133 0 0 1-2.13-2.13v-18.7c0-1.174.956-2.13 2.13-2.13h18.699c1.174 0 2.131.956 2.131 2.13v6.73h-2v-6.73a.13.13 0 0 0-.131-.13H13.737a.13.13 0 0 0-.13.13v18.7c0 .072.058.13.13.13ZM43.85 43.92l-18.89-.07V25.091c0-.072.059-.131.131-.131h18.698c.072 0 .131.059.131.131l-.07 18.829Zm-.061-20.96H25.091a2.133 2.133 0 0 0-2.131 2.131V43.85c0 1.141.929 2.07 2.07 2.07h18.82c1.141 0 2.07-.929 2.07-2.07V25.091a2.133 2.133 0 0 0-2.131-2.131Z" fill="#ED7100" fill-rule="evenodd"/></svg>