<svg width="48" height="48" xmlns="http://www.w3.org/2000/svg"><path d="M24 44C12.972 44 4 35.028 4 24S12.972 4 24 4s20 8.972 20 20-8.972 20-20 20Zm0-42C11.869 2 2 11.869 2 24s9.869 22 22 22 22-9.869 22-22S36.131 2 24 2Zm-6.769 33.25h-5.355l6.345-13.291 2.681 5.533-3.671 7.758Zm1.883-16.035a1.001 1.001 0 0 0-.9-.564h-.003a.998.998 0 0 0-.899.57L9.389 35.819a.998.998 0 0 0 .902 1.431h7.573c.387 0 .739-.223.905-.572l4.146-8.763a1.002 1.002 0 0 0-.004-.864l-3.797-7.836ZM36.125 35.25h-5.452l-9.912-21.297a1.001 1.001 0 0 0-.907-.578h-3.603l.004-4.125h7.22l9.864 21.295a1 1 0 0 0 .907.58h1.879v4.125Zm1-6.125h-2.24L25.021 7.83a1.003 1.003 0 0 0-.908-.58h-8.857a1 1 0 0 0-1 .999l-.006 6.125a1 1 0 0 0 1 1.001h3.967l9.912 21.297a1 1 0 0 0 .906.578h7.09a1 1 0 0 0 1-1v-6.125a1 1 0 0 0-1-1Z" fill="#ED7100" fill-rule="evenodd"/></svg>