<svg width="48" height="48" xmlns="http://www.w3.org/2000/svg"><path d="M6 35h24v-2H6v2Zm-4-7.073h15v-2H2v2ZM22 31v-3.073h-2.916v-2H22V23h2v2.927h3v2h-3V31h-2Zm12.4 8.656 2.559-9.675a1.003 1.003 0 0 0-.967-1.256h-4.384L35.641 20h6.37l-4.007 6.474a1.003 1.003 0 0 0-.024 1.013c.177.317.512.513.874.513h3.988L34.4 39.656Zm11.291-13.111a.999.999 0 0 0-.89-.545h-4.152l4.007-6.473a1 1 0 0 0-.85-1.527h-8.805c-.39 0-.744.227-.908.58l-4.956 10.725c-.143.31-.118.671.065.959.185.287.502.461.843.461h4.648l-3.598 13.61a1 1 0 0 0 1.776.843L45.61 27.587a1 1 0 0 0 .081-1.042ZM28.448 40.084l.301 1.977c-1.511.23-3.088.347-4.686.347-7.21 0-14.51-2.038-14.51-5.933h2c0 1.642 4.76 3.933 12.51 3.933a29.23 29.23 0 0 0 4.385-.324ZM11.033 9.754C11.033 7.84 16.464 5 23.966 5 31.763 5 37 7.572 37 9.976c0 1.662-5.064 4.077-13 4.077-7.841 0-12.879-2.358-12.998-4.018l.031-.281ZM11 13.123c2.768 1.919 7.991 2.93 13 2.93s10.232-1.011 13-2.93V16h2v-6h-.003c0-.008.003-.015.003-.024C39 5.934 32.677 3 23.966 3 15.933 3 9.136 6.047 9.034 9.672L9 9.976c0 .009.003.016.003.024H9v14h2V13.123Z" fill="#C925D1" fill-rule="evenodd"/></svg>