<svg xmlns="http://www.w3.org/2000/svg" width="18" height="18"><defs><linearGradient id="a" x1="9" y1="1.796" x2="9" y2="6.371" gradientUnits="userSpaceOnUse"><stop offset="0" stop-color="#9cebff"/><stop offset="1" stop-color="#50e6ff"/></linearGradient><linearGradient id="b" x1="3.374" y1="12.14" x2="3.374" y2="18.457" gradientUnits="userSpaceOnUse"><stop offset=".001" stop-color="#b4ec36"/><stop offset="1" stop-color="#86d633"/></linearGradient><linearGradient id="c" x1="14.626" y1="12.14" x2="14.626" y2="18.457" gradientTransform="rotate(-90 14.627 14.646)" gradientUnits="userSpaceOnUse"><stop offset=".001" stop-color="#b4ec36"/><stop offset="1" stop-color="#86d633"/></linearGradient></defs><path d="M13.851 9.047h-2.912a1.518 1.518 0 0 1-1.518-1.518V4.33h-.842v3.2a1.518 1.518 0 0 1-1.518 1.517H4.149a1.2 1.2 0 0 0-1.2 1.2v2.338h.841v-2.341a.355.355 0 0 1 .356-.355h2.915A2.353 2.353 0 0 0 8.8 9.125a.278.278 0 0 1 .408 0 2.353 2.353 0 0 0 1.735.764h2.912a.354.354 0 0 1 .355.355v2.338h.841v-2.338a1.2 1.2 0 0 0-1.2-1.197Z" fill="#0078d4"/><rect x="5.626" y="-.02" width="6.747" height="6.747" rx=".604" fill="url(#a)"/><rect y="11.273" width="6.747" height="6.747" rx=".604" fill="url(#b)"/><rect x="11.253" y="11.273" width="6.747" height="6.747" rx=".604" transform="rotate(90 14.627 14.647)" fill="url(#c)"/></svg>