<svg width="119" height="119" viewBox="0 0 119 119" fill="none" xmlns="http://www.w3.org/2000/svg">
<ellipse cx="57.5" cy="73" rx="52.5" ry="46" fill="#F2F3F5"/>
<path d="M22.1562 55.9385H92.5623V110.085C92.5623 110.195 92.5185 110.301 92.4405 110.379C92.3625 110.457 92.2567 110.501 92.1465 110.501H22.5721C22.4618 110.501 22.356 110.457 22.278 110.379C22.2001 110.301 22.1562 110.195 22.1562 110.085V55.9385Z" fill="#93979D"/>
<path d="M74.8997 34.7195H42.1624L22.1562 55.9381H92.5623L74.8997 34.7195Z" fill="#696B70"/>
<path d="M28.8249 26.2322L42.1623 34.7197L22.1562 55.9383L7 44.4196L28.8249 26.2322Z" fill="#93979D"/>
<path d="M88.2359 26.2322L74.8984 34.7197L92.561 55.9383L110.061 44.4196L88.2359 26.2322Z" fill="#93979D"/>
<path d="M50.7627 26.6662C51.1391 26.4877 51.4319 26.1707 51.58 25.7814C51.7281 25.3921 51.72 24.9606 51.5574 24.5771L45.5574 10.4292C45.4725 10.2288 45.3478 10.0477 45.1911 9.89666C45.0343 9.74566 44.8486 9.62793 44.6451 9.55054C44.4417 9.47315 44.2247 9.43771 44.0072 9.44634C43.7897 9.45497 43.5762 9.50749 43.3795 9.60075L42.2235 10.1489C42.0269 10.2421 41.8511 10.3742 41.7067 10.5371C41.5624 10.7001 41.4525 10.8905 41.3837 11.097C41.3148 11.3035 41.2884 11.5218 41.3061 11.7387C41.3238 11.9557 41.3851 12.1668 41.4865 12.3594L48.6423 25.9591C48.8363 26.3278 49.1652 26.6072 49.5604 26.7389C49.9555 26.8707 50.3863 26.8446 50.7627 26.6662Z" fill="#808287"/>
<path d="M58.2825 25.2948C58.5549 25.2754 58.8092 25.1515 58.9924 24.949C59.1756 24.7464 59.2735 24.481 59.2655 24.208L58.9691 14.1359C58.9649 13.9933 58.9319 13.8529 58.8721 13.7233C58.8123 13.5937 58.7269 13.4776 58.621 13.3819C58.5151 13.2861 58.391 13.2128 58.2561 13.1663C58.1211 13.1197 57.9782 13.1009 57.8358 13.1111L56.999 13.1707C56.8567 13.1808 56.7179 13.2196 56.5909 13.2848C56.464 13.3499 56.3515 13.44 56.2603 13.5497C56.1691 13.6594 56.1009 13.7864 56.06 13.9231C56.0191 14.0598 56.0063 14.2034 56.0223 14.3452L57.1555 24.3577C57.1861 24.6291 57.3205 24.8782 57.5306 25.0528C57.7406 25.2275 58.01 25.3142 58.2825 25.2948Z" fill="#808287"/>
<path d="M64.0926 29.0179C64.8419 29.4511 65.8937 29.0536 66.4771 28.1166L76.836 11.4801C77.4548 10.4863 77.3082 9.27498 76.5135 8.81552L75.4058 8.17519C74.6111 7.71565 73.4881 8.19282 72.9355 9.22492L63.6842 26.5016C63.1632 27.4747 63.3434 28.5846 64.0926 29.0179Z" fill="#808287"/>
</svg>
