<svg width="48" height="49" viewBox="0 0 48 49" fill="none" xmlns="http://www.w3.org/2000/svg">
<path fill-rule="evenodd" clip-rule="evenodd" d="M19.581 36.5C28.528 36.5 35.781 29.1127 35.781 20C35.781 10.8873 28.528 3.5 19.581 3.5C10.634 3.5 3.381 10.8873 3.381 20C3.381 29.1127 10.634 36.5 19.581 36.5ZM38.7265 20C38.7265 30.7696 30.1547 39.5 19.581 39.5C9.00726 39.5 0.435547 30.7696 0.435547 20C0.435547 9.23045 9.00726 0.5 19.581 0.5C30.1547 0.5 38.7265 9.23045 38.7265 20Z" fill="#9BA4AB"/>
<path d="M30.903 35.7265C30.9899 35.8465 31.0866 35.9613 31.1933 36.0699L42.5346 47.6213C43.6849 48.7929 45.5499 48.7929 46.7001 47.6213C47.8504 46.4498 47.8504 44.5503 46.7001 43.3787L35.3588 31.8273C35.2521 31.7187 35.1393 31.6201 35.0216 31.5317C33.8661 33.1339 32.4761 34.5497 30.903 35.7265Z" fill="#9BA4AB"/>
</svg>
