<svg width="120" height="120" viewBox="0 0 120 120" fill="none" xmlns="http://www.w3.org/2000/svg">
<path d="M36.2386 31.6654C36.2386 31.6654 49.106 41.43 68.6677 23.172C86.0402 6.95757 100.225 32.5404 100.325 44.7915C100.453 60.6615 82.9519 73.36 91.4453 83.7837C99.9386 94.2073 74.6018 111.42 60.9465 96.5236C43.9598 77.9927 39.3579 93.0491 29.6756 93.0491C22.7265 93.0491 8.45925 75.7824 18.0937 62.9364C26.2011 52.1266 21.7795 48.5391 19.6383 44.7915C16.5495 39.3867 23.8847 24.7164 36.2386 31.6654Z" fill="#F2F3F5"/>
<path d="M87.8972 53.2436C88.5887 53.5006 89.3447 53.5177 90.0638 53.3526C93.0767 52.661 103.436 50.83 101.636 58.8578C101.244 60.4506 95.1767 69.3705 103.818 72.6266C104.451 72.8682 105.12 73.0001 105.798 73.0166C108.458 73.0714 113.73 72.4433 115.937 70.1972C118.602 67.484 115.69 68.7707 115.69 68.7707C115.69 68.7707 105.557 73.1927 101.978 68.5012C101.579 67.9792 101.326 67.2211 101.253 66.5684C101.127 65.4368 101.63 63.9414 102.29 62.6396C103.183 60.8778 107.472 52.9523 98.16 50.6435C96.0149 50.1327 92.8992 49.6738 88.8819 51.3652C86.5386 52.3517 87.0576 52.9316 87.8972 53.2436Z" fill="#CDD2D5"/>
<path d="M89.9708 50.2849L87.2737 51.2944C86.3426 51.6428 85.8704 52.68 86.2188 53.6111L86.3525 53.9683C86.701 54.8993 87.7382 55.3716 88.6692 55.0232L91.3664 54.0137C92.2974 53.6653 92.7697 52.6281 92.4212 51.697L92.2875 51.3398C91.9391 50.4088 90.9018 49.9365 89.9708 50.2849Z" fill="#808287"/>
<path d="M73.4156 53.2058L64.5206 56.5349C64.0551 56.7091 63.819 57.2277 63.9932 57.6932L64.0282 57.7869C64.2025 58.2524 64.7211 58.4885 65.1866 58.3143L74.0815 54.9853C74.5471 54.811 74.7832 54.2924 74.609 53.8269L74.5739 53.7333C74.3997 53.2678 73.8811 53.0316 73.4156 53.2058Z" fill="#808287"/>
<path d="M75.898 59.8386L67.0031 63.1677C66.5375 63.3419 66.3014 63.8605 66.4756 64.3261L66.5107 64.4197C66.6849 64.8852 67.2035 65.1213 67.669 64.9471L76.564 61.6181C77.0295 61.4438 77.2657 60.9252 77.0914 60.4597L77.0564 60.3661C76.8822 59.9005 76.3636 59.6644 75.898 59.8386Z" fill="#808287"/>
<path d="M84.1098 48.6793L76.9006 51.3774C75.9696 51.7258 75.4973 52.7631 75.8458 53.6941L78.3071 60.2706C78.6556 61.2016 79.6928 61.6739 80.6239 61.3254L87.833 58.6273C88.7641 58.2789 89.2364 57.2416 88.8879 56.3106L86.4266 49.7341C86.0781 48.8031 85.0409 48.3308 84.1098 48.6793Z" fill="#9BA4AB"/>
<path d="M77.645 50.4046L70.4358 53.1027C69.5048 53.4512 69.0325 54.4884 69.3809 55.4194L72.3174 63.2654C72.6659 64.1965 73.7031 64.6688 74.6341 64.3203L81.8433 61.6222C82.7743 61.2737 83.2466 60.2365 82.8982 59.3055L79.9617 51.4595C79.6132 50.5284 78.576 50.0561 77.645 50.4046Z" fill="#9BA4AB"/>
<path d="M78.7741 48.8121L78.7176 48.8333C78.0969 49.0656 77.7821 49.7571 78.0144 50.3778L82.128 61.3692C82.3604 61.9899 83.0518 62.3047 83.6725 62.0724L83.7291 62.0513C84.3498 61.819 84.6646 61.1275 84.4323 60.5068L80.3186 49.5154C80.0863 48.8947 79.3948 48.5798 78.7741 48.8121Z" fill="#808287"/>
<path d="M5.26369 55.8396C5.26369 55.8396 19.7422 51.7708 17.6401 61.145C17.2751 62.6283 12.0204 70.2656 18.2796 73.9325C19.6236 74.7199 21.1746 75.0687 22.7321 75.0605C25.5247 75.046 29.9518 74.5085 31.9406 72.4842C34.606 69.7708 31.6941 71.0575 31.6941 71.0575C31.6941 71.0575 23.3789 74.478 19.101 71.7515C17.6403 70.8205 16.9782 69.018 17.3749 67.3318C17.5776 66.4942 17.8863 65.686 18.2936 64.9265C19.224 63.184 23.4759 55.2392 14.1639 52.9304C12.0188 52.4196 8.90317 51.9607 4.88587 53.6521C0.868575 55.3435 5.26369 55.8396 5.26369 55.8396Z" fill="#CDD2D5"/>
<path d="M33.8868 68.96L31.1897 69.9694C30.2587 70.3179 29.7864 71.3551 30.1348 72.2861L30.2685 72.6434C30.617 73.5744 31.6542 74.0467 32.5853 73.6982L35.2824 72.6888C36.2134 72.3404 36.6857 71.3031 36.3372 70.3721L36.2035 70.0148C35.8551 69.0838 34.8179 68.6115 33.8868 68.96Z" fill="#808287"/>
<path d="M38.4448 64.5225L34.4475 66.0185C33.5165 66.3669 33.0442 67.4042 33.3927 68.3352L35.3201 73.4852C35.6686 74.4163 36.7058 74.8886 37.6368 74.5401L41.6341 73.0441C42.5651 72.6956 43.0374 71.6584 42.689 70.7273L40.7615 65.5773C40.413 64.6463 39.3758 64.174 38.4448 64.5225Z" fill="#9BA4AB"/>
<path d="M45.098 60.5573L39.137 62.7883C38.2059 63.1367 37.7336 64.1739 38.0821 65.105L41.0186 72.951C41.367 73.882 42.4043 74.3543 43.3353 74.0059L49.2963 71.7749C50.2274 71.4264 50.6997 70.3892 50.3512 69.4581L47.4147 61.6121C47.0663 60.6811 46.029 60.2088 45.098 60.5573Z" fill="#9BA4AB"/>
<path d="M46.362 58.9325L46.3055 58.9536C45.6848 59.1859 45.37 59.8774 45.6023 60.4981L49.7159 71.4895C49.9482 72.1102 50.6397 72.4251 51.2604 72.1928L51.317 72.1716C51.9377 71.9393 52.2525 71.2478 52.0202 70.6271L47.9065 59.6357C47.6742 59.015 46.9827 58.7002 46.362 58.9325Z" fill="#808287"/>
<path d="M61.5818 51.9301C61.3672 51.9062 61.1701 51.8001 61.0322 51.6339C60.8942 51.4677 60.8261 51.2545 60.8422 51.0391L61.2869 42.9151C61.3135 42.4298 61.7233 42.0611 62.1883 42.104L62.8363 42.164C63.3014 42.2069 63.6343 42.644 63.5693 43.1258L62.4763 51.1898C62.4512 51.4047 62.3442 51.6015 62.1776 51.7394C62.0109 51.8773 61.7976 51.9456 61.5818 51.9301V51.9301Z" fill="#808287"/>
<path d="M57.7422 52.6304C57.6754 52.6501 57.6054 52.6563 57.5362 52.6489C57.4671 52.6415 57.4 52.6205 57.3389 52.5871C57.2778 52.5538 57.2239 52.5087 57.1803 52.4546C57.1366 52.4004 57.104 52.3381 57.0844 52.2713L55.4961 47.2178C55.4499 47.0741 55.4626 46.9179 55.5314 46.7835C55.6002 46.6492 55.7195 46.5476 55.8632 46.5011L56.2744 46.377C56.345 46.3564 56.419 46.3507 56.4919 46.3601C56.5648 46.3696 56.6349 46.3941 56.6979 46.432C56.7608 46.47 56.8152 46.5206 56.8577 46.5806C56.9001 46.6406 56.9296 46.7088 56.9443 46.7808L58.1215 51.9585C58.1543 52.0977 58.1335 52.2441 58.0632 52.3686C57.9929 52.4931 57.8783 52.5866 57.7422 52.6304V52.6304Z" fill="#808287"/>
<path d="M55.5987 55.5448C55.3142 55.8974 54.7418 55.8932 54.3012 55.5352L46.479 49.1799C46.0118 48.8003 45.8739 48.1719 46.1759 47.7981L46.5966 47.2768C46.8986 46.9029 47.5187 46.9335 47.9608 47.3443L55.3622 54.2209C55.779 54.6082 55.8833 55.1921 55.5987 55.5448Z" fill="#808287"/>
<path d="M59.2148 71.9598C59.4163 72.0377 59.5797 72.1906 59.6706 72.3865C59.7616 72.5825 59.773 72.806 59.7024 73.0102L57.1976 80.7509C57.048 81.2133 56.5577 81.4649 56.1189 81.3049L55.5075 81.0815C55.0688 80.9213 54.8583 80.4134 55.0445 79.9644L58.1607 72.447C58.2398 72.2456 58.3935 72.0825 58.5899 71.9918C58.7863 71.901 59.0102 71.8895 59.2148 71.9598V71.9598Z" fill="#808287"/>
<path d="M63.1062 72.2634C63.1758 72.2615 63.245 72.2733 63.31 72.2981C63.375 72.323 63.4345 72.3604 63.4851 72.4082C63.5356 72.4561 63.5762 72.5134 63.6046 72.5769C63.633 72.6405 63.6486 72.709 63.6505 72.7785L63.8955 78.0702C63.9035 78.221 63.8513 78.3687 63.7505 78.481C63.6496 78.5934 63.5083 78.6611 63.3576 78.6694L62.9282 78.6844C62.8547 78.6862 62.7817 78.6729 62.7136 78.6451C62.6456 78.6173 62.584 78.5757 62.5328 78.523C62.4817 78.4702 62.442 78.4074 62.4163 78.3385C62.3906 78.2697 62.3795 78.1962 62.3837 78.1228L62.568 72.8162C62.5719 72.6733 62.6294 72.5371 62.7291 72.4346C62.8288 72.3322 62.9634 72.2711 63.1062 72.2634V72.2634Z" fill="#808287"/>
<path d="M65.9225 69.9932C66.2878 69.7249 66.84 69.8752 67.1746 70.3338L73.1143 78.4758C73.4691 78.9622 73.442 79.6047 73.0543 79.8892L72.5143 80.2857C72.127 80.5702 71.5352 80.3822 71.2127 79.8721L65.8127 71.3332C65.5091 70.8526 65.5573 70.2614 65.9225 69.9932Z" fill="#808287"/>
</svg>
