<svg width="101" height="100" viewBox="0 0 101 100" fill="none" xmlns="http://www.w3.org/2000/svg">
<circle cx="50.5" cy="50" r="45" fill="#E9ECEF" stroke="#F5F7F9" stroke-width="10"/>
<path d="M60.4003 31.667H40.6003C39.5736 31.667 39.0602 31.667 38.668 31.8668C38.323 32.0426 38.0426 32.323 37.8668 32.668C37.667 33.0602 37.667 33.5736 37.667 34.6003V38.4036C37.667 39.3004 37.667 39.7489 37.7683 40.1708C37.8581 40.545 38.0063 40.9026 38.2073 41.2307C38.4341 41.6007 38.7511 41.9178 39.3853 42.552L44.7595 47.9261C45.4855 48.6522 45.8485 49.0152 45.9845 49.4338C46.1042 49.802 46.1042 50.1986 45.9845 50.5669C45.8485 50.9855 45.4855 51.3485 44.7595 52.0745L39.3853 57.4487C38.7511 58.0828 38.4341 58.3999 38.2073 58.7699C38.0063 59.098 37.8581 59.4557 37.7683 59.8298C37.667 60.2518 37.667 60.7002 37.667 61.597V65.4003C37.667 66.4271 37.667 66.9405 37.8668 67.3326C38.0426 67.6776 38.323 67.9581 38.668 68.1338C39.0602 68.3337 39.5736 68.3337 40.6003 68.3337H60.4003C61.4271 68.3337 61.9405 68.3337 62.3326 68.1338C62.6776 67.9581 62.9581 67.6776 63.1338 67.3326C63.3337 66.9405 63.3337 66.4271 63.3337 65.4003V61.597C63.3337 60.7002 63.3337 60.2518 63.2323 59.8298C63.1425 59.4557 62.9944 59.098 62.7933 58.7699C62.5666 58.3999 62.2495 58.0828 61.6153 57.4487L56.2412 52.0745C55.5151 51.3485 55.1521 50.9855 55.0161 50.5669C54.8965 50.1986 54.8965 49.802 55.0161 49.4338C55.1521 49.0152 55.5151 48.6522 56.2412 47.9261L61.6154 42.552C62.2495 41.9178 62.5666 41.6007 62.7933 41.2307C62.9944 40.9026 63.1425 40.545 63.2323 40.1708C63.3337 39.7489 63.3337 39.3004 63.3337 38.4036V34.6003C63.3337 33.5736 63.3337 33.0602 63.1338 32.668C62.9581 32.323 62.6776 32.0426 62.3326 31.8668C61.9405 31.667 61.4271 31.667 60.4003 31.667Z" fill="white"/>
<path d="M45.0003 61.917H56.0003M40.6003 31.667H60.4003C61.4271 31.667 61.9405 31.667 62.3326 31.8668C62.6776 32.0426 62.9581 32.323 63.1338 32.668C63.3337 33.0602 63.3337 33.5736 63.3337 34.6003V38.4036C63.3337 39.3004 63.3337 39.7489 63.2323 40.1708C63.1425 40.545 62.9944 40.9026 62.7933 41.2307C62.5666 41.6007 62.2495 41.9178 61.6154 42.552L56.2412 47.9261C55.5151 48.6522 55.1521 49.0152 55.0161 49.4338C54.8965 49.802 54.8965 50.1986 55.0161 50.5669C55.1521 50.9855 55.5151 51.3485 56.2412 52.0745L61.6153 57.4487C62.2495 58.0828 62.5666 58.3999 62.7933 58.7699C62.9944 59.098 63.1425 59.4557 63.2323 59.8298C63.3337 60.2518 63.3337 60.7002 63.3337 61.597V65.4003C63.3337 66.4271 63.3337 66.9405 63.1338 67.3326C62.9581 67.6776 62.6776 67.9581 62.3326 68.1338C61.9405 68.3337 61.4271 68.3337 60.4003 68.3337H40.6003C39.5736 68.3337 39.0602 68.3337 38.668 68.1338C38.323 67.9581 38.0426 67.6776 37.8668 67.3326C37.667 66.9405 37.667 66.4271 37.667 65.4003V61.597C37.667 60.7002 37.667 60.2518 37.7683 59.8298C37.8581 59.4557 38.0063 59.098 38.2073 58.7699C38.4341 58.3999 38.7511 58.0828 39.3853 57.4487L44.7595 52.0745C45.4855 51.3485 45.8485 50.9855 45.9845 50.5669C46.1042 50.1986 46.1042 49.802 45.9845 49.4338C45.8485 49.0152 45.4855 48.6522 44.7595 47.9261L39.3853 42.552C38.7511 41.9178 38.4341 41.6007 38.2073 41.2307C38.0063 40.9026 37.8581 40.545 37.7683 40.1708C37.667 39.7489 37.667 39.3004 37.667 38.4036V34.6003C37.667 33.5736 37.667 33.0602 37.8668 32.668C38.0426 32.323 38.323 32.0426 38.668 31.8668C39.0602 31.667 39.5736 31.667 40.6003 31.667Z" stroke="#CFD6DD" stroke-width="2" stroke-linecap="round" stroke-linejoin="round"/>
</svg>
