<svg width="130" height="28" viewBox="0 0 130 28" fill="none" xmlns="http://www.w3.org/2000/svg">
<rect width="130" height="28" fill="white"/>
<path d="M42.8819 11.8969V15.9716H39.4213V3.03843H45.0968C48.3347 3.03843 50.035 4.84804 50.035 7.51048C50.035 10.1148 48.3347 11.8969 45.1419 11.8969H42.8819ZM42.8819 6.1869V8.82184H45.0637C45.9183 8.82184 46.5472 8.35109 46.5472 7.51048C46.5472 6.66987 45.9183 6.1869 45.0637 6.1869H42.8819Z" fill="#041C2C"/>
<path d="M64.4132 15.9716H60.7479L59.9023 13.5048H55.1477L54.3081 15.9716H50.697L55.5118 3.03843H59.5833L64.4132 15.9716ZM56.219 10.3716H58.831L57.528 6.5476L56.219 10.3716Z" fill="#041C2C"/>
<path d="M76.7812 15.9716H67.1937V3.03843H70.6514V12.7376H76.7812V15.9716Z" fill="#041C2C"/>
<path d="M92.64 15.9716H88.9748L88.1292 13.5048H83.3715L82.5349 15.9716H78.9238L83.7387 3.03843H87.8132L92.64 15.9716ZM84.4458 10.3716H87.0549L85.7639 6.5476L84.4458 10.3716Z" fill="#041C2C"/>
<path d="M107.644 9.50655C107.644 13.4039 105.023 15.9716 101.042 15.9716H95.4206V3.03843H101.042C105.023 3.03843 107.644 5.60611 107.644 9.50655ZM98.8752 6.26332V12.7467H100.949C103.055 12.7467 104.051 11.3712 104.051 9.50655C104.051 7.64192 103.04 6.26332 100.949 6.26332H98.8752Z" fill="#041C2C"/>
<path d="M114.289 15.9716H110.834V3.03843H114.289V15.9716Z" fill="#041C2C"/>
<path d="M130 15.9716H126.636L121.387 8.69956V15.9716H117.93V3.03843H121.297L126.542 10.3074V3.03843H130V15.9716Z" fill="#041C2C"/>
<path d="M44.3986 21.862L43.3604 22.507C43.193 22.2406 42.9607 22.0227 42.6861 21.8743C42.4114 21.726 42.1036 21.6522 41.7926 21.6603C41.2804 21.6805 40.7958 21.9015 40.4405 22.2768C40.0852 22.652 39.8867 23.1525 39.8867 23.6731C39.8867 24.1938 40.0852 24.6943 40.4405 25.0695C40.7958 25.4448 41.2804 25.6657 41.7926 25.686C42.1045 25.6915 42.4127 25.6171 42.6889 25.4697C42.965 25.3222 43.2001 25.1065 43.3725 24.8424L44.3595 25.5638C44.073 25.9794 43.6892 26.3161 43.2427 26.5434C42.7961 26.7707 42.3009 26.8816 41.8016 26.8659C39.9359 26.8659 38.6208 25.524 38.6208 23.6747C38.6208 21.8253 39.9359 20.4803 41.8016 20.4803C42.3156 20.46 42.8259 20.5769 43.2815 20.8193C43.7372 21.0618 44.1224 21.4213 44.3986 21.862Z" fill="#041C2C"/>
<path d="M53.2398 26.7498H48.8282V20.5965H50.032V25.6035H53.2338L53.2398 26.7498Z" fill="#041C2C"/>
<path d="M63.2817 23.6747C63.2895 24.3159 63.1094 24.9451 62.7643 25.4821C62.4192 26.0192 61.9247 26.4399 61.3437 26.6907C60.7626 26.9416 60.1213 27.0114 59.5011 26.8911C58.881 26.7708 58.31 26.466 57.8608 26.0153C57.4117 25.5647 57.1045 24.9885 56.9785 24.3601C56.8524 23.7317 56.9131 23.0794 57.1529 22.4861C57.3927 21.8929 57.8007 21.3854 58.3251 21.0283C58.8495 20.6711 59.4666 20.4804 60.0979 20.4803C60.5175 20.4621 60.9363 20.5319 61.3281 20.6854C61.7199 20.839 62.0763 21.0729 62.3751 21.3727C62.6739 21.6725 62.9086 22.0316 63.0646 22.4277C63.2206 22.8238 63.2945 23.2483 63.2817 23.6747ZM58.166 23.6747C58.1778 24.0582 58.3005 24.4296 58.5189 24.7427C58.7372 25.0558 59.0415 25.2966 59.3938 25.4351C59.746 25.5736 60.1306 25.6037 60.4996 25.5215C60.8685 25.4394 61.2055 25.2487 61.4684 24.9733C61.7314 24.6978 61.9086 24.3498 61.9781 23.9727C62.0475 23.5955 62.0061 23.206 61.859 22.8526C61.7118 22.4992 61.4655 22.1977 61.1507 21.9857C60.8359 21.7736 60.4666 21.6604 60.0889 21.6603C59.8299 21.6539 59.5724 21.7022 59.3328 21.8021C59.0931 21.902 58.8765 22.0513 58.6966 22.2407C58.5167 22.43 58.3774 22.6552 58.2877 22.9021C58.1979 23.1489 58.1595 23.412 58.175 23.6747H58.166Z" fill="#041C2C"/>
<path d="M72.9023 24.2921C72.9023 25.9948 71.834 26.8598 70.2933 26.8598C68.7525 26.8598 67.6843 25.9948 67.6843 24.2921V20.5965H68.888V24.231C68.888 25.2428 69.4507 25.686 70.2843 25.686C71.1178 25.686 71.6836 25.2428 71.6836 24.231V20.5965H72.8873L72.9023 24.2921Z" fill="#041C2C"/>
<path d="M80.0914 20.5965C81.9873 20.5965 83.2361 21.8192 83.2361 23.6747C83.2361 25.5301 81.9873 26.7498 80.0914 26.7498H77.5938V20.5965H80.0914ZM78.8005 21.7428V25.6035H80.0794C81.3553 25.6035 81.9722 24.7904 81.9722 23.6747C81.9722 22.5589 81.3704 21.7428 80.0794 21.7428H78.8005Z" fill="#041C2C"/>
<path d="M16.8248 0H21.1461L26.6681 4.81747L29.8519 3.57948V18.0258L16.8248 28L18.3986 17.9555L24.5947 12.0009L24.0771 10.2218L16.8248 12.1659V0Z" fill="#0047BB"/>
<path d="M13.0301 0H8.70579L3.18681 4.81747L0 3.57948V18.0258L13.0301 28L11.4532 17.9555L5.26019 12.0009L5.77477 10.2218L13.0301 12.1659V0Z" fill="#0047BB"/>
</svg>
