<?xml version="1.0" encoding="UTF-8"?><svg id="Layer_1" xmlns="http://www.w3.org/2000/svg" viewBox="0 0 376.36 250.91"><defs><style>.cls-1{fill:#f7f9fa;}</style></defs><polygon class="cls-1" points="15.68 235.23 15.68 250.91 0 235.23 15.68 235.23"/><polygon class="cls-1" points="15.68 219.54 15.68 235.23 0 219.54 15.68 219.54"/><polygon class="cls-1" points="15.68 203.86 15.68 219.54 0 203.86 15.68 203.86"/><polygon class="cls-1" points="15.68 188.18 15.68 203.86 0 188.18 15.68 188.18"/><polygon class="cls-1" points="15.68 172.5 15.68 188.18 0 172.5 15.68 172.5"/><polygon class="cls-1" points="15.68 156.82 15.68 172.5 0 156.82 15.68 156.82"/><polygon class="cls-1" points="31.36 235.23 31.36 250.91 15.68 235.23 31.36 235.23"/><polygon class="cls-1" points="31.36 219.54 31.36 235.23 15.68 219.54 31.36 219.54"/><polygon class="cls-1" points="31.36 203.86 31.36 219.54 15.68 203.86 31.36 203.86"/><polygon class="cls-1" points="31.36 188.18 31.36 203.86 15.68 188.18 31.36 188.18"/><polygon class="cls-1" points="31.36 172.5 31.36 188.18 15.68 172.5 31.36 172.5"/><polygon class="cls-1" points="31.36 156.82 31.36 172.5 15.68 156.82 31.36 156.82"/><polygon class="cls-1" points="47.05 235.23 47.05 250.91 31.36 235.23 47.05 235.23"/><polygon class="cls-1" points="47.05 219.54 47.05 235.23 31.36 219.54 47.05 219.54"/><polygon class="cls-1" points="47.05 203.86 47.05 219.54 31.36 203.86 47.05 203.86"/><polygon class="cls-1" points="47.05 188.18 47.05 203.86 31.36 188.18 47.05 188.18"/><polygon class="cls-1" points="47.05 172.5 47.05 188.18 31.36 172.5 47.05 172.5"/><polygon class="cls-1" points="62.73 235.23 62.73 250.91 47.05 235.23 62.73 235.23"/><polygon class="cls-1" points="62.73 219.54 62.73 235.23 47.05 219.54 62.73 219.54"/><polygon class="cls-1" points="62.73 203.86 62.73 219.54 47.05 203.86 62.73 203.86"/><polygon class="cls-1" points="62.73 188.18 62.73 203.86 47.05 188.18 62.73 188.18"/><polygon class="cls-1" points="47.05 141.14 47.05 156.82 31.36 141.14 47.05 141.14"/><polygon class="cls-1" points="31.36 125.45 31.36 156.82 0 125.45 31.36 125.45"/><polygon class="cls-1" points="62.73 141.14 62.73 156.82 47.05 141.14 62.73 141.14"/><polygon class="cls-1" points="47.05 125.45 47.05 141.14 31.36 125.45 47.05 125.45"/><polygon class="cls-1" points="62.73 125.45 62.73 141.14 47.05 125.45 62.73 125.45"/><polygon class="cls-1" points="109.77 141.14 109.77 156.82 94.09 141.14 109.77 141.14"/><polygon class="cls-1" points="94.09 125.45 94.09 156.82 62.73 125.45 94.09 125.45"/><polygon class="cls-1" points="125.45 141.14 125.45 156.82 109.77 141.14 125.45 141.14"/><polygon class="cls-1" points="125.45 156.82 125.45 188.18 94.09 156.82 125.45 156.82"/><polygon class="cls-1" points="156.82 188.18 156.82 219.54 125.45 188.18 156.82 188.18"/><polygon class="cls-1" points="125.45 188.18 125.45 156.82 156.82 188.18 125.45 188.18"/><polygon class="cls-1" points="109.77 125.45 109.77 141.14 94.09 125.45 109.77 125.45"/><polygon class="cls-1" points="125.45 125.45 125.45 141.14 109.77 125.45 125.45 125.45"/><polygon class="cls-1" points="125.45 141.14 125.45 125.45 141.14 141.14 125.45 141.14"/><polygon class="cls-1" points="125.45 156.82 125.45 141.14 141.14 156.82 125.45 156.82"/><polygon class="cls-1" points="141.14 141.14 141.14 125.45 156.82 141.14 141.14 141.14"/><polygon class="cls-1" points="141.14 172.5 141.14 141.14 172.5 172.5 141.14 172.5"/><polygon class="cls-1" points="62.73 156.82 62.73 188.18 31.36 156.82 62.73 156.82"/><polygon class="cls-1" points="78.41 235.23 78.41 250.91 62.73 235.23 78.41 235.23"/><polygon class="cls-1" points="78.41 219.54 78.41 235.23 62.73 219.54 78.41 219.54"/><polygon class="cls-1" points="78.41 203.86 78.41 219.54 62.73 203.86 78.41 203.86"/><polygon class="cls-1" points="78.41 188.18 78.41 203.86 62.73 188.18 78.41 188.18"/><polygon class="cls-1" points="78.41 172.5 78.41 188.18 62.73 172.5 78.41 172.5"/><polygon class="cls-1" points="78.41 156.82 78.41 172.5 62.73 156.82 78.41 156.82"/><polygon class="cls-1" points="94.09 235.23 94.09 250.91 78.41 235.23 94.09 235.23"/><polygon class="cls-1" points="94.09 219.54 94.09 235.23 78.41 219.54 94.09 219.54"/><polygon class="cls-1" points="94.09 203.86 94.09 219.54 78.41 203.86 94.09 203.86"/><polygon class="cls-1" points="94.09 188.18 94.09 203.86 78.41 188.18 94.09 188.18"/><polygon class="cls-1" points="94.09 172.5 94.09 188.18 78.41 172.5 94.09 172.5"/><polygon class="cls-1" points="94.09 156.82 94.09 172.5 78.41 156.82 94.09 156.82"/><polygon class="cls-1" points="172.5 188.18 172.5 203.86 156.82 188.18 172.5 188.18"/><polygon class="cls-1" points="156.82 188.18 156.82 172.5 172.5 188.18 156.82 188.18"/><polygon class="cls-1" points="188.18 188.18 188.18 203.86 172.5 188.18 188.18 188.18"/><polygon class="cls-1" points="172.5 188.18 172.5 172.5 188.18 188.18 172.5 188.18"/><polygon class="cls-1" points="172.5 172.5 172.5 156.82 188.18 172.5 172.5 172.5"/><polygon class="cls-1" points="172.5 156.82 172.5 141.14 188.18 156.82 172.5 156.82"/><polygon class="cls-1" points="172.5 141.14 172.5 125.45 188.18 141.14 172.5 141.14"/><polygon class="cls-1" points="156.82 156.82 156.82 141.14 172.5 156.82 156.82 156.82"/><polygon class="cls-1" points="156.82 141.14 156.82 125.45 172.5 141.14 156.82 141.14"/><polygon class="cls-1" points="172.5 203.86 172.5 219.54 156.82 203.86 172.5 203.86"/><polygon class="cls-1" points="188.18 203.86 188.18 219.54 172.5 203.86 188.18 203.86"/><polygon class="cls-1" points="188.18 219.54 188.18 250.91 156.82 219.54 188.18 219.54"/><polygon class="cls-1" points="109.77 235.23 109.77 250.91 94.09 235.23 109.77 235.23"/><polygon class="cls-1" points="109.77 219.54 109.77 235.23 94.09 219.54 109.77 219.54"/><polygon class="cls-1" points="109.77 203.86 109.77 219.54 94.09 203.86 109.77 203.86"/><polygon class="cls-1" points="109.77 188.18 109.77 203.86 94.09 188.18 109.77 188.18"/><polygon class="cls-1" points="125.45 235.23 125.45 250.91 109.77 235.23 125.45 235.23"/><polygon class="cls-1" points="125.45 219.54 125.45 235.23 109.77 219.54 125.45 219.54"/><polygon class="cls-1" points="125.45 203.86 125.45 219.54 109.77 203.86 125.45 203.86"/><polygon class="cls-1" points="125.45 188.18 125.45 203.86 109.77 188.18 125.45 188.18"/><polygon class="cls-1" points="141.14 235.23 141.14 250.91 125.45 235.23 141.14 235.23"/><polygon class="cls-1" points="141.14 219.54 141.14 235.23 125.45 219.54 141.14 219.54"/><polygon class="cls-1" points="156.82 235.23 156.82 250.91 141.14 235.23 156.82 235.23"/><polygon class="cls-1" points="156.82 219.54 156.82 235.23 141.14 219.54 156.82 219.54"/><polygon class="cls-1" points="15.68 15.68 15.68 0 0 15.68 15.68 15.68"/><polygon class="cls-1" points="15.68 31.36 15.68 15.68 0 31.36 15.68 31.36"/><polygon class="cls-1" points="15.68 47.05 15.68 31.36 0 47.05 15.68 47.05"/><polygon class="cls-1" points="15.68 62.73 15.68 47.05 0 62.73 15.68 62.73"/><polygon class="cls-1" points="15.68 78.41 15.68 62.73 0 78.41 15.68 78.41"/><polygon class="cls-1" points="15.68 94.09 15.68 78.41 0 94.09 15.68 94.09"/><polygon class="cls-1" points="31.36 15.68 31.36 0 15.68 15.68 31.36 15.68"/><polygon class="cls-1" points="31.36 31.36 31.36 15.68 15.68 31.36 31.36 31.36"/><polygon class="cls-1" points="31.36 47.05 31.36 31.36 15.68 47.05 31.36 47.05"/><polygon class="cls-1" points="31.36 62.73 31.36 47.05 15.68 62.73 31.36 62.73"/><polygon class="cls-1" points="31.36 78.41 31.36 62.73 15.68 78.41 31.36 78.41"/><polygon class="cls-1" points="31.36 94.09 31.36 78.41 15.68 94.09 31.36 94.09"/><polygon class="cls-1" points="47.05 15.68 47.05 0 31.36 15.68 47.05 15.68"/><polygon class="cls-1" points="47.05 31.36 47.05 15.68 31.36 31.36 47.05 31.36"/><polygon class="cls-1" points="47.05 47.05 47.05 31.36 31.36 47.05 47.05 47.05"/><polygon class="cls-1" points="47.05 62.73 47.05 47.05 31.36 62.73 47.05 62.73"/><polygon class="cls-1" points="47.05 78.41 47.05 62.73 31.36 78.41 47.05 78.41"/><polygon class="cls-1" points="62.73 15.68 62.73 0 47.05 15.68 62.73 15.68"/><polygon class="cls-1" points="62.73 31.36 62.73 15.68 47.05 31.36 62.73 31.36"/><polygon class="cls-1" points="62.73 47.05 62.73 31.36 47.05 47.05 62.73 47.05"/><polygon class="cls-1" points="62.73 62.73 62.73 47.05 47.05 62.73 62.73 62.73"/><polygon class="cls-1" points="47.05 109.77 47.05 94.09 31.36 109.77 47.05 109.77"/><polygon class="cls-1" points="31.36 125.45 31.36 94.09 0 125.45 31.36 125.45"/><polygon class="cls-1" points="62.73 109.77 62.73 94.09 47.05 109.77 62.73 109.77"/><polygon class="cls-1" points="47.05 125.45 47.05 109.77 31.36 125.45 47.05 125.45"/><polygon class="cls-1" points="62.73 125.45 62.73 109.77 47.05 125.45 62.73 125.45"/><polygon class="cls-1" points="109.77 109.77 109.77 94.09 94.09 109.77 109.77 109.77"/><polygon class="cls-1" points="94.09 125.45 94.09 94.09 62.73 125.45 94.09 125.45"/><polygon class="cls-1" points="125.45 109.77 125.45 94.09 109.77 109.77 125.45 109.77"/><polygon class="cls-1" points="125.45 94.09 125.45 62.73 94.09 94.09 125.45 94.09"/><polygon class="cls-1" points="156.82 62.73 156.82 31.36 125.45 62.73 156.82 62.73"/><polygon class="cls-1" points="125.45 62.73 125.45 94.09 156.82 62.73 125.45 62.73"/><polygon class="cls-1" points="109.77 125.45 109.77 109.77 94.09 125.45 109.77 125.45"/><polygon class="cls-1" points="125.45 125.45 125.45 109.77 109.77 125.45 125.45 125.45"/><polygon class="cls-1" points="125.45 109.77 125.45 125.45 141.14 109.77 125.45 109.77"/><polygon class="cls-1" points="125.45 94.09 125.45 109.77 141.14 94.09 125.45 94.09"/><polygon class="cls-1" points="141.14 109.77 141.14 125.45 156.82 109.77 141.14 109.77"/><polygon class="cls-1" points="141.14 78.41 141.14 109.77 172.5 78.41 141.14 78.41"/><polygon class="cls-1" points="62.73 94.09 62.73 62.73 31.36 94.09 62.73 94.09"/><polygon class="cls-1" points="78.41 15.68 78.41 0 62.73 15.68 78.41 15.68"/><polygon class="cls-1" points="78.41 31.36 78.41 15.68 62.73 31.36 78.41 31.36"/><polygon class="cls-1" points="78.41 47.05 78.41 31.36 62.73 47.05 78.41 47.05"/><polygon class="cls-1" points="78.41 62.73 78.41 47.05 62.73 62.73 78.41 62.73"/><polygon class="cls-1" points="78.41 78.41 78.41 62.73 62.73 78.41 78.41 78.41"/><polygon class="cls-1" points="78.41 94.09 78.41 78.41 62.73 94.09 78.41 94.09"/><polygon class="cls-1" points="94.09 15.68 94.09 0 78.41 15.68 94.09 15.68"/><polygon class="cls-1" points="94.09 31.36 94.09 15.68 78.41 31.36 94.09 31.36"/><polygon class="cls-1" points="94.09 47.05 94.09 31.36 78.41 47.05 94.09 47.05"/><polygon class="cls-1" points="94.09 62.73 94.09 47.05 78.41 62.73 94.09 62.73"/><polygon class="cls-1" points="94.09 78.41 94.09 62.73 78.41 78.41 94.09 78.41"/><polygon class="cls-1" points="94.09 94.09 94.09 78.41 78.41 94.09 94.09 94.09"/><polygon class="cls-1" points="172.5 62.73 172.5 47.05 156.82 62.73 172.5 62.73"/><polygon class="cls-1" points="156.82 62.73 156.82 78.41 172.5 62.73 156.82 62.73"/><polygon class="cls-1" points="188.18 62.73 188.18 47.05 172.5 62.73 188.18 62.73"/><polygon class="cls-1" points="172.5 62.73 172.5 78.41 188.18 62.73 172.5 62.73"/><polygon class="cls-1" points="172.5 78.41 172.5 94.09 188.18 78.41 172.5 78.41"/><polygon class="cls-1" points="172.5 94.09 172.5 109.77 188.18 94.09 172.5 94.09"/><polygon class="cls-1" points="172.5 109.77 172.5 125.45 188.18 109.77 172.5 109.77"/><polygon class="cls-1" points="156.82 94.09 156.82 109.77 172.5 94.09 156.82 94.09"/><polygon class="cls-1" points="156.82 109.77 156.82 125.45 172.5 109.77 156.82 109.77"/><polygon class="cls-1" points="172.5 47.05 172.5 31.36 156.82 47.05 172.5 47.05"/><polygon class="cls-1" points="188.18 47.05 188.18 31.36 172.5 47.05 188.18 47.05"/><polygon class="cls-1" points="188.18 31.36 188.18 0 156.82 31.36 188.18 31.36"/><polygon class="cls-1" points="109.77 15.68 109.77 0 94.09 15.68 109.77 15.68"/><polygon class="cls-1" points="109.77 31.36 109.77 15.68 94.09 31.36 109.77 31.36"/><polygon class="cls-1" points="109.77 47.05 109.77 31.36 94.09 47.05 109.77 47.05"/><polygon class="cls-1" points="109.77 62.73 109.77 47.05 94.09 62.73 109.77 62.73"/><polygon class="cls-1" points="125.45 15.68 125.45 0 109.77 15.68 125.45 15.68"/><polygon class="cls-1" points="125.45 31.36 125.45 15.68 109.77 31.36 125.45 31.36"/><polygon class="cls-1" points="125.45 47.05 125.45 31.36 109.77 47.05 125.45 47.05"/><polygon class="cls-1" points="125.45 62.73 125.45 47.05 109.77 62.73 125.45 62.73"/><polygon class="cls-1" points="141.14 15.68 141.14 0 125.45 15.68 141.14 15.68"/><polygon class="cls-1" points="141.14 31.36 141.14 15.68 125.45 31.36 141.14 31.36"/><polygon class="cls-1" points="156.82 15.68 156.82 0 141.14 15.68 156.82 15.68"/><polygon class="cls-1" points="156.82 31.36 156.82 15.68 141.14 31.36 156.82 31.36"/><polygon class="cls-1" points="360.68 235.23 360.68 250.91 376.36 235.23 360.68 235.23"/><polygon class="cls-1" points="360.68 219.54 360.68 235.23 376.36 219.54 360.68 219.54"/><polygon class="cls-1" points="360.68 203.86 360.68 219.54 376.36 203.86 360.68 203.86"/><polygon class="cls-1" points="360.68 188.18 360.68 203.86 376.36 188.18 360.68 188.18"/><polygon class="cls-1" points="360.68 172.5 360.68 188.18 376.36 172.5 360.68 172.5"/><polygon class="cls-1" points="360.68 156.82 360.68 172.5 376.36 156.82 360.68 156.82"/><polygon class="cls-1" points="345 235.23 345 250.91 360.68 235.23 345 235.23"/><polygon class="cls-1" points="345 219.54 345 235.23 360.68 219.54 345 219.54"/><polygon class="cls-1" points="345 203.86 345 219.54 360.68 203.86 345 203.86"/><polygon class="cls-1" points="345 188.18 345 203.86 360.68 188.18 345 188.18"/><polygon class="cls-1" points="345 172.5 345 188.18 360.68 172.5 345 172.5"/><polygon class="cls-1" points="345 156.82 345 172.5 360.68 156.82 345 156.82"/><polygon class="cls-1" points="329.32 235.23 329.32 250.91 345 235.23 329.32 235.23"/><polygon class="cls-1" points="329.32 219.54 329.32 235.23 345 219.54 329.32 219.54"/><polygon class="cls-1" points="329.32 203.86 329.32 219.54 345 203.86 329.32 203.86"/><polygon class="cls-1" points="329.32 188.18 329.32 203.86 345 188.18 329.32 188.18"/><polygon class="cls-1" points="329.32 172.5 329.32 188.18 345 172.5 329.32 172.5"/><polygon class="cls-1" points="313.63 235.23 313.63 250.91 329.32 235.23 313.63 235.23"/><polygon class="cls-1" points="313.63 219.54 313.63 235.23 329.32 219.54 313.63 219.54"/><polygon class="cls-1" points="313.63 203.86 313.63 219.54 329.32 203.86 313.63 203.86"/><polygon class="cls-1" points="313.63 188.18 313.63 203.86 329.32 188.18 313.63 188.18"/><polygon class="cls-1" points="329.32 141.14 329.32 156.82 345 141.14 329.32 141.14"/><polygon class="cls-1" points="345 125.45 345 156.82 376.36 125.45 345 125.45"/><polygon class="cls-1" points="313.63 141.14 313.63 156.82 329.32 141.14 313.63 141.14"/><polygon class="cls-1" points="329.32 125.45 329.32 141.14 345 125.45 329.32 125.45"/><polygon class="cls-1" points="313.63 125.45 313.63 141.14 329.32 125.45 313.63 125.45"/><polygon class="cls-1" points="266.59 141.14 266.59 156.82 282.27 141.14 266.59 141.14"/><polygon class="cls-1" points="282.27 125.45 282.27 156.82 313.63 125.45 282.27 125.45"/><polygon class="cls-1" points="250.91 141.14 250.91 156.82 266.59 141.14 250.91 141.14"/><polygon class="cls-1" points="250.91 156.82 250.91 188.18 282.27 156.82 250.91 156.82"/><polygon class="cls-1" points="219.54 188.18 219.54 219.54 250.91 188.18 219.54 188.18"/><polygon class="cls-1" points="250.91 188.18 250.91 156.82 219.54 188.18 250.91 188.18"/><polygon class="cls-1" points="266.59 125.45 266.59 141.14 282.27 125.45 266.59 125.45"/><polygon class="cls-1" points="250.91 125.45 250.91 141.14 266.59 125.45 250.91 125.45"/><polygon class="cls-1" points="250.91 141.14 250.91 125.45 235.23 141.14 250.91 141.14"/><polygon class="cls-1" points="250.91 156.82 250.91 141.14 235.23 156.82 250.91 156.82"/><polygon class="cls-1" points="235.23 141.14 235.23 125.45 219.54 141.14 235.23 141.14"/><polygon class="cls-1" points="235.23 172.5 235.23 141.14 203.86 172.5 235.23 172.5"/><polygon class="cls-1" points="313.63 156.82 313.63 188.18 345 156.82 313.63 156.82"/><polygon class="cls-1" points="297.95 235.23 297.95 250.91 313.63 235.23 297.95 235.23"/><polygon class="cls-1" points="297.95 219.54 297.95 235.23 313.63 219.54 297.95 219.54"/><polygon class="cls-1" points="297.95 203.86 297.95 219.54 313.63 203.86 297.95 203.86"/><polygon class="cls-1" points="297.95 188.18 297.95 203.86 313.63 188.18 297.95 188.18"/><polygon class="cls-1" points="297.95 172.5 297.95 188.18 313.63 172.5 297.95 172.5"/><polygon class="cls-1" points="297.95 156.82 297.95 172.5 313.63 156.82 297.95 156.82"/><polygon class="cls-1" points="282.27 235.23 282.27 250.91 297.95 235.23 282.27 235.23"/><polygon class="cls-1" points="282.27 219.54 282.27 235.23 297.95 219.54 282.27 219.54"/><polygon class="cls-1" points="282.27 203.86 282.27 219.54 297.95 203.86 282.27 203.86"/><polygon class="cls-1" points="282.27 188.18 282.27 203.86 297.95 188.18 282.27 188.18"/><polygon class="cls-1" points="282.27 172.5 282.27 188.18 297.95 172.5 282.27 172.5"/><polygon class="cls-1" points="282.27 156.82 282.27 172.5 297.95 156.82 282.27 156.82"/><polygon class="cls-1" points="203.86 188.18 203.86 203.86 219.54 188.18 203.86 188.18"/><polygon class="cls-1" points="219.54 188.18 219.54 172.5 203.86 188.18 219.54 188.18"/><polygon class="cls-1" points="188.18 188.18 188.18 203.86 203.86 188.18 188.18 188.18"/><polygon class="cls-1" points="203.86 188.18 203.86 172.5 188.18 188.18 203.86 188.18"/><polygon class="cls-1" points="203.86 172.5 203.86 156.82 188.18 172.5 203.86 172.5"/><polygon class="cls-1" points="203.86 156.82 203.86 141.14 188.18 156.82 203.86 156.82"/><polygon class="cls-1" points="203.86 141.14 203.86 125.45 188.18 141.14 203.86 141.14"/><polygon class="cls-1" points="219.54 156.82 219.54 141.14 203.86 156.82 219.54 156.82"/><polygon class="cls-1" points="219.54 141.14 219.54 125.45 203.86 141.14 219.54 141.14"/><polygon class="cls-1" points="203.86 203.86 203.86 219.54 219.54 203.86 203.86 203.86"/><polygon class="cls-1" points="188.18 203.86 188.18 219.54 203.86 203.86 188.18 203.86"/><polygon class="cls-1" points="188.18 219.54 188.18 250.91 219.54 219.54 188.18 219.54"/><polygon class="cls-1" points="266.59 235.23 266.59 250.91 282.27 235.23 266.59 235.23"/><polygon class="cls-1" points="266.59 219.54 266.59 235.23 282.27 219.54 266.59 219.54"/><polygon class="cls-1" points="266.59 203.86 266.59 219.54 282.27 203.86 266.59 203.86"/><polygon class="cls-1" points="266.59 188.18 266.59 203.86 282.27 188.18 266.59 188.18"/><polygon class="cls-1" points="250.91 235.23 250.91 250.91 266.59 235.23 250.91 235.23"/><polygon class="cls-1" points="250.91 219.54 250.91 235.23 266.59 219.54 250.91 219.54"/><polygon class="cls-1" points="250.91 203.86 250.91 219.54 266.59 203.86 250.91 203.86"/><polygon class="cls-1" points="250.91 188.18 250.91 203.86 266.59 188.18 250.91 188.18"/><polygon class="cls-1" points="235.23 235.23 235.23 250.91 250.91 235.23 235.23 235.23"/><polygon class="cls-1" points="235.23 219.54 235.23 235.23 250.91 219.54 235.23 219.54"/><polygon class="cls-1" points="219.54 235.23 219.54 250.91 235.23 235.23 219.54 235.23"/><polygon class="cls-1" points="219.54 219.54 219.54 235.23 235.23 219.54 219.54 219.54"/><polygon class="cls-1" points="360.68 15.68 360.68 0 376.36 15.68 360.68 15.68"/><polygon class="cls-1" points="360.68 31.36 360.68 15.68 376.36 31.36 360.68 31.36"/><polygon class="cls-1" points="360.68 47.05 360.68 31.36 376.36 47.05 360.68 47.05"/><polygon class="cls-1" points="360.68 62.73 360.68 47.05 376.36 62.73 360.68 62.73"/><polygon class="cls-1" points="360.68 78.41 360.68 62.73 376.36 78.41 360.68 78.41"/><polygon class="cls-1" points="360.68 94.09 360.68 78.41 376.36 94.09 360.68 94.09"/><polygon class="cls-1" points="345 15.68 345 0 360.68 15.68 345 15.68"/><polygon class="cls-1" points="345 31.36 345 15.68 360.68 31.36 345 31.36"/><polygon class="cls-1" points="345 47.05 345 31.36 360.68 47.05 345 47.05"/><polygon class="cls-1" points="345 62.73 345 47.05 360.68 62.73 345 62.73"/><polygon class="cls-1" points="345 78.41 345 62.73 360.68 78.41 345 78.41"/><polygon class="cls-1" points="345 94.09 345 78.41 360.68 94.09 345 94.09"/><polygon class="cls-1" points="329.32 15.68 329.32 0 345 15.68 329.32 15.68"/><polygon class="cls-1" points="329.32 31.36 329.32 15.68 345 31.36 329.32 31.36"/><polygon class="cls-1" points="329.32 47.05 329.32 31.36 345 47.05 329.32 47.05"/><polygon class="cls-1" points="329.32 62.73 329.32 47.05 345 62.73 329.32 62.73"/><polygon class="cls-1" points="329.32 78.41 329.32 62.73 345 78.41 329.32 78.41"/><polygon class="cls-1" points="313.63 15.68 313.63 0 329.32 15.68 313.63 15.68"/><polygon class="cls-1" points="313.63 31.36 313.63 15.68 329.32 31.36 313.63 31.36"/><polygon class="cls-1" points="313.63 47.05 313.63 31.36 329.32 47.05 313.63 47.05"/><polygon class="cls-1" points="313.63 62.73 313.63 47.05 329.32 62.73 313.63 62.73"/><polygon class="cls-1" points="329.32 109.77 329.32 94.09 345 109.77 329.32 109.77"/><polygon class="cls-1" points="345 125.45 345 94.09 376.36 125.45 345 125.45"/><polygon class="cls-1" points="313.63 109.77 313.63 94.09 329.32 109.77 313.63 109.77"/><polygon class="cls-1" points="329.32 125.45 329.32 109.77 345 125.45 329.32 125.45"/><polygon class="cls-1" points="313.63 125.45 313.63 109.77 329.32 125.45 313.63 125.45"/><polygon class="cls-1" points="266.59 109.77 266.59 94.09 282.27 109.77 266.59 109.77"/><polygon class="cls-1" points="282.27 125.45 282.27 94.09 313.63 125.45 282.27 125.45"/><polygon class="cls-1" points="250.91 109.77 250.91 94.09 266.59 109.77 250.91 109.77"/><polygon class="cls-1" points="250.91 94.09 250.91 62.73 282.27 94.09 250.91 94.09"/><polygon class="cls-1" points="219.54 62.73 219.54 31.36 250.91 62.73 219.54 62.73"/><polygon class="cls-1" points="250.91 62.73 250.91 94.09 219.54 62.73 250.91 62.73"/><polygon class="cls-1" points="266.59 125.45 266.59 109.77 282.27 125.45 266.59 125.45"/><polygon class="cls-1" points="250.91 125.45 250.91 109.77 266.59 125.45 250.91 125.45"/><polygon class="cls-1" points="250.91 109.77 250.91 125.45 235.23 109.77 250.91 109.77"/><polygon class="cls-1" points="250.91 94.09 250.91 109.77 235.23 94.09 250.91 94.09"/><polygon class="cls-1" points="235.23 109.77 235.23 125.45 219.54 109.77 235.23 109.77"/><polygon class="cls-1" points="235.23 78.41 235.23 109.77 203.86 78.41 235.23 78.41"/><polygon class="cls-1" points="313.63 94.09 313.63 62.73 345 94.09 313.63 94.09"/><polygon class="cls-1" points="297.95 15.68 297.95 0 313.63 15.68 297.95 15.68"/><polygon class="cls-1" points="297.95 31.36 297.95 15.68 313.63 31.36 297.95 31.36"/><polygon class="cls-1" points="297.95 47.05 297.95 31.36 313.63 47.05 297.95 47.05"/><polygon class="cls-1" points="297.95 62.73 297.95 47.05 313.63 62.73 297.95 62.73"/><polygon class="cls-1" points="297.95 78.41 297.95 62.73 313.63 78.41 297.95 78.41"/><polygon class="cls-1" points="297.95 94.09 297.95 78.41 313.63 94.09 297.95 94.09"/><polygon class="cls-1" points="282.27 15.68 282.27 0 297.95 15.68 282.27 15.68"/><polygon class="cls-1" points="282.27 31.36 282.27 15.68 297.95 31.36 282.27 31.36"/><polygon class="cls-1" points="282.27 47.05 282.27 31.36 297.95 47.05 282.27 47.05"/><polygon class="cls-1" points="282.27 62.73 282.27 47.05 297.95 62.73 282.27 62.73"/><polygon class="cls-1" points="282.27 78.41 282.27 62.73 297.95 78.41 282.27 78.41"/><polygon class="cls-1" points="282.27 94.09 282.27 78.41 297.95 94.09 282.27 94.09"/><polygon class="cls-1" points="203.86 62.73 203.86 47.05 219.54 62.73 203.86 62.73"/><polygon class="cls-1" points="219.54 62.73 219.54 78.41 203.86 62.73 219.54 62.73"/><polygon class="cls-1" points="188.18 62.73 188.18 47.05 203.86 62.73 188.18 62.73"/><polygon class="cls-1" points="203.86 62.73 203.86 78.41 188.18 62.73 203.86 62.73"/><polygon class="cls-1" points="203.86 78.41 203.86 94.09 188.18 78.41 203.86 78.41"/><polygon class="cls-1" points="203.86 94.09 203.86 109.77 188.18 94.09 203.86 94.09"/><polygon class="cls-1" points="203.86 109.77 203.86 125.45 188.18 109.77 203.86 109.77"/><polygon class="cls-1" points="219.54 94.09 219.54 109.77 203.86 94.09 219.54 94.09"/><polygon class="cls-1" points="219.54 109.77 219.54 125.45 203.86 109.77 219.54 109.77"/><polygon class="cls-1" points="203.86 47.05 203.86 31.36 219.54 47.05 203.86 47.05"/><polygon class="cls-1" points="188.18 47.05 188.18 31.36 203.86 47.05 188.18 47.05"/><polygon class="cls-1" points="188.18 31.36 188.18 0 219.54 31.36 188.18 31.36"/><polygon class="cls-1" points="266.59 15.68 266.59 0 282.27 15.68 266.59 15.68"/><polygon class="cls-1" points="266.59 31.36 266.59 15.68 282.27 31.36 266.59 31.36"/><polygon class="cls-1" points="266.59 47.05 266.59 31.36 282.27 47.05 266.59 47.05"/><polygon class="cls-1" points="266.59 62.73 266.59 47.05 282.27 62.73 266.59 62.73"/><polygon class="cls-1" points="250.91 15.68 250.91 0 266.59 15.68 250.91 15.68"/><polygon class="cls-1" points="250.91 31.36 250.91 15.68 266.59 31.36 250.91 31.36"/><polygon class="cls-1" points="250.91 47.05 250.91 31.36 266.59 47.05 250.91 47.05"/><polygon class="cls-1" points="250.91 62.73 250.91 47.05 266.59 62.73 250.91 62.73"/><polygon class="cls-1" points="235.23 15.68 235.23 0 250.91 15.68 235.23 15.68"/><polygon class="cls-1" points="235.23 31.36 235.23 15.68 250.91 31.36 235.23 31.36"/><polygon class="cls-1" points="219.54 15.68 219.54 0 235.23 15.68 219.54 15.68"/><polygon class="cls-1" points="219.54 31.36 219.54 15.68 235.23 31.36 219.54 31.36"/></svg>