<svg width="16" height="16" viewBox="0 0 16 16" fill="none" xmlns="http://www.w3.org/2000/svg">
<path fill-rule="evenodd" clip-rule="evenodd" d="M5.44307 1.99141C4.39994 2.26739 3.34355 2.59367 2.71833 2.79279C2.54631 2.84758 2.42552 2.99297 2.40283 3.15911C1.87082 7.05584 3.10006 9.89999 4.56679 11.7728C5.30318 12.713 6.09996 13.4085 6.7642 13.8657C7.09658 14.0944 7.39043 14.2599 7.62132 14.366C7.73692 14.4191 7.83146 14.4549 7.90327 14.4766C7.96241 14.4945 7.99282 14.4987 8.00005 14.4997C8.00728 14.4987 8.0377 14.4945 8.09684 14.4766C8.16864 14.4549 8.26318 14.4191 8.37878 14.366C8.60968 14.2599 8.90352 14.0944 9.23591 13.8657C9.90014 13.4085 10.6969 12.713 11.4333 11.7728C12.9 9.89999 14.1293 7.05584 13.5973 3.15911C13.5746 2.99297 13.4538 2.84758 13.2818 2.79279C12.6565 2.59367 11.6002 2.26739 10.557 1.99141C9.4905 1.70924 8.50995 1.5 8.00005 1.5C7.49016 1.5 6.5096 1.70924 5.44307 1.99141ZM5.1873 1.02467C6.23017 0.748759 7.33778 0.5 8.00005 0.5C8.66233 0.5 9.76993 0.748759 10.8128 1.02467C11.8791 1.30678 12.9533 1.6387 13.5852 1.83995C14.1126 2.00791 14.5115 2.46274 14.5881 3.02384C15.1611 7.22133 13.8323 10.3314 12.2206 12.3894C11.4178 13.4145 10.5452 14.1785 9.80287 14.6894C9.43197 14.9447 9.0882 15.1405 8.79628 15.2746C8.52655 15.3986 8.23798 15.5 8.00005 15.5C7.76212 15.5 7.47355 15.3986 7.20382 15.2746C6.9119 15.1405 6.56813 14.9447 6.19723 14.6894C5.45488 14.1785 4.58233 13.4145 3.7795 12.3894C2.16778 10.3314 0.838951 7.22133 1.41202 3.02384C1.48863 2.46274 1.8875 2.00791 2.41486 1.83995C3.04677 1.6387 4.12103 1.30678 5.1873 1.02467Z" fill="#687780"/>
<path d="M9.5 6.5C9.5 7.15311 9.0826 7.70873 8.5 7.91465L8.88494 9.90506C8.94461 10.2136 8.70826 10.5 8.39404 10.5H7.60596C7.29174 10.5 7.05539 10.2136 7.11506 9.90506L7.5 7.91465C6.9174 7.70873 6.5 7.15311 6.5 6.5C6.5 5.67157 7.17157 5 8 5C8.82843 5 9.5 5.67157 9.5 6.5Z" fill="#687780"/>
</svg>
