<svg width="20" height="20" viewBox="0 0 20 20" fill="none" xmlns="http://www.w3.org/2000/svg">
<path fill-rule="evenodd" clip-rule="evenodd" d="M10.5669 1.08978C10.1984 0.970072 9.80156 0.970072 9.43313 1.08978C9.17544 1.17351 8.97306 1.3168 8.80218 1.46187C8.64367 1.59643 8.4684 1.77173 8.27756 1.9626L1.9626 8.27755C1.77173 8.4684 1.59643 8.64367 1.46187 8.80218C1.3168 8.97306 1.17351 9.17544 1.08978 9.43313C0.970072 9.80156 0.970072 10.1984 1.08978 10.5669C1.17351 10.8246 1.3168 11.0269 1.46187 11.1978C1.59642 11.3563 1.77172 11.5316 1.96259 11.7224L8.27753 18.0374C8.46836 18.2282 8.64369 18.4036 8.80218 18.5381C8.97306 18.6832 9.17544 18.8265 9.43313 18.9102C9.80156 19.0299 10.1984 19.0299 10.5669 18.9102C10.8246 18.8265 11.0269 18.6832 11.1978 18.5381C11.3563 18.4036 11.5316 18.2283 11.7225 18.0374L18.0374 11.7225C18.2283 11.5316 18.4036 11.3563 18.5381 11.1978C18.6832 11.0269 18.8265 10.8246 18.9102 10.5669C19.0299 10.1984 19.0299 9.80156 18.9102 9.43313C18.8265 9.17544 18.6832 8.97306 18.5381 8.80218C18.4036 8.64369 18.2283 8.46843 18.0375 8.27761L11.7224 1.96259C11.5316 1.77172 11.3563 1.59642 11.1978 1.46187C11.0269 1.3168 10.8246 1.17351 10.5669 1.08978ZM10.75 5.75C10.75 5.33579 10.4142 5 10 5C9.58579 5 9.25 5.33579 9.25 5.75V9.25C9.25 9.66421 9.58579 10 10 10C10.4142 10 10.75 9.66421 10.75 9.25V5.75ZM10.75 12.75C10.75 12.3358 10.4142 12 10 12C9.58579 12 9.25 12.3358 9.25 12.75V14.25C9.25 14.6642 9.58579 15 10 15C10.4142 15 10.75 14.6642 10.75 14.25V12.75Z" fill="#C53434"/>
</svg>
