<svg width="23" height="22" viewBox="0 0 23 22" fill="none" xmlns="http://www.w3.org/2000/svg">
<path d="M22.4998 12.6771V0.855805C22.5001 0.743377 22.4781 0.632006 22.4352 0.528088C22.3922 0.424171 22.3293 0.329756 22.2498 0.250257C22.1703 0.170758 22.0759 0.107751 21.9719 0.0648433C21.868 0.021942 21.7566 -1.43423e-05 21.6443 0.000246437H17.5718V16.2901C17.5718 16.9452 18.3638 17.2728 18.8233 16.8083L22.1771 13.4545C22.2793 13.3525 22.3604 13.2313 22.4158 13.0979C22.4712 12.9646 22.4997 12.8216 22.4998 12.6771Z" fill="#FF0036"/>
<path d="M17.5722 0.000244141H9.82818C9.6838 0.000320466 9.54082 0.0288535 9.40744 0.0842213C9.27406 0.139589 9.15289 0.220698 9.05087 0.322917L5.69709 3.6767C5.23753 4.13625 5.5602 4.92826 6.21531 4.92826H17.5771V0.000244141H17.5722Z" fill="#FFC900"/>
<path d="M13.1769 21.9996H1.35556C1.24314 21.9998 1.13176 21.9779 1.02785 21.935C0.92393 21.8921 0.829511 21.829 0.750014 21.7495C0.670517 21.6701 0.607507 21.5756 0.564603 21.4717C0.521698 21.3678 0.499744 21.2565 0.500002 21.144V17.0715H16.7898C17.4449 17.0715 17.7725 17.8635 17.308 18.3231L13.9543 21.6769C13.8523 21.7793 13.7312 21.8605 13.5978 21.9158C13.4644 21.9712 13.3214 21.9997 13.1769 21.9996Z" fill="#1904DA"/>
<path d="M0.5 17.0724V9.32845C0.500074 9.18401 0.528609 9.04103 0.583975 8.90765C0.63934 8.77427 0.72045 8.6531 0.822667 8.55114L4.17645 5.19734C4.63601 4.73777 5.42801 5.06044 5.42801 5.71559V17.0773L0.5 17.0724Z" fill="#08B1D5"/>
</svg>
