<svg width="16" height="12" viewBox="0 0 16 12" fill="none" xmlns="http://www.w3.org/2000/svg">
<path fill-rule="evenodd" clip-rule="evenodd" d="M14 8H2C1.44772 8 1 8.44772 1 9V10C1 10.5523 1.44772 11 2 11H14C14.5523 11 15 10.5523 15 10V9C15 8.44772 14.5523 8 14 8ZM2 7C0.895431 7 0 7.89543 0 9V10C0 11.1046 0.895431 12 2 12H14C15.1046 12 16 11.1046 16 10V9C16 7.89543 15.1046 7 14 7H2Z" fill="#687780"/>
<path d="M5 9.5C5 9.77614 4.77614 10 4.5 10C4.22386 10 4 9.77614 4 9.5C4 9.22386 4.22386 9 4.5 9C4.77614 9 5 9.22386 5 9.5Z" fill="#687780"/>
<path d="M3 9.5C3 9.77614 2.77614 10 2.5 10C2.22386 10 2 9.77614 2 9.5C2 9.22386 2.22386 9 2.5 9C2.77614 9 3 9.22386 3 9.5Z" fill="#687780"/>
<path fill-rule="evenodd" clip-rule="evenodd" d="M14 1H2C1.44772 1 1 1.44772 1 2V3C1 3.55228 1.44772 4 2 4H14C14.5523 4 15 3.55228 15 3V2C15 1.44772 14.5523 1 14 1ZM2 0C0.895431 0 0 0.89543 0 2V3C0 4.10457 0.895431 5 2 5H14C15.1046 5 16 4.10457 16 3V2C16 0.895431 15.1046 0 14 0H2Z" fill="#687780"/>
<path d="M5 2.5C5 2.77614 4.77614 3 4.5 3C4.22386 3 4 2.77614 4 2.5C4 2.22386 4.22386 2 4.5 2C4.77614 2 5 2.22386 5 2.5Z" fill="#687780"/>
<path d="M3 2.5C3 2.77614 2.77614 3 2.5 3C2.22386 3 2 2.77614 2 2.5C2 2.22386 2.22386 2 2.5 2C2.77614 2 3 2.22386 3 2.5Z" fill="#687780"/>
</svg>
