<svg width="14" height="18" viewBox="0 0 14 18" fill="none" xmlns="http://www.w3.org/2000/svg">
<path d="M7 17.3333C6.52778 17.3333 6.12847 17.1701 5.80208 16.8438C5.47569 16.5174 5.3125 16.1181 5.3125 15.6458H8.6875C8.6875 16.1181 8.52431 16.5174 8.19792 16.8438C7.87153 17.1701 7.47222 17.3333 7 17.3333ZM3.625 14.3542V13.1042H10.375V14.3542H3.625ZM3.72917 11.8333C2.8125 11.2361 2.08681 10.4896 1.55208 9.59375C1.01736 8.69792 0.75 7.6875 0.75 6.5625C0.75 4.86806 1.36806 3.40278 2.60417 2.16667C3.84028 0.930555 5.30556 0.3125 7 0.3125C8.69444 0.3125 10.1597 0.930555 11.3958 2.16667C12.6319 3.40278 13.25 4.86806 13.25 6.5625C13.25 7.6875 12.9861 8.69792 12.4583 9.59375C11.9306 10.4896 11.2014 11.2361 10.2708 11.8333H3.72917Z" fill="#F5B66F"/>
</svg>
