<svg width="18" height="18" viewBox="0 0 18 18" fill="none" xmlns="http://www.w3.org/2000/svg">
<g clip-path="url(#clip0_457_58774)">
<path d="M6.00406 0.0182986H11.3241L5.80133 17.37C5.77309 17.4586 5.73199 17.542 5.67952 17.6172C5.62715 17.6925 5.564 17.7585 5.4923 17.813C5.4206 17.8676 5.34149 17.91 5.25744 17.9385C5.17338 17.9671 5.08573 17.9819 4.99762 17.9819H0.857276C0.722875 17.9819 0.590273 17.9481 0.470706 17.8828C0.351012 17.8177 0.24769 17.7233 0.169316 17.6075C0.0908904 17.4916 0.039585 17.3576 0.0196319 17.2166C-0.000370867 17.0756 0.0117656 16.9315 0.0546929 16.7964L5.20012 0.629716C5.22822 0.541112 5.26935 0.457748 5.32194 0.382482C5.37431 0.307216 5.43769 0.241239 5.50916 0.186695C5.58085 0.13215 5.65996 0.0897538 5.74402 0.0611717C5.82808 0.0325897 5.91573 0.0178223 6.00383 0.0178223V0.0180604L6.00406 0.0182986Z" fill="url(#paint0_linear_457_58774)"/>
<path d="M15.8117 17.9817H11.0346C10.9814 17.9817 10.9281 17.9765 10.8755 17.9657C10.8231 17.9553 10.7717 17.9395 10.722 17.9188C10.6723 17.8981 10.6247 17.8724 10.5795 17.8424C10.5344 17.8122 10.492 17.7776 10.453 17.739L5.032 12.3737C4.97466 12.3169 4.93473 12.2432 4.91737 12.1622C4.90004 12.0811 4.90614 11.9963 4.93488 11.919C4.96362 11.8416 5.01367 11.7752 5.07852 11.7284C5.14347 11.6817 5.22011 11.6567 5.29855 11.6567H13.7348L15.8112 17.9819L15.8117 17.9817Z" fill="#336CC9"/>
<path d="M11.3432 0.0183217L7.61907 11.6581L13.704 11.6567L15.7912 17.9819H11.0321C10.9829 17.9814 10.9337 17.9767 10.8851 17.9674C10.8366 17.9581 10.789 17.9445 10.7427 17.9264C10.6498 17.8906 10.5635 17.8381 10.4873 17.7713L6.82795 14.1519L5.80354 17.3536C5.77702 17.4336 5.74061 17.5096 5.69521 17.5794C5.60422 17.7198 5.47975 17.8321 5.33449 17.905C5.26216 17.9412 5.1856 17.9671 5.10681 17.9819H0.859709C0.72396 17.9824 0.590009 17.9481 0.469318 17.8819C0.348608 17.8157 0.244703 17.7197 0.166386 17.602C0.0880691 17.4843 0.0376419 17.3484 0.0193676 17.2057C0.00115944 17.0629 0.0155731 16.9176 0.0613959 16.7819L5.19851 0.641887C5.22526 0.551615 5.26549 0.466584 5.31763 0.389888C5.36955 0.313193 5.43293 0.245549 5.50485 0.189814C5.57677 0.134079 5.65678 0.0907296 5.74151 0.0616712C5.82624 0.0326127 5.91502 0.0178453 6.00424 0.0183217H11.3434H11.3432Z" fill="url(#paint1_linear_457_58774)"/>
<path d="M17.9451 16.7965C17.988 16.9316 18.0001 17.0756 17.9803 17.2166C17.9604 17.3576 17.9092 17.4915 17.8309 17.6075C17.7525 17.7233 17.6492 17.8176 17.5296 17.8827C17.4099 17.9478 17.2774 17.9818 17.1429 17.9819H11.2136C11.348 17.9819 11.4806 17.9478 11.6004 17.8828C11.7199 17.8178 11.8233 17.7232 11.9018 17.6075C11.9802 17.4917 12.0314 17.3576 12.0514 17.2166C12.0714 17.0756 12.0593 16.9315 12.0164 16.7965L6.87072 0.629252C6.81407 0.451158 6.70615 0.296378 6.56214 0.186706C6.49067 0.132162 6.41155 0.0900039 6.32772 0.0614218C6.24389 0.0328398 6.15624 0.0183105 6.06836 0.0183105H11.9975C12.0856 0.0183105 12.173 0.0328398 12.2571 0.0614218C12.3409 0.0900039 12.42 0.132401 12.4917 0.186706C12.5632 0.241251 12.6263 0.307227 12.6787 0.382255C12.7311 0.457283 12.772 0.540648 12.8003 0.629252L17.946 16.7965H17.9451Z" fill="url(#paint2_linear_457_58774)"/>
</g>
<defs>
<linearGradient id="paint0_linear_457_58774" x1="7.94567" y1="1.34975" x2="1.81375" y2="18.4422" gradientUnits="userSpaceOnUse">
<stop stop-color="#114A8B"/>
<stop offset="1" stop-color="#0669BC"/>
</linearGradient>
<linearGradient id="paint1_linear_457_58774" x1="9.66947" y1="9.41467" x2="8.37601" y2="9.82866" gradientUnits="userSpaceOnUse">
<stop stop-opacity="0.3"/>
<stop offset="0.1" stop-opacity="0.2"/>
<stop offset="0.3" stop-opacity="0.1"/>
<stop offset="0.6" stop-opacity="0.1"/>
<stop offset="1" stop-opacity="0"/>
</linearGradient>
<linearGradient id="paint2_linear_457_58774" x1="8.96427" y1="0.844808" x2="15.6775" y2="17.7208" gradientUnits="userSpaceOnUse">
<stop stop-color="#3CCBF4"/>
<stop offset="1" stop-color="#2892DF"/>
</linearGradient>
<clipPath id="clip0_457_58774">
<rect width="18" height="18" fill="white"/>
</clipPath>
</defs>
</svg>
