<svg width="18" height="18" viewBox="0 0 18 18" fill="none" xmlns="http://www.w3.org/2000/svg">
<path d="M9 18C10.2426 18 11.25 16.9926 11.25 15.75H6.75C6.75 16.9926 7.75736 18 9 18Z" fill="#687780"/>
<path fill-rule="evenodd" clip-rule="evenodd" d="M9 2.15803L8.10316 2.33916C6.04746 2.75433 4.50003 4.57271 4.50003 6.75C4.50003 7.4563 4.34886 9.22191 3.9838 10.9599C3.80257 11.8227 3.56011 12.7211 3.23786 13.5H14.7622C14.4399 12.7211 14.1974 11.8227 14.0162 10.9599C13.6512 9.2219 13.5 7.4563 13.5 6.75C13.5 4.57269 11.9526 2.7543 9.89685 2.33915L9 2.15803ZM15.9967 13.5C16.2479 14.0033 16.5392 14.4011 16.875 14.625H1.125C1.46084 14.4011 1.75213 14.0033 2.00329 13.5C3.01412 11.4743 3.37503 7.73906 3.37503 6.75C3.37503 4.02676 5.31023 1.7555 7.88045 1.23642C7.87684 1.19977 7.875 1.1626 7.875 1.125C7.875 0.50368 8.37868 0 9 0C9.62132 0 10.125 0.50368 10.125 1.125C10.125 1.1626 10.1232 1.19976 10.1196 1.23641C12.6898 1.75548 14.625 4.02674 14.625 6.75C14.625 7.73906 14.9859 11.4743 15.9967 13.5Z" fill="#687780"/>
</svg>
