<svg width="24" height="24" viewBox="0 0 24 24" fill="none" xmlns="http://www.w3.org/2000/svg">
<path fill-rule="evenodd" clip-rule="evenodd" d="M12 22.5C17.799 22.5 22.5 17.799 22.5 12C22.5 6.20101 17.799 1.5 12 1.5C6.20101 1.5 1.5 6.20101 1.5 12C1.5 17.799 6.20101 22.5 12 22.5ZM12 24C18.6274 24 24 18.6274 24 12C24 5.37258 18.6274 0 12 0C5.37258 0 0 5.37258 0 12C0 18.6274 5.37258 24 12 24Z" fill="#006E2F"/>
<path fill-rule="evenodd" clip-rule="evenodd" d="M16.4544 7.4545C16.8938 7.01517 17.6061 7.01517 18.0454 7.4545C18.4794 7.88846 18.4847 8.58872 18.0614 9.02921L12.0731 16.5146C12.0645 16.5254 12.0552 16.5357 12.0454 16.5455C11.6061 16.9848 10.8938 16.9848 10.4544 16.5455L6.48478 12.5758C6.04544 12.1365 6.04544 11.4242 6.48478 10.9848C6.92412 10.5455 7.63643 10.5455 8.07577 10.9848L11.216 14.1251L16.4246 7.48816C16.4339 7.47635 16.4438 7.46511 16.4544 7.4545Z" fill="#687780"/>
</svg>
