<svg width="16" height="17" viewBox="0 0 16 17" fill="none" xmlns="http://www.w3.org/2000/svg">
<path fill-rule="evenodd" clip-rule="evenodd" d="M3.64645 9.64645C3.84171 9.45118 4.15829 9.45118 4.35355 9.64645L8 13.2929L11.6464 9.64645C11.8417 9.45118 12.1583 9.45118 12.3536 9.64645C12.5488 9.84171 12.5488 10.1583 12.3536 10.3536L8.35355 14.3536C8.15829 14.5488 7.84171 14.5488 7.64645 14.3536L3.64645 10.3536C3.45118 10.1583 3.45118 9.84171 3.64645 9.64645Z" fill="#687780"/>
<path fill-rule="evenodd" clip-rule="evenodd" d="M3.64645 7.35355C3.84171 7.54882 4.15829 7.54882 4.35355 7.35355L8 3.70711L11.6464 7.35355C11.8417 7.54882 12.1583 7.54882 12.3536 7.35355C12.5488 7.15829 12.5488 6.84171 12.3536 6.64645L8.35355 2.64645C8.15829 2.45118 7.84171 2.45118 7.64645 2.64645L3.64645 6.64645C3.45118 6.84171 3.45118 7.15829 3.64645 7.35355Z" fill="#687780"/>
</svg>
