<svg width="10" height="10" viewBox="0 0 10 10" fill="none" xmlns="http://www.w3.org/2000/svg">
<path fill-rule="evenodd" clip-rule="evenodd" d="M0 1.5625C0 1.04473 0.419733 0.625 0.9375 0.625H9.0625C9.58027 0.625 10 1.04473 10 1.5625V8.4375C10 8.95527 9.58027 9.375 9.0625 9.375H0.9375C0.419733 9.375 0 8.95527 0 8.4375V1.5625ZM0.9375 1.25C0.764911 1.25 0.625 1.38991 0.625 1.5625V8.4375C0.625 8.61009 0.764911 8.75 0.9375 8.75H9.0625C9.23509 8.75 9.375 8.61009 9.375 8.4375V1.5625C9.375 1.38991 9.23509 1.25 9.0625 1.25H0.9375Z" fill="#515459"/>
<path fill-rule="evenodd" clip-rule="evenodd" d="M3.125 8.75V1.25H3.75V8.75H3.125Z" fill="#515459"/>
<path fill-rule="evenodd" clip-rule="evenodd" d="M6.25 8.75V1.25H6.875V8.75H6.25Z" fill="#515459"/>
</svg>
