<svg width="16" height="16" viewBox="0 0 16 16" fill="none" xmlns="http://www.w3.org/2000/svg">
<g clip-path="url(#clip0_586_170393)">
<path fill-rule="evenodd" clip-rule="evenodd" d="M4 1.5H3C1.89543 1.5 1 2.39543 1 3.5V14C1 15.1046 1.89543 16 3 16H13C14.1046 16 15 15.1046 15 14V3.5C15 2.39543 14.1046 1.5 13 1.5H12V2.5H13C13.5523 2.5 14 2.94772 14 3.5V14C14 14.5523 13.5523 15 13 15H3C2.44772 15 2 14.5523 2 14V3.5C2 2.94772 2.44772 2.5 3 2.5H4V1.5Z" fill="#0047BB"/>
<path fill-rule="evenodd" clip-rule="evenodd" d="M9.5 1H6.5C6.22386 1 6 1.22386 6 1.5V2.5C6 2.77614 6.22386 3 6.5 3H9.5C9.77614 3 10 2.77614 10 2.5V1.5C10 1.22386 9.77614 1 9.5 1ZM6.5 0C5.67157 0 5 0.671573 5 1.5V2.5C5 3.32843 5.67157 4 6.5 4H9.5C10.3284 4 11 3.32843 11 2.5V1.5C11 0.671573 10.3284 0 9.5 0H6.5Z" fill="#0047BB"/>
</g>
<path fill-rule="evenodd" clip-rule="evenodd" d="M10.8536 7.14645C11.0488 7.34171 11.0488 7.65829 10.8536 7.85355L7.85355 10.8536C7.75979 10.9473 7.63261 11 7.5 11C7.36739 11 7.24021 10.9473 7.14645 10.8536L5.64645 9.35355C5.45118 9.15829 5.45118 8.84171 5.64645 8.64645C5.84171 8.45118 6.15829 8.45118 6.35355 8.64645L7.5 9.79289L10.1464 7.14645C10.3417 6.95118 10.6583 6.95118 10.8536 7.14645Z" fill="#0047BB"/>
<defs>
<clipPath id="clip0_586_170393">
<rect width="14" height="16" fill="white" transform="translate(1)"/>
</clipPath>
</defs>
</svg>
