<svg width="24" height="24" viewBox="0 0 24 24" fill="none" xmlns="http://www.w3.org/2000/svg">
<rect width="24" height="24" rx="12" fill="#CCDAF1"/>
<path d="M6.75938 13.4115H4.62813V10.15H4.00663V14H6.75938V13.4115ZM9.0253 10.0785C7.84279 10.0785 7.00954 10.9255 7.00954 12.075C7.00954 13.2245 7.84279 14.0715 9.0253 14.0715C10.2078 14.0715 11.041 13.2245 11.041 12.075C11.041 10.9255 10.2078 10.0785 9.0253 10.0785ZM9.0253 10.6752C9.81179 10.6752 10.3893 11.2445 10.3893 12.075C10.3893 12.9055 9.81179 13.4747 9.0253 13.4747C8.2388 13.4747 7.66129 12.9055 7.66129 12.075C7.66129 11.2445 8.2388 10.6752 9.0253 10.6752ZM13.682 10.0785C12.5133 10.0785 11.6663 10.9172 11.6663 12.075C11.6663 13.3592 12.6618 14.0688 13.6545 14.0688C14.8453 14.0688 15.5465 13.153 15.5465 12.0475C15.5465 11.998 15.5438 11.9485 15.541 11.899H13.847V12.4765H14.8673C14.7683 13.1117 14.3558 13.4747 13.6545 13.4747C12.8955 13.4747 12.318 12.9055 12.318 12.075C12.318 11.2445 12.8955 10.6752 13.682 10.6752C14.111 10.6752 14.474 10.854 14.716 11.1427L15.1725 10.7C14.8233 10.3095 14.2953 10.0785 13.682 10.0785ZM18.1884 10.0785C17.0059 10.0785 16.1726 10.9255 16.1726 12.075C16.1726 13.2245 17.0059 14.0715 18.1884 14.0715C19.3709 14.0715 20.2041 13.2245 20.2041 12.075C20.2041 10.9255 19.3709 10.0785 18.1884 10.0785ZM18.1884 10.6752C18.9749 10.6752 19.5524 11.2445 19.5524 12.075C19.5524 12.9055 18.9749 13.4747 18.1884 13.4747C17.4019 13.4747 16.8244 12.9055 16.8244 12.075C16.8244 11.2445 17.4019 10.6752 18.1884 10.6752Z" fill="#336CC9"/>
</svg>
