<?xml version="1.0" encoding="UTF-8"?><svg id="Contrast_logo" xmlns="http://www.w3.org/2000/svg" viewBox="0 0 180.38 158.73"><defs><style>.cls-1{fill:#0c0053;}.cls-1,.cls-2,.cls-3{stroke-width:0px;}.cls-2{fill:#00a14a;}.cls-3{fill:#004f45;}</style></defs><path class="cls-3" d="m74.31,22S2.31,18,.04,77.5c-.75,19.62,9.27,61.5,76.27,59.5-4-4-22.33-25.69-22-59,.3-30.33,15.36-50.54,20-56Z"/><path class="cls-2" d="m76.31,21S92.31,0,126.31,0c27.24,0,52.29,16.74,54,35,.54,5.72-2.12,11.07-6,15-7.8,7.92-20.28,5.63-24,5-22.96-3.9-23.3-21.87-49-29-8.42-2.34-25-5-25-5h0"/><path class="cls-1" d="m77.31,137.76s15.77,20.98,49.29,20.98c26.85,0,51.54-16.72,53.23-34.96.53-5.71-2.09-11.05-5.91-14.98-7.69-7.91-19.99-5.63-23.66-4.99-22.64,3.9-22.97,21.85-48.3,28.97-8.3,2.33-24.64,4.99-24.64,4.99h0"/></svg>