<svg width="16" height="16" viewBox="0 0 16 16" fill="none" xmlns="http://www.w3.org/2000/svg">
<path fill-rule="evenodd" clip-rule="evenodd" d="M0.5 8C0.776142 8 1 8.22386 1 8.5V12C1 12.5523 1.44772 13 2 13H14C14.5523 13 15 12.5523 15 12V8.5C15 8.22386 15.2239 8 15.5 8C15.7761 8 16 8.22386 16 8.5V12C16 13.1046 15.1046 14 14 14H2C0.895431 14 0 13.1046 0 12V8.5C0 8.22386 0.223858 8 0.5 8Z" fill="#336CC9"/>
<path fill-rule="evenodd" clip-rule="evenodd" d="M4.99999 7.50002C5.19525 7.30476 5.51184 7.30476 5.7071 7.50002L7.99999 9.79292L10.2929 7.5C10.4881 7.30474 10.8047 7.30474 11 7.5C11.1953 7.69526 11.1953 8.01184 11 8.20711L8.35355 10.8536C8.15828 11.0488 7.8417 11.0488 7.64644 10.8536L4.99999 8.20713C4.80473 8.01187 4.80473 7.69529 4.99999 7.50002Z" fill="#336CC9"/>
<path fill-rule="evenodd" clip-rule="evenodd" d="M8 1C8.27614 1 8.5 1.22386 8.5 1.5V9.5C8.5 9.77614 8.27614 10 8 10C7.72386 10 7.5 9.77614 7.5 9.5V1.5C7.5 1.22386 7.72386 1 8 1Z" fill="#336CC9"/>
</svg>
