<svg width="16" height="14" viewBox="0 0 16 14" fill="none" xmlns="http://www.w3.org/2000/svg">
<path fill-rule="evenodd" clip-rule="evenodd" d="M0.5 8.90002C0.776142 8.90002 1 9.12388 1 9.40002V11.9C1 12.4523 1.44772 12.9 2 12.9H14C14.5523 12.9 15 12.4523 15 11.9V9.40002C15 9.12388 15.2239 8.90002 15.5 8.90002C15.7761 8.90002 16 9.12388 16 9.40002V11.9C16 13.0046 15.1046 13.9 14 13.9H2C0.895431 13.9 0 13.0046 0 11.9V9.40002C0 9.12388 0.223858 8.90002 0.5 8.90002Z" fill="#687780"/>
<path fill-rule="evenodd" clip-rule="evenodd" d="M7.64645 10.8536C7.84171 11.0488 8.15829 11.0488 8.35355 10.8536L11.3536 7.85355C11.5488 7.65829 11.5488 7.34171 11.3536 7.14645C11.1583 6.95118 10.8417 6.95118 10.6464 7.14645L8.5 9.29289V0.5C8.5 0.223858 8.27614 -7.45058e-09 8 -7.45058e-09C7.72386 -7.45058e-09 7.5 0.223858 7.5 0.5V9.29289L5.35355 7.14645C5.15829 6.95118 4.84171 6.95118 4.64645 7.14645C4.45118 7.34171 4.45118 7.65829 4.64645 7.85355L7.64645 10.8536Z" fill="#687780"/>
</svg>
