<svg width="16" height="16" viewBox="0 0 16 16" fill="none" xmlns="http://www.w3.org/2000/svg">
<path fill-rule="evenodd" clip-rule="evenodd" d="M7.93842 2.0157C7.92343 2.02403 7.9036 2.03926 7.8837 2.07312L1.02675 13.7398C0.991085 13.8005 0.991803 13.864 1.02461 13.9231C1.04106 13.9528 1.06163 13.9724 1.07932 13.9833C1.09404 13.9925 1.11303 14 1.14459 14H14.8585C14.8901 14 14.909 13.9925 14.9238 13.9833C14.9415 13.9724 14.962 13.9528 14.9785 13.9231C15.0113 13.864 15.012 13.8005 14.9763 13.7398L8.11939 2.07312C8.09948 2.03926 8.07966 2.02403 8.06467 2.0157C8.04731 2.00605 8.02561 2 8.00154 2C7.97748 2 7.95578 2.00605 7.93842 2.0157ZM8.98151 1.56642C8.53763 0.811193 7.46546 0.811193 7.02158 1.56642L0.164626 13.2331C-0.292407 14.0107 0.256279 15 1.14459 15H14.8585C15.7468 15 16.2955 14.0107 15.8385 13.2331L8.98151 1.56642Z" fill="white"/>
<path d="M7.00195 12C7.00195 11.4477 7.44967 11 8.00195 11C8.55424 11 9.00195 11.4477 9.00195 12C9.00195 12.5523 8.55424 13 8.00195 13C7.44967 13 7.00195 12.5523 7.00195 12Z" fill="white"/>
<path d="M7.09992 5.99504C7.04664 5.46228 7.465 5 8.00041 5C8.53582 5 8.95418 5.46228 8.90091 5.99504L8.55016 9.50248C8.52192 9.78492 8.28426 10 8.00041 10C7.71657 10 7.4789 9.78492 7.45066 9.50248L7.09992 5.99504Z" fill="white"/>
</svg>
