<svg width="16" height="16" viewBox="0 0 16 16" fill="none" xmlns="http://www.w3.org/2000/svg">
<path fill-rule="evenodd" clip-rule="evenodd" d="M4 2H11C12.1046 2 13 2.89543 13 4V14C13 15.1046 12.1046 16 11 16H4C2.89543 16 2 15.1046 2 14V4C2 2.89543 2.89543 2 4 2ZM4 3C3.44772 3 3 3.44772 3 4V14C3 14.5523 3.44772 15 4 15H11C11.5523 15 12 14.5523 12 14V4C12 3.44772 11.5523 3 11 3H4Z" fill="#336CC9"/>
<path d="M6 0H13C14.1046 0 15 0.89543 15 2V12C15 13.1046 14.1046 14 13 14V13C13.5523 13 14 12.5523 14 12V2C14 1.44772 13.5523 1 13 1H6C5.44772 1 5 1.44772 5 2H4C4 0.89543 4.89543 0 6 0Z" fill="#336CC9"/>
</svg>
