<svg width="24" height="24" viewBox="0 0 24 24" fill="none" xmlns="http://www.w3.org/2000/svg">
<path fill-rule="evenodd" clip-rule="evenodd" d="M9.33333 16.3571C9.33333 16.0021 9.63181 15.7143 10 15.7143H14C14.3682 15.7143 14.6667 16.0021 14.6667 16.3571C14.6667 16.7122 14.3682 17 14 17H10C9.63181 17 9.33333 16.7122 9.33333 16.3571Z" fill="#687780"/>
<path fill-rule="evenodd" clip-rule="evenodd" d="M6.66667 12.5C6.66667 12.145 6.96514 11.8571 7.33333 11.8571H16.6667C17.0349 11.8571 17.3333 12.145 17.3333 12.5C17.3333 12.855 17.0349 13.1429 16.6667 13.1429H7.33333C6.96514 13.1429 6.66667 12.855 6.66667 12.5Z" fill="#687780"/>
<path fill-rule="evenodd" clip-rule="evenodd" d="M4 8.64286C4 8.28782 4.29848 8 4.66667 8H19.3333C19.7015 8 20 8.28782 20 8.64286C20 8.9979 19.7015 9.28571 19.3333 9.28571H4.66667C4.29848 9.28571 4 8.9979 4 8.64286Z" fill="#687780"/>
</svg>
