<svg width="24" height="24" viewBox="0 0 24 24" fill="none" xmlns="http://www.w3.org/2000/svg">
<path fill-rule="evenodd" clip-rule="evenodd" d="M12 22.5C17.799 22.5 22.5 17.799 22.5 12C22.5 6.20101 17.799 1.5 12 1.5C6.20101 1.5 1.5 6.20101 1.5 12C1.5 17.799 6.20101 22.5 12 22.5ZM12 24C18.6274 24 24 18.6274 24 12C24 5.37258 18.6274 0 12 0C5.37258 0 0 5.37258 0 12C0 18.6274 5.37258 24 12 24Z" fill="#006E2F"/>
<path d="M12.225 17.145C12.055 17.315 11.84 17.4 11.58 17.4C11.34 17.4 11.13 17.315 10.95 17.145C10.77 16.975 10.68 16.77 10.68 16.53V11.1C10.68 10.84 10.765 10.625 10.935 10.455C11.105 10.285 11.32 10.2 11.58 10.2C11.82 10.2 12.03 10.285 12.21 10.455C12.39 10.625 12.48 10.83 12.48 11.07V16.5C12.48 16.76 12.395 16.975 12.225 17.145Z" fill="#006E2F"/>
<path d="M12.195 7.71C12.005 7.89 11.77 7.98 11.49 7.98C11.21 7.98 10.975 7.89 10.785 7.71C10.595 7.53 10.5 7.3 10.5 7.02C10.5 6.74 10.595 6.5 10.785 6.3C10.975 6.1 11.21 6 11.49 6C11.77 6 12.005 6.1 12.195 6.3C12.385 6.5 12.48 6.74 12.48 7.02C12.48 7.3 12.385 7.53 12.195 7.71Z" fill="#006E2F"/>
</svg>
