<svg width="18" height="20" viewBox="0 0 18 20" fill="none" xmlns="http://www.w3.org/2000/svg">
<path d="M3.2154 17.764C4.78429 19.2047 6.85348 20.0042 9.0015 20C9.2082 20 9.41475 20 9.62147 19.9776C11.6967 19.8316 13.6452 18.942 15.0961 17.478C16.5471 16.0138 17.3997 14.0774 17.4917 12.0366C17.5838 9.9958 16.909 7.99264 15.5956 6.40854C14.2821 4.8242 12.4215 3.76892 10.3674 3.44326V2.67629H10.9646C11.1291 2.67629 11.2868 2.61217 11.403 2.49795C11.5193 2.38388 11.5846 2.22904 11.5846 2.06754V0.608742C11.5846 0.447253 11.5193 0.292412 11.403 0.178334C11.2868 0.0641174 11.1291 0 10.9646 0H7.03836C6.87389 0 6.71619 0.0641138 6.60001 0.178334C6.48368 0.292409 6.41838 0.447249 6.41838 0.608742V2.06754C6.41838 2.22903 6.48368 2.38387 6.60001 2.49795C6.71619 2.61217 6.87388 2.67629 7.03836 2.67629H7.63973V3.44525C5.53607 3.77432 3.63596 4.86938 2.31748 6.51228C0.999114 8.15521 0.359543 10.2254 0.525894 12.3106C0.692237 14.3957 1.65252 16.3429 3.21536 17.7643L3.2154 17.764ZM9.0015 5.75615C10.5979 5.75615 12.1289 6.37877 13.2577 7.48709C14.3865 8.5953 15.0207 10.0985 15.021 11.6662C15.0211 13.2337 14.3872 14.737 13.2585 15.8456C12.13 16.9543 10.5991 17.5771 9.00271 17.5776C7.4063 17.5779 5.87505 16.9555 4.7458 15.8476C3.6167 14.7395 2.98203 13.2365 2.98148 11.6689C2.98321 10.1017 3.61788 8.599 4.74624 7.49053C5.87475 6.38217 7.405 5.75843 9.00094 5.75633L9.0015 5.75615ZM8.97469 12.1255H4.68677C4.41405 12.1255 4.19292 11.9084 4.19292 11.6404C4.19465 10.3959 4.69902 9.20282 5.59546 8.32301C6.4919 7.4431 7.7072 6.94842 8.9748 6.9473C9.24752 6.9473 9.46865 7.16441 9.46865 7.43234V11.6404C9.46865 11.7691 9.41661 11.8925 9.32392 11.9833C9.23138 12.0743 9.10569 12.1254 8.9748 12.1254L8.97469 12.1255Z" fill="#6AAA75"/>
</svg>
