<svg width="20" height="20" viewBox="0 0 20 20" fill="none" xmlns="http://www.w3.org/2000/svg">
<path fill-rule="evenodd" clip-rule="evenodd" d="M10 18.75C14.8325 18.75 18.75 14.8325 18.75 10C18.75 5.16751 14.8325 1.25 10 1.25C5.16751 1.25 1.25 5.16751 1.25 10C1.25 14.8325 5.16751 18.75 10 18.75ZM10 20C15.5228 20 20 15.5228 20 10C20 4.47715 15.5228 0 10 0C4.47715 0 0 4.47715 0 10C0 15.5228 4.47715 20 10 20Z" fill="#9BA4AB"/>
<path d="M10.1875 14.2875C10.0458 14.4292 9.86667 14.5 9.65 14.5C9.45 14.5 9.275 14.4292 9.125 14.2875C8.975 14.1458 8.9 13.975 8.9 13.775V9.25C8.9 9.03333 8.97083 8.85417 9.1125 8.7125C9.25417 8.57083 9.43333 8.5 9.65 8.5C9.85 8.5 10.025 8.57083 10.175 8.7125C10.325 8.85417 10.4 9.025 10.4 9.225V13.75C10.4 13.9667 10.3292 14.1458 10.1875 14.2875Z" fill="#9BA4AB"/>
<path d="M10.1625 6.425C10.0042 6.575 9.80833 6.65 9.575 6.65C9.34167 6.65 9.14583 6.575 8.9875 6.425C8.82917 6.275 8.75 6.08333 8.75 5.85C8.75 5.61667 8.82917 5.41667 8.9875 5.25C9.14583 5.08333 9.34167 5 9.575 5C9.80833 5 10.0042 5.08333 10.1625 5.25C10.3208 5.41667 10.4 5.61667 10.4 5.85C10.4 6.08333 10.3208 6.275 10.1625 6.425Z" fill="#9BA4AB"/>
</svg>
