<svg width="56" height="56" viewBox="0 0 56 56" fill="none" xmlns="http://www.w3.org/2000/svg">
<rect x="4" y="4" width="48" height="48" rx="24" fill="#F2F4F7"/>
<path d="M28 32V28M28 24H28.01M18 24.5227V31.4773C18 31.7218 18 31.8441 18.0276 31.9592C18.0521 32.0613 18.0925 32.1588 18.1474 32.2483C18.2092 32.3492 18.2957 32.4357 18.4686 32.6086L23.3914 37.5314C23.5643 37.7043 23.6508 37.7908 23.7517 37.8526C23.8412 37.9075 23.9387 37.9479 24.0408 37.9724C24.1559 38 24.2782 38 24.5227 38H31.4773C31.7218 38 31.8441 38 31.9592 37.9724C32.0613 37.9479 32.1588 37.9075 32.2483 37.8526C32.3492 37.7908 32.4357 37.7043 32.6086 37.5314L37.5314 32.6086C37.7043 32.4357 37.7908 32.3492 37.8526 32.2483C37.9075 32.1588 37.9479 32.0613 37.9724 31.9592C38 31.8441 38 31.7218 38 31.4773V24.5227C38 24.2782 38 24.1559 37.9724 24.0408C37.9479 23.9387 37.9075 23.8412 37.8526 23.7517C37.7908 23.6508 37.7043 23.5643 37.5314 23.3914L32.6086 18.4686C32.4357 18.2957 32.3492 18.2092 32.2483 18.1474C32.1588 18.0925 32.0613 18.0521 31.9592 18.0276C31.8441 18 31.7218 18 31.4773 18H24.5227C24.2782 18 24.1559 18 24.0408 18.0276C23.9387 18.0521 23.8412 18.0925 23.7517 18.1474C23.6508 18.2092 23.5643 18.2957 23.3914 18.4686L18.4686 23.3914C18.2957 23.5643 18.2092 23.6508 18.1474 23.7517C18.0925 23.8412 18.0521 23.9387 18.0276 24.0408C18 24.1559 18 24.2782 18 24.5227Z" stroke="#555F6D" stroke-width="2" stroke-linecap="round" stroke-linejoin="round"/>
<rect x="4" y="4" width="48" height="48" rx="24" stroke="#F9FAFB" stroke-width="8"/>
</svg>
