<svg width="20" height="20" viewBox="0 0 20 20" fill="none" xmlns="http://www.w3.org/2000/svg">
<path fill-rule="evenodd" clip-rule="evenodd" d="M7.5 4.375C7.5 4.02982 7.77982 3.75 8.125 3.75L18.125 3.75C18.4702 3.75 18.75 4.02982 18.75 4.375V15.625C18.75 15.9702 18.4702 16.25 18.125 16.25H8.125C7.77982 16.25 7.5 15.9702 7.5 15.625V13.125C7.5 12.7798 7.22018 12.5 6.875 12.5C6.52982 12.5 6.25 12.7798 6.25 13.125V15.625C6.25 16.6605 7.08947 17.5 8.125 17.5H18.125C19.1605 17.5 20 16.6605 20 15.625V4.375C20 3.33947 19.1605 2.5 18.125 2.5L8.125 2.5C7.08947 2.5 6.25 3.33947 6.25 4.375V6.875C6.25 7.22018 6.52982 7.5 6.875 7.5C7.22018 7.5 7.5 7.22018 7.5 6.875V4.375Z" fill="#687780"/>
<path fill-rule="evenodd" clip-rule="evenodd" d="M14.8169 10.4419C15.061 10.1979 15.061 9.80214 14.8169 9.55806L11.0669 5.80806C10.8229 5.56398 10.4271 5.56398 10.1831 5.80806C9.93898 6.05214 9.93898 6.44786 10.1831 6.69194L12.8661 9.375H1.875C1.52982 9.375 1.25 9.65482 1.25 10C1.25 10.3452 1.52982 10.625 1.875 10.625H12.8661L10.1831 13.3081C9.93898 13.5521 9.93898 13.9479 10.1831 14.1919C10.4271 14.436 10.8229 14.436 11.0669 14.1919L14.8169 10.4419Z" fill="#687780"/>
</svg>
