<svg width="26" height="26" viewBox="0 0 26 26" fill="none" xmlns="http://www.w3.org/2000/svg">
<rect width="26" height="26" fill="white"/>
<path fill-rule="evenodd" clip-rule="evenodd" d="M8.625 14.3125C7.90013 14.3125 7.3125 13.7249 7.3125 13C7.3125 12.2751 7.90013 11.6875 8.625 11.6875C9.34987 11.6875 9.9375 12.2751 9.9375 13C9.9375 13.7249 9.34987 14.3125 8.625 14.3125ZM13 14.3125C12.2751 14.3125 11.6875 13.7249 11.6875 13C11.6875 12.2751 12.2751 11.6875 13 11.6875C13.7249 11.6875 14.3125 12.2751 14.3125 13C14.3125 13.7249 13.7249 14.3125 13 14.3125ZM17.375 14.3125C16.6501 14.3125 16.0625 13.7249 16.0625 13C16.0625 12.2751 16.6501 11.6875 17.375 11.6875C18.0999 11.6875 18.6875 12.2751 18.6875 13C18.6875 13.7249 18.0999 14.3125 17.375 14.3125Z" fill="#687780"/>
<rect x="0.5" y="0.5" width="25" height="25" rx="3.5" stroke="#EDF2F7"/>
</svg>
