<svg width="20" height="20" viewBox="0 0 20 20" fill="none" xmlns="http://www.w3.org/2000/svg">
<path d="M10 18.3333C9.52778 18.3333 9.12847 18.1701 8.80208 17.8438C8.47569 17.5174 8.3125 17.1181 8.3125 16.6458H11.6875C11.6875 17.1181 11.5243 17.5174 11.1979 17.8438C10.8715 18.1701 10.4722 18.3333 10 18.3333ZM6.625 15.3542V14.1042H13.375V15.3542H6.625ZM6.72917 12.8333C5.8125 12.2361 5.08681 11.4896 4.55208 10.5938C4.01736 9.69792 3.75 8.6875 3.75 7.5625C3.75 5.86806 4.36806 4.40278 5.60417 3.16667C6.84028 1.93056 8.30556 1.3125 10 1.3125C11.6944 1.3125 13.1597 1.93056 14.3958 3.16667C15.6319 4.40278 16.25 5.86806 16.25 7.5625C16.25 8.6875 15.9861 9.69792 15.4583 10.5938C14.9306 11.4896 14.2014 12.2361 13.2708 12.8333H6.72917ZM7.1875 11.5833H12.8333C13.5 11.1389 14.0278 10.5625 14.4167 9.85417C14.8056 9.14583 15 8.38194 15 7.5625C15 6.1875 14.5104 5.01042 13.5312 4.03125C12.5521 3.05208 11.375 2.5625 10 2.5625C8.625 2.5625 7.44792 3.05208 6.46875 4.03125C5.48958 5.01042 5 6.1875 5 7.5625C5 8.38194 5.19444 9.14583 5.58333 9.85417C5.97222 10.5625 6.50694 11.1389 7.1875 11.5833Z" fill="#687780"/>
</svg>
