<svg width="55" height="49" viewBox="0 0 55 49" fill="none" xmlns="http://www.w3.org/2000/svg">
<ellipse cx="27.4951" cy="24.5023" rx="16.9248" ry="15.4808" fill="#0047BB"/>
<ellipse opacity="0.2" cx="27.4983" cy="24.502" rx="22.0022" ry="20.125" fill="#0047BB"/>
<ellipse opacity="0.2" cx="27.4979" cy="24.5032" rx="26.5155" ry="24.2532" fill="#0047BB"/>
<g clip-path="url(#clip0_691_90678)">
<path d="M24.6777 20.8852C24.6777 20.384 24.6777 20.1335 24.792 19.9953C24.8915 19.875 25.0436 19.8005 25.2083 19.7916C25.3973 19.7812 25.6252 19.9202 26.0811 20.1982L32.0135 23.8157C32.3902 24.0454 32.5786 24.1603 32.6442 24.305C32.7016 24.4316 32.7016 24.5738 32.6442 24.7004C32.5786 24.8451 32.3902 24.96 32.0135 25.1897L26.0811 28.8072C25.6252 29.0852 25.3973 29.2242 25.2083 29.2139C25.0436 29.2049 24.8915 29.1304 24.792 29.0101C24.6777 28.872 24.6777 28.6214 24.6777 28.1202V20.8852Z" stroke="white" stroke-width="2" stroke-linecap="round" stroke-linejoin="round"/>
</g>
<defs>
<clipPath id="clip0_691_90678">
<rect width="13.5398" height="12.3846" fill="white" transform="translate(21.8574 18.3105)"/>
</clipPath>
</defs>
</svg>
