<svg width="14" height="11" viewBox="0 0 14 11" fill="none" xmlns="http://www.w3.org/2000/svg">
<path fill-rule="evenodd" clip-rule="evenodd" d="M4 9.5C4 9.22386 4.22386 9 4.5 9H13.5C13.7761 9 14 9.22386 14 9.5C14 9.77614 13.7761 10 13.5 10H4.5C4.22386 10 4 9.77614 4 9.5Z" fill="#687780"/>
<path fill-rule="evenodd" clip-rule="evenodd" d="M4 5.5C4 5.22386 4.22386 5 4.5 5H13.5C13.7761 5 14 5.22386 14 5.5C14 5.77614 13.7761 6 13.5 6H4.5C4.22386 6 4 5.77614 4 5.5Z" fill="#687780"/>
<path fill-rule="evenodd" clip-rule="evenodd" d="M4 1.5C4 1.22386 4.22386 1 4.5 1H13.5C13.7761 1 14 1.22386 14 1.5C14 1.77614 13.7761 2 13.5 2H4.5C4.22386 2 4 1.77614 4 1.5Z" fill="#687780"/>
<path fill-rule="evenodd" clip-rule="evenodd" d="M2.85355 0.146447C3.04882 0.341709 3.04882 0.658291 2.85355 0.853553L1.35355 2.35355C1.15829 2.54882 0.841709 2.54882 0.646447 2.35355L0.146447 1.85355C-0.0488155 1.65829 -0.0488155 1.34171 0.146447 1.14645C0.341709 0.951184 0.658291 0.951184 0.853553 1.14645L1 1.29289L2.14645 0.146447C2.34171 -0.0488155 2.65829 -0.0488155 2.85355 0.146447Z" fill="#687780"/>
<path fill-rule="evenodd" clip-rule="evenodd" d="M2.85355 4.14645C3.04882 4.34171 3.04882 4.65829 2.85355 4.85355L1.35355 6.35355C1.15829 6.54882 0.841709 6.54882 0.646447 6.35355L0.146447 5.85355C-0.0488155 5.65829 -0.0488155 5.34171 0.146447 5.14645C0.341709 4.95118 0.658291 4.95118 0.853553 5.14645L1 5.29289L2.14645 4.14645C2.34171 3.95118 2.65829 3.95118 2.85355 4.14645Z" fill="#687780"/>
<path fill-rule="evenodd" clip-rule="evenodd" d="M2.85355 8.14645C3.04882 8.34171 3.04882 8.65829 2.85355 8.85355L1.35355 10.3536C1.15829 10.5488 0.841709 10.5488 0.646447 10.3536L0.146447 9.85355C-0.0488155 9.65829 -0.0488155 9.34171 0.146447 9.14645C0.341709 8.95118 0.658291 8.95118 0.853553 9.14645L1 9.29289L2.14645 8.14645C2.34171 7.95118 2.65829 7.95118 2.85355 8.14645Z" fill="#687780"/>
</svg>
