<?xml version="1.0" encoding="UTF-8"?><svg id="Layer_1" xmlns="http://www.w3.org/2000/svg" viewBox="0 0 230.33 174.71"><path d="m152.13,0c.37,0,.74,0,1.11,0,8.47.17,16.75,1.49,24.75,4.35,15.79,5.65,28.12,15.68,37.29,29.64,7.33,11.17,11.69,23.47,13.71,36.64,1.04,6.78,1.55,13.6,1.27,20.45-.85,20.86-7.05,39.85-20.47,56.11-11.01,13.34-25.04,21.94-41.98,25.67-5.73,1.26-11.53,1.83-17.4,1.81-6.48-.02-12.95,0-19.43,0q-1.31,0-.85-1.22c14.15-37.3,28.29-74.6,42.44-111.9,3.03-7.99,6.07-15.99,9.1-23.98.13-.33.36-.65.26-1.11h-1.08c-32.38,0-64.75,0-97.13-.03-1,0-1.37.26-1.58,1.24-2.6,12.13-5.24,24.26-7.9,36.38-.2.93.06,1.06.92,1.06,16-.02,32.01-.02,48.01-.02.59,0,1.18-.21.75.86-9.72,24.02-19.41,48.05-29.11,72.07-3.46,8.58-6.95,17.14-10.39,25.73-.27.68-.56.94-1.33.94-27.37-.02-54.74-.02-82.12-.03-.33,0-.75.21-.98-.25,4.73-4.22,9.07-8.81,13.09-13.71,13.82-16.85,22.88-36,27.46-57.26,2.38-11.05,3.37-22.24,2.9-33.53-.77-18.66-5.63-36.15-15.46-52.13C24.07,11.41,19.52,5.5,14.15.26c.39-.42.89-.21,1.34-.21,45.07-.01,90.14-.01,135.21-.01.48,0,.96-.02,1.43-.03Z" style="fill:#e85f26; stroke-width:0px;"/></svg>