<svg xmlns="http://www.w3.org/2000/svg" width="192" height="146" viewBox="0 0 192 146" data-name="Layer 1"><path d="M128 84c12.5 0 30.6-2.6 30.6-17.5a19.53 19.53 0 0 0-.3-3.4l-7.4-32.4c-1.7-7.1-3.2-10.4-15.7-16.6C125.5 9.1 104.4 1 98.1 1c-5.9 0-7.6 7.5-14.5 7.5-6.7 0-11.6-5.6-17.9-5.6-6 0-9.9 4.1-12.9 12.5 0 0-8.4 23.7-9.5 27.2a6.15 6.15 0 0 0-.2 1.9C43 53.7 79.3 83.9 128 84m32.5-11.4c1.7 8.2 1.7 9.1 1.7 10.1 0 14-15.7 21.8-36.4 21.8-46.8 0-87.7-27.4-87.7-45.5a18.35 18.35 0 0 1 1.5-7.3C22.8 52.5 1 55.5 1 74.7 1 106.2 75.6 145 134.6 145c45.3 0 56.7-20.5 56.7-36.7 0-12.7-11-27.1-30.8-35.7" style="fill:#e00"/><path d="M160.5 72.6c1.7 8.2 1.7 9.1 1.7 10.1 0 14-15.7 21.8-36.4 21.8-46.8 0-87.7-27.4-87.7-45.5a18.35 18.35 0 0 1 1.5-7.3l3.7-9.1a6.15 6.15 0 0 0-.2 1.9c0 9.2 36.3 39.4 84.9 39.4 12.5 0 30.6-2.6 30.6-17.5a19.53 19.53 0 0 0-.3-3.4Z"/></svg>
