<svg width="31" height="22" viewBox="0 0 31 22" fill="none" xmlns="http://www.w3.org/2000/svg">
<path d="M20.3611 12.6764C22.2705 12.6764 25.0367 12.2823 25.0367 10.0094C25.0424 9.83403 25.0265 9.65858 24.9893 9.48705L23.8468 4.54419C23.5841 3.45664 23.3534 2.96327 21.4426 2.00861C19.9609 1.24488 16.7349 0 15.7803 0C14.8898 0 14.6271 1.1517 13.5731 1.1517C12.5528 1.1517 11.7951 0.296327 10.8405 0.296327C9.92401 0.296327 9.32524 0.922586 8.86548 2.20565C8.86548 2.20565 7.58088 5.82879 7.41592 6.35423C7.38815 6.45048 7.37527 6.55041 7.37773 6.65056C7.37773 8.05735 12.9255 12.6764 20.3611 12.6764ZM25.333 10.932C25.5957 12.183 25.5957 12.3144 25.5957 12.4793C25.5957 14.6178 23.193 15.8046 20.0312 15.8046C12.8873 15.8046 6.6308 11.624 6.6308 8.85774C6.62983 8.47263 6.70835 8.09147 6.86145 7.73811C4.28768 7.86947 0.962402 8.33076 0.962402 11.265C0.962402 16.0735 12.3557 22 21.3769 22C28.2917 22 30.0376 18.8718 30.0376 16.4019C30.0376 14.4543 28.3574 12.2487 25.3284 10.932H25.333Z" fill="#EE0000"/>
<path d="M25.3284 10.9333C25.5912 12.1843 25.5912 12.3156 25.5912 12.4806C25.5912 14.619 23.1885 15.8059 20.0266 15.8059C12.8827 15.8059 6.62623 11.6252 6.62623 8.85897C6.62525 8.47387 6.70377 8.09271 6.85688 7.73935L7.41593 6.35547C7.38816 6.45172 7.37528 6.55165 7.37774 6.6518C7.37774 8.05859 12.9255 12.6776 20.3611 12.6776C22.2705 12.6776 25.0367 12.2835 25.0367 10.0107C25.0424 9.83527 25.0265 9.65982 24.9893 9.48829L25.3284 10.9333Z" fill="black"/>
</svg>
