<svg width="20" height="20" viewBox="0 0 20 20" fill="none" xmlns="http://www.w3.org/2000/svg">
<g clip-path="url(#clip0_1012_62178)">
<path d="M10 12.5C11.3807 12.5 12.5 11.3807 12.5 10C12.5 8.61929 11.3807 7.5 10 7.5C8.61929 7.5 7.5 8.61929 7.5 10C7.5 11.3807 8.61929 12.5 10 12.5Z" stroke="#336CC9" stroke-width="1.5" stroke-linecap="round" stroke-linejoin="round"/>
<path d="M16.1667 12.4999C16.0557 12.7513 16.0226 13.0301 16.0716 13.3004C16.1207 13.5707 16.2495 13.8202 16.4417 14.0166L16.4917 14.0666C16.6466 14.2214 16.7695 14.4052 16.8534 14.6075C16.9373 14.8099 16.9805 15.0267 16.9805 15.2458C16.9805 15.4648 16.9373 15.6817 16.8534 15.884C16.7695 16.0863 16.6466 16.2701 16.4917 16.4249C16.3369 16.5799 16.153 16.7028 15.9507 16.7867C15.7484 16.8706 15.5315 16.9137 15.3125 16.9137C15.0935 16.9137 14.8766 16.8706 14.6743 16.7867C14.4719 16.7028 14.2881 16.5799 14.1333 16.4249L14.0833 16.3749C13.8869 16.1828 13.6375 16.0539 13.3671 16.0049C13.0968 15.9559 12.818 15.989 12.5667 16.0999C12.3202 16.2056 12.11 16.381 11.9619 16.6045C11.8138 16.8281 11.7344 17.0901 11.7333 17.3583V17.4999C11.7333 17.942 11.5577 18.3659 11.2452 18.6784C10.9326 18.991 10.5087 19.1666 10.0666 19.1666C9.62462 19.1666 9.2007 18.991 8.88814 18.6784C8.57558 18.3659 8.39998 17.942 8.39998 17.4999V17.4249C8.39353 17.1491 8.30425 16.8816 8.14374 16.6572C7.98323 16.4328 7.75893 16.2618 7.49998 16.1666C7.24864 16.0557 6.96982 16.0226 6.69949 16.0716C6.42916 16.1206 6.17971 16.2495 5.98331 16.4416L5.93331 16.4916C5.77853 16.6466 5.59471 16.7695 5.39238 16.8534C5.19005 16.9372 4.97317 16.9804 4.75415 16.9804C4.53512 16.9804 4.31824 16.9372 4.11591 16.8534C3.91358 16.7695 3.72977 16.6466 3.57498 16.4916C3.42002 16.3368 3.29709 16.153 3.21321 15.9507C3.12934 15.7483 3.08617 15.5314 3.08617 15.3124C3.08617 15.0934 3.12934 14.8765 3.21321 14.6742C3.29709 14.4719 3.42002 14.288 3.57498 14.1333L3.62498 14.0833C3.81709 13.8869 3.94597 13.6374 3.99498 13.3671C4.044 13.0968 4.01091 12.8179 3.89998 12.5666C3.79434 12.3201 3.61894 12.1099 3.39537 11.9618C3.17179 11.8138 2.9098 11.7343 2.64165 11.7333H2.49998C2.05795 11.7333 1.63403 11.5577 1.32147 11.2451C1.00891 10.9325 0.833313 10.5086 0.833313 10.0666C0.833313 9.62456 1.00891 9.20064 1.32147 8.88808C1.63403 8.57552 2.05795 8.39992 2.49998 8.39992H2.57498C2.85081 8.39347 3.11832 8.30419 3.34273 8.14368C3.56714 7.98317 3.73808 7.75887 3.83331 7.49992C3.94424 7.24857 3.97733 6.96976 3.92832 6.69943C3.8793 6.4291 3.75043 6.17965 3.55831 5.98325L3.50831 5.93325C3.35335 5.77847 3.23042 5.59465 3.14655 5.39232C3.06267 5.18999 3.0195 4.97311 3.0195 4.75409C3.0195 4.53506 3.06267 4.31818 3.14655 4.11585C3.23042 3.91352 3.35335 3.72971 3.50831 3.57492C3.6631 3.41996 3.84692 3.29703 4.04925 3.21315C4.25158 3.12928 4.46846 3.08611 4.68748 3.08611C4.90651 3.08611 5.12338 3.12928 5.32571 3.21315C5.52805 3.29703 5.71186 3.41996 5.86665 3.57492L5.91665 3.62492C6.11305 3.81703 6.36249 3.94591 6.63282 3.99492C6.90315 4.04394 7.18197 4.01085 7.43332 3.89992H7.49998C7.74646 3.79428 7.95666 3.61888 8.10473 3.39531C8.25279 3.17173 8.33225 2.90974 8.33332 2.64159V2.49992C8.33332 2.05789 8.50891 1.63397 8.82147 1.32141C9.13403 1.00885 9.55796 0.833252 9.99998 0.833252C10.442 0.833252 10.8659 1.00885 11.1785 1.32141C11.4911 1.63397 11.6666 2.05789 11.6666 2.49992V2.57492C11.6677 2.84307 11.7472 3.10507 11.8952 3.32864C12.0433 3.55222 12.2535 3.72762 12.5 3.83325C12.7513 3.94418 13.0301 3.97727 13.3005 3.92826C13.5708 3.87924 13.8203 3.75037 14.0167 3.55825L14.0667 3.50825C14.2214 3.35329 14.4053 3.23036 14.6076 3.14649C14.8099 3.06261 15.0268 3.01944 15.2458 3.01944C15.4648 3.01944 15.6817 3.06261 15.8841 3.14649C16.0864 3.23036 16.2702 3.35329 16.425 3.50825C16.5799 3.66304 16.7029 3.84686 16.7868 4.04919C16.8706 4.25152 16.9138 4.46839 16.9138 4.68742C16.9138 4.90645 16.8706 5.12332 16.7868 5.32565C16.7029 5.52798 16.5799 5.7118 16.425 5.86659L16.375 5.91659C16.1829 6.11299 16.054 6.36243 16.005 6.63276C15.956 6.90309 15.9891 7.18191 16.1 7.43325V7.49992C16.2056 7.7464 16.381 7.9566 16.6046 8.10467C16.8282 8.25273 17.0902 8.33218 17.3583 8.33325H17.5C17.942 8.33325 18.3659 8.50885 18.6785 8.82141C18.9911 9.13397 19.1667 9.55789 19.1667 9.99992C19.1667 10.4419 18.9911 10.8659 18.6785 11.1784C18.3659 11.491 17.942 11.6666 17.5 11.6666H17.425C17.1568 11.6677 16.8948 11.7471 16.6713 11.8952C16.4477 12.0432 16.2723 12.2534 16.1667 12.4999V12.4999Z" stroke="#336CC9" stroke-width="1.5" stroke-linecap="round" stroke-linejoin="round"/>
</g>
<defs>
<clipPath id="clip0_1012_62178">
<rect width="20" height="20" fill="white"/>
</clipPath>
</defs>
</svg>
