<svg width="14" height="15" viewBox="0 0 14 15" fill="none" xmlns="http://www.w3.org/2000/svg">
<g clip-path="url(#clip0_1046_25100)">
<path d="M7 9.25C7.9665 9.25 8.75 8.4665 8.75 7.5C8.75 6.5335 7.9665 5.75 7 5.75C6.0335 5.75 5.25 6.5335 5.25 7.5C5.25 8.4665 6.0335 9.25 7 9.25Z" stroke="#687780" stroke-width="1.2" stroke-linecap="round" stroke-linejoin="round"/>
<path d="M11.3166 9.25004C11.2389 9.42598 11.2158 9.62115 11.2501 9.81039C11.2844 9.99962 11.3746 10.1742 11.5091 10.3117L11.5441 10.3467C11.6526 10.4551 11.7386 10.5837 11.7973 10.7254C11.856 10.867 11.8863 11.0188 11.8863 11.1721C11.8863 11.3254 11.856 11.4773 11.7973 11.6189C11.7386 11.7605 11.6526 11.8892 11.5441 11.9975C11.4357 12.106 11.3071 12.1921 11.1654 12.2508C11.0238 12.3095 10.872 12.3397 10.7187 12.3397C10.5654 12.3397 10.4135 12.3095 10.2719 12.2508C10.1303 12.1921 10.0016 12.106 9.89325 11.9975L9.85825 11.9625C9.72077 11.8281 9.54616 11.7379 9.35693 11.7035C9.1677 11.6692 8.97253 11.6924 8.79659 11.77C8.62405 11.844 8.47691 11.9668 8.37327 12.1233C8.26962 12.2798 8.214 12.4632 8.21325 12.6509V12.75C8.21325 13.0595 8.09034 13.3562 7.87154 13.575C7.65275 13.7938 7.35601 13.9167 7.04659 13.9167C6.73717 13.9167 6.44042 13.7938 6.22163 13.575C6.00284 13.3562 5.87992 13.0595 5.87992 12.75V12.6975C5.8754 12.5045 5.81291 12.3172 5.70055 12.1601C5.5882 12.003 5.43118 11.8834 5.24992 11.8167C5.07398 11.7391 4.87881 11.7159 4.68958 11.7502C4.50035 11.7845 4.32573 11.8747 4.18825 12.0092L4.15325 12.0442C4.0449 12.1527 3.91623 12.2387 3.7746 12.2974C3.63297 12.3562 3.48115 12.3864 3.32784 12.3864C3.17452 12.3864 3.0227 12.3562 2.88107 12.2974C2.73944 12.2387 2.61077 12.1527 2.50242 12.0442C2.39395 11.9359 2.30789 11.8072 2.24918 11.6656C2.19047 11.5239 2.16025 11.3721 2.16025 11.2188C2.16025 11.0655 2.19047 10.9137 2.24918 10.772C2.30789 10.6304 2.39395 10.5017 2.50242 10.3934L2.53742 10.3584C2.6719 10.2209 2.76211 10.0463 2.79642 9.85705C2.83073 9.66782 2.80757 9.47265 2.72992 9.29671C2.65597 9.12418 2.53319 8.97703 2.37669 8.87339C2.22019 8.76974 2.03679 8.71412 1.84909 8.71338H1.74992C1.4405 8.71338 1.14375 8.59046 0.924961 8.37167C0.706168 8.15287 0.583252 7.85613 0.583252 7.54671C0.583252 7.23729 0.706168 6.94054 0.924961 6.72175C1.14375 6.50296 1.4405 6.38004 1.74992 6.38004H1.80242C1.9955 6.37553 2.18275 6.31303 2.33984 6.20067C2.49693 6.08832 2.61659 5.9313 2.68325 5.75004C2.7609 5.5741 2.78407 5.37893 2.74975 5.1897C2.71544 5.00047 2.62523 4.82585 2.49075 4.68837L2.45575 4.65337C2.34728 4.54502 2.26123 4.41635 2.20252 4.27472C2.1438 4.13309 2.11358 3.98128 2.11358 3.82796C2.11358 3.67464 2.1438 3.52283 2.20252 3.38119C2.26123 3.23956 2.34728 3.11089 2.45575 3.00254C2.5641 2.89407 2.69277 2.80802 2.83441 2.7493C2.97604 2.69059 3.12785 2.66037 3.28117 2.66037C3.43449 2.66037 3.5863 2.69059 3.72793 2.7493C3.86956 2.80802 3.99823 2.89407 4.10659 3.00254L4.14159 3.03754C4.27907 3.17202 4.45368 3.26223 4.64291 3.29654C4.83214 3.33085 5.02731 3.30769 5.20325 3.23004H5.24992C5.42245 3.1561 5.5696 3.03332 5.67324 2.87681C5.77688 2.72031 5.8325 2.53692 5.83325 2.34921V2.25004C5.83325 1.94062 5.95617 1.64388 6.17496 1.42508C6.39375 1.20629 6.6905 1.08337 6.99992 1.08337C7.30934 1.08337 7.60609 1.20629 7.82488 1.42508C8.04367 1.64388 8.16659 1.94062 8.16659 2.25004V2.30254C8.16734 2.49025 8.22296 2.67364 8.3266 2.83015C8.43024 2.98665 8.57739 3.10943 8.74992 3.18337C8.92586 3.26102 9.12103 3.28419 9.31026 3.24988C9.49949 3.21557 9.67411 3.12535 9.81159 2.99087L9.84659 2.95587C9.95494 2.8474 10.0836 2.76135 10.2252 2.70264C10.3669 2.64393 10.5187 2.61371 10.672 2.61371C10.8253 2.61371 10.9771 2.64393 11.1188 2.70264C11.2604 2.76135 11.3891 2.8474 11.4974 2.95587C11.6059 3.06423 11.6919 3.1929 11.7507 3.33453C11.8094 3.47616 11.8396 3.62797 11.8396 3.78129C11.8396 3.93461 11.8094 4.08642 11.7507 4.22805C11.6919 4.36969 11.6059 4.49836 11.4974 4.60671L11.4624 4.64171C11.3279 4.77919 11.2377 4.9538 11.2034 5.14303C11.1691 5.33226 11.1923 5.52743 11.2699 5.70337V5.75004C11.3439 5.92257 11.4666 6.06972 11.6231 6.17336C11.7797 6.27701 11.963 6.33263 12.1508 6.33337H12.2499C12.5593 6.33337 12.8561 6.45629 13.0749 6.67508C13.2937 6.89388 13.4166 7.19062 13.4166 7.50004C13.4166 7.80946 13.2937 8.10621 13.0749 8.325C12.8561 8.54379 12.5593 8.66671 12.2499 8.66671H12.1974C12.0097 8.66746 11.8263 8.72308 11.6698 8.82672C11.5133 8.93037 11.3905 9.07751 11.3166 9.25004V9.25004Z" stroke="#687780" stroke-width="1.2" stroke-linecap="round" stroke-linejoin="round"/>
</g>
<defs>
<clipPath id="clip0_1046_25100">
<rect width="14" height="14" fill="white" transform="translate(0 0.5)"/>
</clipPath>
</defs>
</svg>
