<svg width="26" height="26" viewBox="0 0 26 26" fill="none" xmlns="http://www.w3.org/2000/svg">
<rect width="26" height="26" fill="white"/>
<path fill-rule="evenodd" clip-rule="evenodd" d="M14.75 12.5625C14.75 12.2864 14.5261 12.0625 14.25 12.0625L8.45711 12.0625L10.6036 9.91605C10.7988 9.72079 10.7988 9.40421 10.6036 9.20895C10.4083 9.01368 10.0917 9.01368 9.89645 9.20895L6.89645 12.2089C6.70118 12.4042 6.70118 12.7208 6.89645 12.9161L9.89645 15.9161C10.0917 16.1113 10.4083 16.1113 10.6036 15.9161C10.7988 15.7208 10.7988 15.4042 10.6036 15.2089L8.45711 13.0625L14.25 13.0625C14.5261 13.0625 14.75 12.8386 14.75 12.5625Z" fill="black"/>
<path fill-rule="evenodd" clip-rule="evenodd" d="M16.9375 6.875C17.1791 6.875 17.375 7.07088 17.375 7.3125L17.375 18.6875C17.375 18.9291 17.1791 19.125 16.9375 19.125C16.6959 19.125 16.5 18.9291 16.5 18.6875L16.5 7.3125C16.5 7.07088 16.6959 6.875 16.9375 6.875Z" fill="black"/>
<rect x="25.5" y="25.5" width="25" height="25" rx="3.5" transform="rotate(-180 25.5 25.5)" stroke="#EDF2F7"/>
</svg>
