<svg width="16" height="14" viewBox="0 0 16 14" fill="none" xmlns="http://www.w3.org/2000/svg">
<path fill-rule="evenodd" clip-rule="evenodd" d="M11 1C11 0.447715 11.4477 0 12 0H14C14.5523 0 15 0.447716 15 1V13H15.5C15.7761 13 16 13.2239 16 13.5C16 13.7761 15.7761 14 15.5 14H0.5C0.223858 14 0 13.7761 0 13.5C0 13.2239 0.223858 13 0.5 13H1V10C1 9.44771 1.44772 9 2 9H4C4.55228 9 5 9.44771 5 10V13H6V6C6 5.44772 6.44772 5 7 5H9C9.55228 5 10 5.44772 10 6V13H11V1ZM12 13H14V1H12V13ZM9 13V6H7V13H9ZM4 13V10H2V13H4Z" fill="#687780"/>
</svg>
