<svg width="12" height="16" viewBox="0 0 12 16" fill="none" xmlns="http://www.w3.org/2000/svg">
<path fill-rule="evenodd" clip-rule="evenodd" d="M9.2514 0.0678058C9.45242 0.184724 9.54629 0.424795 9.4779 0.647058L7.67699 6.50002H11C11.1995 6.50002 11.3799 6.61858 11.459 6.8017C11.5381 6.98482 11.5008 7.19744 11.3641 7.3427L3.36411 15.8427C3.20473 16.012 2.94964 16.0491 2.74863 15.9322C2.54761 15.8153 2.45373 15.5752 2.52212 15.353L4.32303 9.50002H1.00001C0.800534 9.50002 0.620142 9.38145 0.541023 9.19833C0.461903 9.01522 0.499197 8.80259 0.635911 8.65733L8.63591 0.157333C8.79529 -0.0120074 9.05038 -0.049112 9.2514 0.0678058ZM2.15722 8.50002H5.00001C5.15868 8.50002 5.30794 8.57533 5.40221 8.70296C5.49647 8.8306 5.52456 8.9954 5.4779 9.14706L4.11074 13.5903L9.8428 7.50002H7.00001C6.84134 7.50002 6.69208 7.4247 6.59782 7.29707C6.50355 7.16943 6.47546 7.00463 6.52212 6.85297L7.88928 2.40971L2.15722 8.50002Z" fill="#687780"/>
</svg>
