<svg width="14" height="14" viewBox="0 0 14 14" fill="none" xmlns="http://www.w3.org/2000/svg">
<path d="M0.5 1C0.5 0.723858 0.723858 0.5 1 0.5H5.58579C5.71839 0.5 5.84557 0.552678 5.93934 0.646447L12.9393 7.64645C13.1346 7.84171 13.1346 8.15829 12.9393 8.35355L8.35355 12.9393C8.15829 13.1346 7.84171 13.1346 7.64645 12.9393L0.646446 5.93934C0.552678 5.84557 0.5 5.7184 0.5 5.58579V1Z" stroke="#687780" stroke-linejoin="round"/>
<path d="M4.5 3.5C4.5 4.05228 4.05228 4.5 3.5 4.5C2.94772 4.5 2.5 4.05228 2.5 3.5C2.5 2.94772 2.94772 2.5 3.5 2.5C4.05228 2.5 4.5 2.94772 4.5 3.5Z" stroke="#687780" stroke-linejoin="round"/>
</svg>
