<svg width="14" height="14" viewBox="0 0 14 14" fill="none" xmlns="http://www.w3.org/2000/svg">
<path fill-rule="evenodd" clip-rule="evenodd" d="M2.625 8.3125C1.90013 8.3125 1.3125 7.72487 1.3125 7C1.3125 6.27513 1.90013 5.6875 2.625 5.6875C3.34987 5.6875 3.9375 6.27513 3.9375 7C3.9375 7.72487 3.34987 8.3125 2.625 8.3125ZM7 8.3125C6.27513 8.3125 5.6875 7.72487 5.6875 7C5.6875 6.27513 6.27513 5.6875 7 5.6875C7.72487 5.6875 8.3125 6.27513 8.3125 7C8.3125 7.72487 7.72487 8.3125 7 8.3125ZM11.375 8.3125C10.6501 8.3125 10.0625 7.72487 10.0625 7C10.0625 6.27513 10.6501 5.6875 11.375 5.6875C12.0999 5.6875 12.6875 6.27513 12.6875 7C12.6875 7.72487 12.0999 8.3125 11.375 8.3125Z" fill="#687780"/>
</svg>
