<svg width="16" height="15" viewBox="0 0 16 15" fill="none" xmlns="http://www.w3.org/2000/svg">
<path fill-rule="evenodd" clip-rule="evenodd" d="M0 1.5C0 0.671573 0.671573 0 1.5 0H14.5C15.3284 0 16 0.671573 16 1.5V3.5C16 4.32843 15.3284 5 14.5 5H1.5C0.671573 5 0 4.32843 0 3.5V1.5ZM1.5 1C1.22386 1 1 1.22386 1 1.5V3.5C1 3.77614 1.22386 4 1.5 4H14.5C14.7761 4 15 3.77614 15 3.5V1.5C15 1.22386 14.7761 1 14.5 1H1.5Z" fill="#687780"/>
<path fill-rule="evenodd" clip-rule="evenodd" d="M14 7H2C1.44772 7 1 7.44772 1 8V13C1 13.5523 1.44772 14 2 14H14C14.5523 14 15 13.5523 15 13V8C15 7.44772 14.5523 7 14 7ZM2 6C0.895431 6 0 6.89543 0 8V13C0 14.1046 0.895431 15 2 15H14C15.1046 15 16 14.1046 16 13V8C16 6.89543 15.1046 6 14 6H2Z" fill="#687780"/>
<path fill-rule="evenodd" clip-rule="evenodd" d="M15 11H1V10H15V11Z" fill="#687780"/>
<path fill-rule="evenodd" clip-rule="evenodd" d="M2 12.5C2 12.2239 2.22386 12 2.5 12H8.5C8.77614 12 9 12.2239 9 12.5C9 12.7761 8.77614 13 8.5 13H2.5C2.22386 13 2 12.7761 2 12.5Z" fill="#687780"/>
<path fill-rule="evenodd" clip-rule="evenodd" d="M2 2.5C2 2.22386 2.22386 2 2.5 2H5.5C5.77614 2 6 2.22386 6 2.5C6 2.77614 5.77614 3 5.5 3H2.5C2.22386 3 2 2.77614 2 2.5Z" fill="#687780"/>
<path fill-rule="evenodd" clip-rule="evenodd" d="M2 8.5C2 8.22386 2.22386 8 2.5 8H11.5C11.7761 8 12 8.22386 12 8.5C12 8.77614 11.7761 9 11.5 9H2.5C2.22386 9 2 8.77614 2 8.5Z" fill="#687780"/>
<path d="M12.8232 2.82322L12.4268 2.42678C12.2693 2.26929 12.3808 2 12.6036 2H13.3964C13.6192 2 13.7307 2.26929 13.5732 2.42678L13.1768 2.82322C13.0791 2.92085 12.9209 2.92085 12.8232 2.82322Z" fill="#687780"/>
</svg>
