<svg width="20" height="10" viewBox="0 0 20 10" fill="none" xmlns="http://www.w3.org/2000/svg">
<path d="M2.29159 10C1.88881 10 1.54506 9.85764 1.26034 9.57292C0.975613 9.28819 0.833252 8.94444 0.833252 8.54167C0.833252 8.13889 0.975613 7.79514 1.26034 7.51042C1.54506 7.22569 1.88881 7.08333 2.29159 7.08333C2.36103 7.08333 2.43047 7.08681 2.49992 7.09375C2.56936 7.10069 2.65964 7.11806 2.77075 7.14583L6.93742 2.97917C6.90964 2.86806 6.89228 2.77778 6.88534 2.70833C6.87839 2.63889 6.87492 2.56944 6.87492 2.5C6.87492 2.09722 7.01728 1.75347 7.302 1.46875C7.58672 1.18403 7.93048 1.04167 8.33325 1.04167C8.73603 1.04167 9.07978 1.18403 9.3645 1.46875C9.64923 1.75347 9.79159 2.09722 9.79159 2.5C9.79159 2.52778 9.77075 2.6875 9.72909 2.97917L12.0208 5.27083C12.1319 5.24306 12.2221 5.22569 12.2916 5.21875C12.361 5.21181 12.4305 5.20833 12.4999 5.20833C12.5694 5.20833 12.6388 5.21181 12.7083 5.21875C12.7777 5.22569 12.868 5.24306 12.9791 5.27083L16.3124 1.9375C16.2846 1.82639 16.2673 1.73611 16.2603 1.66667C16.2534 1.59722 16.2499 1.52778 16.2499 1.45833C16.2499 1.05556 16.3923 0.711805 16.677 0.427083C16.9617 0.142361 17.3055 0 17.7083 0C18.111 0 18.4548 0.142361 18.7395 0.427083C19.0242 0.711805 19.1666 1.05556 19.1666 1.45833C19.1666 1.86111 19.0242 2.20486 18.7395 2.48958C18.4548 2.77431 18.111 2.91667 17.7083 2.91667C17.6388 2.91667 17.5694 2.91319 17.4999 2.90625C17.4305 2.89931 17.3402 2.88194 17.2291 2.85417L13.8958 6.1875C13.9235 6.29861 13.9409 6.38889 13.9478 6.45833C13.9548 6.52778 13.9583 6.59722 13.9583 6.66667C13.9583 7.06944 13.8159 7.41319 13.5312 7.69792C13.2464 7.98264 12.9027 8.125 12.4999 8.125C12.0971 8.125 11.7534 7.98264 11.4687 7.69792C11.1839 7.41319 11.0416 7.06944 11.0416 6.66667C11.0416 6.59722 11.0451 6.52778 11.052 6.45833C11.0589 6.38889 11.0763 6.29861 11.1041 6.1875L8.81242 3.89583C8.70131 3.92361 8.61103 3.94097 8.54159 3.94792C8.47214 3.95486 8.4027 3.95833 8.33325 3.95833C8.30548 3.95833 8.14575 3.9375 7.85409 3.89583L3.68742 8.0625C3.7152 8.17361 3.73256 8.26389 3.7395 8.33333C3.74645 8.40278 3.74992 8.47222 3.74992 8.54167C3.74992 8.94444 3.60756 9.28819 3.32284 9.57292C3.03811 9.85764 2.69436 10 2.29159 10Z" fill="#6691D6"/>
</svg>
