<svg width="10" height="10" viewBox="0 0 10 10" fill="none" xmlns="http://www.w3.org/2000/svg">
<path fill-rule="evenodd" clip-rule="evenodd" d="M5.18306 0.808058C5.42714 0.563981 5.82286 0.563981 6.06694 0.808058L9.81694 4.55806C10.061 4.80214 10.061 5.19786 9.81694 5.44194L6.06694 9.19194C5.82286 9.43602 5.42714 9.43602 5.18306 9.19194C4.93898 8.94786 4.93898 8.55214 5.18306 8.30806L8.49112 5L5.18306 1.69194C4.93898 1.44786 4.93898 1.05214 5.18306 0.808058Z" fill="#0047BB"/>
<path fill-rule="evenodd" clip-rule="evenodd" d="M0 5C3.01764e-08 4.65482 0.279822 4.375 0.625 4.375L8.75 4.375C9.09518 4.375 9.375 4.65482 9.375 5C9.375 5.34518 9.09518 5.625 8.75 5.625L0.625 5.625C0.279822 5.625 -3.01764e-08 5.34518 0 5Z" fill="#0047BB"/>
</svg>
