<svg width="8" height="8" viewBox="0 0 8 8" fill="none" xmlns="http://www.w3.org/2000/svg">
<path fill-rule="evenodd" clip-rule="evenodd" d="M1.06564 1.06564C1.2365 0.894786 1.5135 0.894786 1.68436 1.06564L4 3.38128L6.31564 1.06564C6.4865 0.894786 6.7635 0.894786 6.93436 1.06564C7.10521 1.2365 7.10521 1.5135 6.93436 1.68436L4.61872 4L6.93436 6.31564C7.10521 6.4865 7.10521 6.7635 6.93436 6.93436C6.7635 7.10521 6.4865 7.10521 6.31564 6.93436L4 4.61872L1.68436 6.93436C1.5135 7.10521 1.2365 7.10521 1.06564 6.93436C0.894786 6.7635 0.894786 6.4865 1.06564 6.31564L3.38128 4L1.06564 1.68436C0.894786 1.5135 0.894786 1.2365 1.06564 1.06564Z" fill="#515459"/>
</svg>
